G04 #@! TF.GenerationSoftware,KiCad,Pcbnew,(5.1.10)-1*
G04 #@! TF.CreationDate,2021-10-14T23:30:01+01:00*
G04 #@! TF.ProjectId,Battery,42617474-6572-4792-9e6b-696361645f70,rev?*
G04 #@! TF.SameCoordinates,Original*
G04 #@! TF.FileFunction,Copper,L2,Bot*
G04 #@! TF.FilePolarity,Positive*
%FSLAX46Y46*%
G04 Gerber Fmt 4.6, Leading zero omitted, Abs format (unit mm)*
G04 Created by KiCad (PCBNEW (5.1.10)-1) date 2021-10-14 23:30:01*
%MOMM*%
%LPD*%
G01*
G04 APERTURE LIST*
G04 #@! TA.AperFunction,ComponentPad*
%ADD10O,2.200000X1.700000*%
G04 #@! TD*
G04 #@! TA.AperFunction,ViaPad*
%ADD11C,0.800000*%
G04 #@! TD*
G04 #@! TA.AperFunction,Conductor*
%ADD12C,0.500000*%
G04 #@! TD*
G04 #@! TA.AperFunction,Conductor*
%ADD13C,0.254000*%
G04 #@! TD*
G04 #@! TA.AperFunction,Conductor*
%ADD14C,0.100000*%
G04 #@! TD*
G04 APERTURE END LIST*
D10*
X187000000Y-60500000D03*
G04 #@! TA.AperFunction,ComponentPad*
G36*
G01*
X188100000Y-62400000D02*
X188100000Y-63600000D01*
G75*
G02*
X187850000Y-63850000I-250000J0D01*
G01*
X186150000Y-63850000D01*
G75*
G02*
X185900000Y-63600000I0J250000D01*
G01*
X185900000Y-62400000D01*
G75*
G02*
X186150000Y-62150000I250000J0D01*
G01*
X187850000Y-62150000D01*
G75*
G02*
X188100000Y-62400000I0J-250000D01*
G01*
G37*
G04 #@! TD.AperFunction*
G04 #@! TA.AperFunction,ComponentPad*
G36*
G01*
X249400000Y-53600000D02*
X249400000Y-52400000D01*
G75*
G02*
X249650000Y-52150000I250000J0D01*
G01*
X251350000Y-52150000D01*
G75*
G02*
X251600000Y-52400000I0J-250000D01*
G01*
X251600000Y-53600000D01*
G75*
G02*
X251350000Y-53850000I-250000J0D01*
G01*
X249650000Y-53850000D01*
G75*
G02*
X249400000Y-53600000I0J250000D01*
G01*
G37*
G04 #@! TD.AperFunction*
X250500000Y-55500000D03*
G04 #@! TA.AperFunction,ComponentPad*
G36*
G01*
X249400000Y-61100000D02*
X249400000Y-59900000D01*
G75*
G02*
X249650000Y-59650000I250000J0D01*
G01*
X251350000Y-59650000D01*
G75*
G02*
X251600000Y-59900000I0J-250000D01*
G01*
X251600000Y-61100000D01*
G75*
G02*
X251350000Y-61350000I-250000J0D01*
G01*
X249650000Y-61350000D01*
G75*
G02*
X249400000Y-61100000I0J250000D01*
G01*
G37*
G04 #@! TD.AperFunction*
X250500000Y-63000000D03*
X187000000Y-43000000D03*
G04 #@! TA.AperFunction,ComponentPad*
G36*
G01*
X188100000Y-44900000D02*
X188100000Y-46100000D01*
G75*
G02*
X187850000Y-46350000I-250000J0D01*
G01*
X186150000Y-46350000D01*
G75*
G02*
X185900000Y-46100000I0J250000D01*
G01*
X185900000Y-44900000D01*
G75*
G02*
X186150000Y-44650000I250000J0D01*
G01*
X187850000Y-44650000D01*
G75*
G02*
X188100000Y-44900000I0J-250000D01*
G01*
G37*
G04 #@! TD.AperFunction*
G04 #@! TA.AperFunction,ComponentPad*
G36*
G01*
X249400000Y-43600000D02*
X249400000Y-42400000D01*
G75*
G02*
X249650000Y-42150000I250000J0D01*
G01*
X251350000Y-42150000D01*
G75*
G02*
X251600000Y-42400000I0J-250000D01*
G01*
X251600000Y-43600000D01*
G75*
G02*
X251350000Y-43850000I-250000J0D01*
G01*
X249650000Y-43850000D01*
G75*
G02*
X249400000Y-43600000I0J250000D01*
G01*
G37*
G04 #@! TD.AperFunction*
X250500000Y-45500000D03*
X187000000Y-50500000D03*
X187000000Y-53000000D03*
G04 #@! TA.AperFunction,ComponentPad*
G36*
G01*
X188100000Y-54900000D02*
X188100000Y-56100000D01*
G75*
G02*
X187850000Y-56350000I-250000J0D01*
G01*
X186150000Y-56350000D01*
G75*
G02*
X185900000Y-56100000I0J250000D01*
G01*
X185900000Y-54900000D01*
G75*
G02*
X186150000Y-54650000I250000J0D01*
G01*
X187850000Y-54650000D01*
G75*
G02*
X188100000Y-54900000I0J-250000D01*
G01*
G37*
G04 #@! TD.AperFunction*
D11*
X200000000Y-53500000D03*
X201000000Y-53500000D03*
X201000000Y-49500000D03*
X200000000Y-49500000D03*
X237000000Y-55500000D03*
X237000000Y-54500000D03*
X237000000Y-53500000D03*
X237000000Y-52500000D03*
X237000000Y-51500000D03*
X237000000Y-63500000D03*
X237000000Y-62500000D03*
X237000000Y-61500000D03*
X237000000Y-60500000D03*
X237000000Y-59500000D03*
X236000000Y-63500000D03*
X236000000Y-62500000D03*
X236000000Y-61500000D03*
X236000000Y-60500000D03*
X236000000Y-59500000D03*
X236000000Y-51500000D03*
X236000000Y-52500000D03*
X236000000Y-53500000D03*
X236000000Y-55500000D03*
X227000000Y-59000000D03*
X241500000Y-63500000D03*
X193500000Y-53500000D03*
X226000000Y-59000000D03*
X228000000Y-59000000D03*
X236000000Y-54500000D03*
X231500000Y-63500000D03*
X203000000Y-54500000D03*
X197500000Y-58500000D03*
X242000000Y-49500000D03*
X225500000Y-44500000D03*
X204500000Y-63500000D03*
X207000000Y-63500000D03*
X209500000Y-63500000D03*
X211549990Y-61575000D03*
X214000000Y-63500000D03*
X217000000Y-52500000D03*
X217500000Y-46500000D03*
X213675000Y-57765000D03*
X212456001Y-64450001D03*
D12*
X219500000Y-43000000D02*
X250500000Y-43000000D01*
X217500000Y-45000000D02*
X219500000Y-43000000D01*
X217500000Y-52000000D02*
X217500000Y-47000000D01*
X217000000Y-52500000D02*
X217500000Y-52000000D01*
X217500000Y-47000000D02*
X217500000Y-45000000D01*
X212456001Y-64450001D02*
X212456001Y-64450001D01*
X212500000Y-58940000D02*
X213675000Y-57765000D01*
X212500000Y-64406002D02*
X212500000Y-58940000D01*
X212456001Y-64450001D02*
X212500000Y-64406002D01*
D13*
X260840001Y-64840000D02*
X213414734Y-64840000D01*
X213451227Y-64751899D01*
X213491001Y-64551940D01*
X213491001Y-64348062D01*
X213451227Y-64148103D01*
X213385000Y-63988218D01*
X213385000Y-63356890D01*
X248808524Y-63356890D01*
X248829643Y-63467493D01*
X248948138Y-63735608D01*
X249116663Y-63975454D01*
X249328741Y-64177814D01*
X249576223Y-64334911D01*
X249849598Y-64440708D01*
X250138360Y-64491140D01*
X250373000Y-64331496D01*
X250373000Y-63127000D01*
X250627000Y-63127000D01*
X250627000Y-64331496D01*
X250861640Y-64491140D01*
X251150402Y-64440708D01*
X251423777Y-64334911D01*
X251671259Y-64177814D01*
X251883337Y-63975454D01*
X252051862Y-63735608D01*
X252170357Y-63467493D01*
X252191476Y-63356890D01*
X252070155Y-63127000D01*
X250627000Y-63127000D01*
X250373000Y-63127000D01*
X248929845Y-63127000D01*
X248808524Y-63356890D01*
X213385000Y-63356890D01*
X213385000Y-59900000D01*
X248761928Y-59900000D01*
X248761928Y-61100000D01*
X248778992Y-61273254D01*
X248829528Y-61439850D01*
X248911595Y-61593386D01*
X249022038Y-61727962D01*
X249156614Y-61838405D01*
X249256044Y-61891552D01*
X249116663Y-62024546D01*
X248948138Y-62264392D01*
X248829643Y-62532507D01*
X248808524Y-62643110D01*
X248929845Y-62873000D01*
X250373000Y-62873000D01*
X250373000Y-62853000D01*
X250627000Y-62853000D01*
X250627000Y-62873000D01*
X252070155Y-62873000D01*
X252191476Y-62643110D01*
X252170357Y-62532507D01*
X252051862Y-62264392D01*
X251883337Y-62024546D01*
X251743956Y-61891552D01*
X251843386Y-61838405D01*
X251977962Y-61727962D01*
X252088405Y-61593386D01*
X252170472Y-61439850D01*
X252221008Y-61273254D01*
X252238072Y-61100000D01*
X252238072Y-60353740D01*
X256195000Y-60353740D01*
X256195000Y-60646260D01*
X256252068Y-60933158D01*
X256364010Y-61203411D01*
X256526525Y-61446632D01*
X256733368Y-61653475D01*
X256877828Y-61750000D01*
X256733368Y-61846525D01*
X256526525Y-62053368D01*
X256364010Y-62296589D01*
X256252068Y-62566842D01*
X256195000Y-62853740D01*
X256195000Y-63146260D01*
X256252068Y-63433158D01*
X256364010Y-63703411D01*
X256526525Y-63946632D01*
X256733368Y-64153475D01*
X256976589Y-64315990D01*
X257246842Y-64427932D01*
X257533740Y-64485000D01*
X257826260Y-64485000D01*
X258113158Y-64427932D01*
X258383411Y-64315990D01*
X258626632Y-64153475D01*
X258833475Y-63946632D01*
X258995990Y-63703411D01*
X259107932Y-63433158D01*
X259165000Y-63146260D01*
X259165000Y-62853740D01*
X259107932Y-62566842D01*
X258995990Y-62296589D01*
X258833475Y-62053368D01*
X258626632Y-61846525D01*
X258482172Y-61750000D01*
X258626632Y-61653475D01*
X258833475Y-61446632D01*
X258995990Y-61203411D01*
X259107932Y-60933158D01*
X259165000Y-60646260D01*
X259165000Y-60353740D01*
X259107932Y-60066842D01*
X258995990Y-59796589D01*
X258833475Y-59553368D01*
X258626632Y-59346525D01*
X258383411Y-59184010D01*
X258113158Y-59072068D01*
X257826260Y-59015000D01*
X257533740Y-59015000D01*
X257246842Y-59072068D01*
X256976589Y-59184010D01*
X256733368Y-59346525D01*
X256526525Y-59553368D01*
X256364010Y-59796589D01*
X256252068Y-60066842D01*
X256195000Y-60353740D01*
X252238072Y-60353740D01*
X252238072Y-59900000D01*
X252221008Y-59726746D01*
X252170472Y-59560150D01*
X252088405Y-59406614D01*
X251977962Y-59272038D01*
X251843386Y-59161595D01*
X251689850Y-59079528D01*
X251523254Y-59028992D01*
X251350000Y-59011928D01*
X249650000Y-59011928D01*
X249476746Y-59028992D01*
X249310150Y-59079528D01*
X249156614Y-59161595D01*
X249022038Y-59272038D01*
X248911595Y-59406614D01*
X248829528Y-59560150D01*
X248778992Y-59726746D01*
X248761928Y-59900000D01*
X213385000Y-59900000D01*
X213385000Y-59306578D01*
X213920044Y-58771535D01*
X213976898Y-58760226D01*
X214165256Y-58682205D01*
X214334774Y-58568937D01*
X214478937Y-58424774D01*
X214592205Y-58255256D01*
X214670226Y-58066898D01*
X214710000Y-57866939D01*
X214710000Y-57663061D01*
X214670226Y-57463102D01*
X214592205Y-57274744D01*
X214478937Y-57105226D01*
X214334774Y-56961063D01*
X214165256Y-56847795D01*
X213976898Y-56769774D01*
X213776939Y-56730000D01*
X213573061Y-56730000D01*
X213373102Y-56769774D01*
X213184744Y-56847795D01*
X213015226Y-56961063D01*
X212871063Y-57105226D01*
X212757795Y-57274744D01*
X212679774Y-57463102D01*
X212668465Y-57519956D01*
X211904951Y-58283471D01*
X211871184Y-58311183D01*
X211843471Y-58344951D01*
X211843468Y-58344954D01*
X211760590Y-58445941D01*
X211678412Y-58599687D01*
X211627805Y-58766510D01*
X211610719Y-58940000D01*
X211615001Y-58983479D01*
X211615000Y-63845697D01*
X211538796Y-63959745D01*
X211460775Y-64148103D01*
X211421001Y-64348062D01*
X211421001Y-64551940D01*
X211460775Y-64751899D01*
X211497268Y-64840000D01*
X176660000Y-64840000D01*
X176660000Y-60353740D01*
X178335000Y-60353740D01*
X178335000Y-60646260D01*
X178392068Y-60933158D01*
X178504010Y-61203411D01*
X178666525Y-61446632D01*
X178873368Y-61653475D01*
X179017828Y-61750000D01*
X178873368Y-61846525D01*
X178666525Y-62053368D01*
X178504010Y-62296589D01*
X178392068Y-62566842D01*
X178335000Y-62853740D01*
X178335000Y-63146260D01*
X178392068Y-63433158D01*
X178504010Y-63703411D01*
X178666525Y-63946632D01*
X178873368Y-64153475D01*
X179116589Y-64315990D01*
X179386842Y-64427932D01*
X179673740Y-64485000D01*
X179966260Y-64485000D01*
X180253158Y-64427932D01*
X180523411Y-64315990D01*
X180766632Y-64153475D01*
X180973475Y-63946632D01*
X181135990Y-63703411D01*
X181247932Y-63433158D01*
X181305000Y-63146260D01*
X181305000Y-62853740D01*
X181247932Y-62566842D01*
X181178825Y-62400000D01*
X185261928Y-62400000D01*
X185261928Y-63600000D01*
X185278992Y-63773254D01*
X185329528Y-63939850D01*
X185411595Y-64093386D01*
X185522038Y-64227962D01*
X185656614Y-64338405D01*
X185810150Y-64420472D01*
X185976746Y-64471008D01*
X186150000Y-64488072D01*
X187850000Y-64488072D01*
X188023254Y-64471008D01*
X188189850Y-64420472D01*
X188343386Y-64338405D01*
X188477962Y-64227962D01*
X188588405Y-64093386D01*
X188670472Y-63939850D01*
X188721008Y-63773254D01*
X188738072Y-63600000D01*
X188738072Y-62400000D01*
X188721008Y-62226746D01*
X188670472Y-62060150D01*
X188588405Y-61906614D01*
X188477962Y-61772038D01*
X188343386Y-61661595D01*
X188243956Y-61608448D01*
X188383337Y-61475454D01*
X188551862Y-61235608D01*
X188670357Y-60967493D01*
X188691476Y-60856890D01*
X188570155Y-60627000D01*
X187127000Y-60627000D01*
X187127000Y-60647000D01*
X186873000Y-60647000D01*
X186873000Y-60627000D01*
X185429845Y-60627000D01*
X185308524Y-60856890D01*
X185329643Y-60967493D01*
X185448138Y-61235608D01*
X185616663Y-61475454D01*
X185756044Y-61608448D01*
X185656614Y-61661595D01*
X185522038Y-61772038D01*
X185411595Y-61906614D01*
X185329528Y-62060150D01*
X185278992Y-62226746D01*
X185261928Y-62400000D01*
X181178825Y-62400000D01*
X181135990Y-62296589D01*
X180973475Y-62053368D01*
X180766632Y-61846525D01*
X180622172Y-61750000D01*
X180766632Y-61653475D01*
X180973475Y-61446632D01*
X181135990Y-61203411D01*
X181247932Y-60933158D01*
X181305000Y-60646260D01*
X181305000Y-60353740D01*
X181263103Y-60143110D01*
X185308524Y-60143110D01*
X185429845Y-60373000D01*
X186873000Y-60373000D01*
X186873000Y-59168504D01*
X187127000Y-59168504D01*
X187127000Y-60373000D01*
X188570155Y-60373000D01*
X188691476Y-60143110D01*
X188670357Y-60032507D01*
X188551862Y-59764392D01*
X188383337Y-59524546D01*
X188171259Y-59322186D01*
X187923777Y-59165089D01*
X187650402Y-59059292D01*
X187361640Y-59008860D01*
X187127000Y-59168504D01*
X186873000Y-59168504D01*
X186638360Y-59008860D01*
X186349598Y-59059292D01*
X186076223Y-59165089D01*
X185828741Y-59322186D01*
X185616663Y-59524546D01*
X185448138Y-59764392D01*
X185329643Y-60032507D01*
X185308524Y-60143110D01*
X181263103Y-60143110D01*
X181247932Y-60066842D01*
X181135990Y-59796589D01*
X180973475Y-59553368D01*
X180766632Y-59346525D01*
X180523411Y-59184010D01*
X180253158Y-59072068D01*
X179966260Y-59015000D01*
X179673740Y-59015000D01*
X179386842Y-59072068D01*
X179116589Y-59184010D01*
X178873368Y-59346525D01*
X178666525Y-59553368D01*
X178504010Y-59796589D01*
X178392068Y-60066842D01*
X178335000Y-60353740D01*
X176660000Y-60353740D01*
X176660000Y-55353740D01*
X178335000Y-55353740D01*
X178335000Y-55646260D01*
X178392068Y-55933158D01*
X178504010Y-56203411D01*
X178666525Y-56446632D01*
X178873368Y-56653475D01*
X179116589Y-56815990D01*
X179386842Y-56927932D01*
X179673740Y-56985000D01*
X179966260Y-56985000D01*
X180253158Y-56927932D01*
X180523411Y-56815990D01*
X180766632Y-56653475D01*
X180973475Y-56446632D01*
X181135990Y-56203411D01*
X181247932Y-55933158D01*
X181305000Y-55646260D01*
X181305000Y-55353740D01*
X181247932Y-55066842D01*
X181135990Y-54796589D01*
X180973475Y-54553368D01*
X180766632Y-54346525D01*
X180523411Y-54184010D01*
X180253158Y-54072068D01*
X179966260Y-54015000D01*
X179673740Y-54015000D01*
X179386842Y-54072068D01*
X179116589Y-54184010D01*
X178873368Y-54346525D01*
X178666525Y-54553368D01*
X178504010Y-54796589D01*
X178392068Y-55066842D01*
X178335000Y-55353740D01*
X176660000Y-55353740D01*
X176660000Y-53000000D01*
X185257815Y-53000000D01*
X185286487Y-53291111D01*
X185371401Y-53571034D01*
X185509294Y-53829014D01*
X185694866Y-54055134D01*
X185758337Y-54107223D01*
X185656614Y-54161595D01*
X185522038Y-54272038D01*
X185411595Y-54406614D01*
X185329528Y-54560150D01*
X185278992Y-54726746D01*
X185261928Y-54900000D01*
X185261928Y-56100000D01*
X185278992Y-56273254D01*
X185329528Y-56439850D01*
X185411595Y-56593386D01*
X185522038Y-56727962D01*
X185656614Y-56838405D01*
X185810150Y-56920472D01*
X185976746Y-56971008D01*
X186150000Y-56988072D01*
X187850000Y-56988072D01*
X188023254Y-56971008D01*
X188189850Y-56920472D01*
X188343386Y-56838405D01*
X188477962Y-56727962D01*
X188588405Y-56593386D01*
X188670472Y-56439850D01*
X188721008Y-56273254D01*
X188738072Y-56100000D01*
X188738072Y-55856890D01*
X248808524Y-55856890D01*
X248829643Y-55967493D01*
X248948138Y-56235608D01*
X249116663Y-56475454D01*
X249328741Y-56677814D01*
X249576223Y-56834911D01*
X249849598Y-56940708D01*
X250138360Y-56991140D01*
X250373000Y-56831496D01*
X250373000Y-55627000D01*
X250627000Y-55627000D01*
X250627000Y-56831496D01*
X250861640Y-56991140D01*
X251150402Y-56940708D01*
X251423777Y-56834911D01*
X251671259Y-56677814D01*
X251883337Y-56475454D01*
X252051862Y-56235608D01*
X252170357Y-55967493D01*
X252191476Y-55856890D01*
X252070155Y-55627000D01*
X250627000Y-55627000D01*
X250373000Y-55627000D01*
X248929845Y-55627000D01*
X248808524Y-55856890D01*
X188738072Y-55856890D01*
X188738072Y-54900000D01*
X188721008Y-54726746D01*
X188670472Y-54560150D01*
X188588405Y-54406614D01*
X188477962Y-54272038D01*
X188343386Y-54161595D01*
X188241663Y-54107223D01*
X188305134Y-54055134D01*
X188490706Y-53829014D01*
X188628599Y-53571034D01*
X188713513Y-53291111D01*
X188742185Y-53000000D01*
X188713513Y-52708889D01*
X188628599Y-52428966D01*
X188612080Y-52398061D01*
X215965000Y-52398061D01*
X215965000Y-52601939D01*
X216004774Y-52801898D01*
X216082795Y-52990256D01*
X216196063Y-53159774D01*
X216340226Y-53303937D01*
X216509744Y-53417205D01*
X216698102Y-53495226D01*
X216898061Y-53535000D01*
X217101939Y-53535000D01*
X217301898Y-53495226D01*
X217490256Y-53417205D01*
X217659774Y-53303937D01*
X217803937Y-53159774D01*
X217917205Y-52990256D01*
X217995226Y-52801898D01*
X218006535Y-52745043D01*
X218095045Y-52656533D01*
X218128817Y-52628817D01*
X218239411Y-52494059D01*
X218289686Y-52400000D01*
X248761928Y-52400000D01*
X248761928Y-53600000D01*
X248778992Y-53773254D01*
X248829528Y-53939850D01*
X248911595Y-54093386D01*
X249022038Y-54227962D01*
X249156614Y-54338405D01*
X249256044Y-54391552D01*
X249116663Y-54524546D01*
X248948138Y-54764392D01*
X248829643Y-55032507D01*
X248808524Y-55143110D01*
X248929845Y-55373000D01*
X250373000Y-55373000D01*
X250373000Y-55353000D01*
X250627000Y-55353000D01*
X250627000Y-55373000D01*
X252070155Y-55373000D01*
X252191476Y-55143110D01*
X252170357Y-55032507D01*
X252051862Y-54764392D01*
X251883337Y-54524546D01*
X251743956Y-54391552D01*
X251843386Y-54338405D01*
X251977962Y-54227962D01*
X252088405Y-54093386D01*
X252170472Y-53939850D01*
X252221008Y-53773254D01*
X252238072Y-53600000D01*
X252238072Y-52853740D01*
X256195000Y-52853740D01*
X256195000Y-53146260D01*
X256252068Y-53433158D01*
X256364010Y-53703411D01*
X256526525Y-53946632D01*
X256733368Y-54153475D01*
X256877828Y-54250000D01*
X256733368Y-54346525D01*
X256526525Y-54553368D01*
X256364010Y-54796589D01*
X256252068Y-55066842D01*
X256195000Y-55353740D01*
X256195000Y-55646260D01*
X256252068Y-55933158D01*
X256364010Y-56203411D01*
X256526525Y-56446632D01*
X256733368Y-56653475D01*
X256976589Y-56815990D01*
X257246842Y-56927932D01*
X257533740Y-56985000D01*
X257826260Y-56985000D01*
X258113158Y-56927932D01*
X258383411Y-56815990D01*
X258626632Y-56653475D01*
X258833475Y-56446632D01*
X258995990Y-56203411D01*
X259107932Y-55933158D01*
X259165000Y-55646260D01*
X259165000Y-55353740D01*
X259107932Y-55066842D01*
X258995990Y-54796589D01*
X258833475Y-54553368D01*
X258626632Y-54346525D01*
X258482172Y-54250000D01*
X258626632Y-54153475D01*
X258833475Y-53946632D01*
X258995990Y-53703411D01*
X259107932Y-53433158D01*
X259165000Y-53146260D01*
X259165000Y-52853740D01*
X259107932Y-52566842D01*
X258995990Y-52296589D01*
X258833475Y-52053368D01*
X258626632Y-51846525D01*
X258383411Y-51684010D01*
X258113158Y-51572068D01*
X257826260Y-51515000D01*
X257533740Y-51515000D01*
X257246842Y-51572068D01*
X256976589Y-51684010D01*
X256733368Y-51846525D01*
X256526525Y-52053368D01*
X256364010Y-52296589D01*
X256252068Y-52566842D01*
X256195000Y-52853740D01*
X252238072Y-52853740D01*
X252238072Y-52400000D01*
X252221008Y-52226746D01*
X252170472Y-52060150D01*
X252088405Y-51906614D01*
X251977962Y-51772038D01*
X251843386Y-51661595D01*
X251689850Y-51579528D01*
X251523254Y-51528992D01*
X251350000Y-51511928D01*
X249650000Y-51511928D01*
X249476746Y-51528992D01*
X249310150Y-51579528D01*
X249156614Y-51661595D01*
X249022038Y-51772038D01*
X248911595Y-51906614D01*
X248829528Y-52060150D01*
X248778992Y-52226746D01*
X248761928Y-52400000D01*
X218289686Y-52400000D01*
X218321589Y-52340313D01*
X218372195Y-52173490D01*
X218385000Y-52043477D01*
X218385000Y-52043469D01*
X218389281Y-52000000D01*
X218385000Y-51956531D01*
X218385000Y-47038454D01*
X218417205Y-46990256D01*
X218495226Y-46801898D01*
X218535000Y-46601939D01*
X218535000Y-46398061D01*
X218495226Y-46198102D01*
X218417205Y-46009744D01*
X218385000Y-45961546D01*
X218385000Y-45856890D01*
X248808524Y-45856890D01*
X248829643Y-45967493D01*
X248948138Y-46235608D01*
X249116663Y-46475454D01*
X249328741Y-46677814D01*
X249576223Y-46834911D01*
X249849598Y-46940708D01*
X250138360Y-46991140D01*
X250373000Y-46831496D01*
X250373000Y-45627000D01*
X250627000Y-45627000D01*
X250627000Y-46831496D01*
X250861640Y-46991140D01*
X251150402Y-46940708D01*
X251423777Y-46834911D01*
X251671259Y-46677814D01*
X251883337Y-46475454D01*
X252051862Y-46235608D01*
X252170357Y-45967493D01*
X252191476Y-45856890D01*
X252070155Y-45627000D01*
X250627000Y-45627000D01*
X250373000Y-45627000D01*
X248929845Y-45627000D01*
X248808524Y-45856890D01*
X218385000Y-45856890D01*
X218385000Y-45366578D01*
X219866579Y-43885000D01*
X248812890Y-43885000D01*
X248829528Y-43939850D01*
X248911595Y-44093386D01*
X249022038Y-44227962D01*
X249156614Y-44338405D01*
X249256044Y-44391552D01*
X249116663Y-44524546D01*
X248948138Y-44764392D01*
X248829643Y-45032507D01*
X248808524Y-45143110D01*
X248929845Y-45373000D01*
X250373000Y-45373000D01*
X250373000Y-45353000D01*
X250627000Y-45353000D01*
X250627000Y-45373000D01*
X252070155Y-45373000D01*
X252191476Y-45143110D01*
X252170357Y-45032507D01*
X252051862Y-44764392D01*
X251883337Y-44524546D01*
X251743956Y-44391552D01*
X251843386Y-44338405D01*
X251977962Y-44227962D01*
X252088405Y-44093386D01*
X252170472Y-43939850D01*
X252221008Y-43773254D01*
X252238072Y-43600000D01*
X252238072Y-42853740D01*
X256195000Y-42853740D01*
X256195000Y-43146260D01*
X256252068Y-43433158D01*
X256364010Y-43703411D01*
X256526525Y-43946632D01*
X256733368Y-44153475D01*
X256877828Y-44250000D01*
X256733368Y-44346525D01*
X256526525Y-44553368D01*
X256364010Y-44796589D01*
X256252068Y-45066842D01*
X256195000Y-45353740D01*
X256195000Y-45646260D01*
X256252068Y-45933158D01*
X256364010Y-46203411D01*
X256526525Y-46446632D01*
X256733368Y-46653475D01*
X256976589Y-46815990D01*
X257246842Y-46927932D01*
X257533740Y-46985000D01*
X257826260Y-46985000D01*
X258113158Y-46927932D01*
X258383411Y-46815990D01*
X258626632Y-46653475D01*
X258833475Y-46446632D01*
X258995990Y-46203411D01*
X259107932Y-45933158D01*
X259165000Y-45646260D01*
X259165000Y-45353740D01*
X259107932Y-45066842D01*
X258995990Y-44796589D01*
X258833475Y-44553368D01*
X258626632Y-44346525D01*
X258482172Y-44250000D01*
X258626632Y-44153475D01*
X258833475Y-43946632D01*
X258995990Y-43703411D01*
X259107932Y-43433158D01*
X259165000Y-43146260D01*
X259165000Y-42853740D01*
X259107932Y-42566842D01*
X258995990Y-42296589D01*
X258833475Y-42053368D01*
X258626632Y-41846525D01*
X258383411Y-41684010D01*
X258113158Y-41572068D01*
X257826260Y-41515000D01*
X257533740Y-41515000D01*
X257246842Y-41572068D01*
X256976589Y-41684010D01*
X256733368Y-41846525D01*
X256526525Y-42053368D01*
X256364010Y-42296589D01*
X256252068Y-42566842D01*
X256195000Y-42853740D01*
X252238072Y-42853740D01*
X252238072Y-42400000D01*
X252221008Y-42226746D01*
X252170472Y-42060150D01*
X252088405Y-41906614D01*
X251977962Y-41772038D01*
X251843386Y-41661595D01*
X251689850Y-41579528D01*
X251523254Y-41528992D01*
X251350000Y-41511928D01*
X249650000Y-41511928D01*
X249476746Y-41528992D01*
X249310150Y-41579528D01*
X249156614Y-41661595D01*
X249022038Y-41772038D01*
X248911595Y-41906614D01*
X248829528Y-42060150D01*
X248812890Y-42115000D01*
X219543465Y-42115000D01*
X219499999Y-42110719D01*
X219456533Y-42115000D01*
X219456523Y-42115000D01*
X219326510Y-42127805D01*
X219159687Y-42178411D01*
X219005941Y-42260589D01*
X219005939Y-42260590D01*
X219005940Y-42260590D01*
X218904953Y-42343468D01*
X218904951Y-42343470D01*
X218871183Y-42371183D01*
X218843470Y-42404951D01*
X216904951Y-44343471D01*
X216871184Y-44371183D01*
X216843471Y-44404951D01*
X216843468Y-44404954D01*
X216760590Y-44505941D01*
X216678412Y-44659687D01*
X216627805Y-44826510D01*
X216610719Y-45000000D01*
X216615001Y-45043479D01*
X216615001Y-45961545D01*
X216582795Y-46009744D01*
X216504774Y-46198102D01*
X216465000Y-46398061D01*
X216465000Y-46601939D01*
X216504774Y-46801898D01*
X216582795Y-46990256D01*
X216615000Y-47038454D01*
X216615000Y-47043476D01*
X216615001Y-47043486D01*
X216615000Y-51539196D01*
X216509744Y-51582795D01*
X216340226Y-51696063D01*
X216196063Y-51840226D01*
X216082795Y-52009744D01*
X216004774Y-52198102D01*
X215965000Y-52398061D01*
X188612080Y-52398061D01*
X188490706Y-52170986D01*
X188305134Y-51944866D01*
X188079014Y-51759294D01*
X188059408Y-51748815D01*
X188171259Y-51677814D01*
X188383337Y-51475454D01*
X188551862Y-51235608D01*
X188670357Y-50967493D01*
X188691476Y-50856890D01*
X188570155Y-50627000D01*
X187127000Y-50627000D01*
X187127000Y-50647000D01*
X186873000Y-50647000D01*
X186873000Y-50627000D01*
X185429845Y-50627000D01*
X185308524Y-50856890D01*
X185329643Y-50967493D01*
X185448138Y-51235608D01*
X185616663Y-51475454D01*
X185828741Y-51677814D01*
X185940592Y-51748815D01*
X185920986Y-51759294D01*
X185694866Y-51944866D01*
X185509294Y-52170986D01*
X185371401Y-52428966D01*
X185286487Y-52708889D01*
X185257815Y-53000000D01*
X176660000Y-53000000D01*
X176660000Y-50353740D01*
X178335000Y-50353740D01*
X178335000Y-50646260D01*
X178392068Y-50933158D01*
X178504010Y-51203411D01*
X178666525Y-51446632D01*
X178873368Y-51653475D01*
X179116589Y-51815990D01*
X179386842Y-51927932D01*
X179673740Y-51985000D01*
X179966260Y-51985000D01*
X180253158Y-51927932D01*
X180523411Y-51815990D01*
X180766632Y-51653475D01*
X180973475Y-51446632D01*
X181135990Y-51203411D01*
X181247932Y-50933158D01*
X181305000Y-50646260D01*
X181305000Y-50353740D01*
X181263103Y-50143110D01*
X185308524Y-50143110D01*
X185429845Y-50373000D01*
X186873000Y-50373000D01*
X186873000Y-49168504D01*
X187127000Y-49168504D01*
X187127000Y-50373000D01*
X188570155Y-50373000D01*
X188691476Y-50143110D01*
X188670357Y-50032507D01*
X188551862Y-49764392D01*
X188383337Y-49524546D01*
X188171259Y-49322186D01*
X187923777Y-49165089D01*
X187650402Y-49059292D01*
X187361640Y-49008860D01*
X187127000Y-49168504D01*
X186873000Y-49168504D01*
X186638360Y-49008860D01*
X186349598Y-49059292D01*
X186076223Y-49165089D01*
X185828741Y-49322186D01*
X185616663Y-49524546D01*
X185448138Y-49764392D01*
X185329643Y-50032507D01*
X185308524Y-50143110D01*
X181263103Y-50143110D01*
X181247932Y-50066842D01*
X181135990Y-49796589D01*
X180973475Y-49553368D01*
X180766632Y-49346525D01*
X180523411Y-49184010D01*
X180253158Y-49072068D01*
X179966260Y-49015000D01*
X179673740Y-49015000D01*
X179386842Y-49072068D01*
X179116589Y-49184010D01*
X178873368Y-49346525D01*
X178666525Y-49553368D01*
X178504010Y-49796589D01*
X178392068Y-50066842D01*
X178335000Y-50353740D01*
X176660000Y-50353740D01*
X176660000Y-42853740D01*
X178335000Y-42853740D01*
X178335000Y-43146260D01*
X178392068Y-43433158D01*
X178504010Y-43703411D01*
X178666525Y-43946632D01*
X178873368Y-44153475D01*
X179017828Y-44250000D01*
X178873368Y-44346525D01*
X178666525Y-44553368D01*
X178504010Y-44796589D01*
X178392068Y-45066842D01*
X178335000Y-45353740D01*
X178335000Y-45646260D01*
X178392068Y-45933158D01*
X178504010Y-46203411D01*
X178666525Y-46446632D01*
X178873368Y-46653475D01*
X179116589Y-46815990D01*
X179386842Y-46927932D01*
X179673740Y-46985000D01*
X179966260Y-46985000D01*
X180253158Y-46927932D01*
X180523411Y-46815990D01*
X180766632Y-46653475D01*
X180973475Y-46446632D01*
X181135990Y-46203411D01*
X181247932Y-45933158D01*
X181305000Y-45646260D01*
X181305000Y-45353740D01*
X181247932Y-45066842D01*
X181178825Y-44900000D01*
X185261928Y-44900000D01*
X185261928Y-46100000D01*
X185278992Y-46273254D01*
X185329528Y-46439850D01*
X185411595Y-46593386D01*
X185522038Y-46727962D01*
X185656614Y-46838405D01*
X185810150Y-46920472D01*
X185976746Y-46971008D01*
X186150000Y-46988072D01*
X187850000Y-46988072D01*
X188023254Y-46971008D01*
X188189850Y-46920472D01*
X188343386Y-46838405D01*
X188477962Y-46727962D01*
X188588405Y-46593386D01*
X188670472Y-46439850D01*
X188721008Y-46273254D01*
X188738072Y-46100000D01*
X188738072Y-44900000D01*
X188721008Y-44726746D01*
X188670472Y-44560150D01*
X188588405Y-44406614D01*
X188477962Y-44272038D01*
X188343386Y-44161595D01*
X188243956Y-44108448D01*
X188383337Y-43975454D01*
X188551862Y-43735608D01*
X188670357Y-43467493D01*
X188691476Y-43356890D01*
X188570155Y-43127000D01*
X187127000Y-43127000D01*
X187127000Y-43147000D01*
X186873000Y-43147000D01*
X186873000Y-43127000D01*
X185429845Y-43127000D01*
X185308524Y-43356890D01*
X185329643Y-43467493D01*
X185448138Y-43735608D01*
X185616663Y-43975454D01*
X185756044Y-44108448D01*
X185656614Y-44161595D01*
X185522038Y-44272038D01*
X185411595Y-44406614D01*
X185329528Y-44560150D01*
X185278992Y-44726746D01*
X185261928Y-44900000D01*
X181178825Y-44900000D01*
X181135990Y-44796589D01*
X180973475Y-44553368D01*
X180766632Y-44346525D01*
X180622172Y-44250000D01*
X180766632Y-44153475D01*
X180973475Y-43946632D01*
X181135990Y-43703411D01*
X181247932Y-43433158D01*
X181305000Y-43146260D01*
X181305000Y-42853740D01*
X181263103Y-42643110D01*
X185308524Y-42643110D01*
X185429845Y-42873000D01*
X186873000Y-42873000D01*
X186873000Y-41668504D01*
X187127000Y-41668504D01*
X187127000Y-42873000D01*
X188570155Y-42873000D01*
X188691476Y-42643110D01*
X188670357Y-42532507D01*
X188551862Y-42264392D01*
X188383337Y-42024546D01*
X188171259Y-41822186D01*
X187923777Y-41665089D01*
X187650402Y-41559292D01*
X187361640Y-41508860D01*
X187127000Y-41668504D01*
X186873000Y-41668504D01*
X186638360Y-41508860D01*
X186349598Y-41559292D01*
X186076223Y-41665089D01*
X185828741Y-41822186D01*
X185616663Y-42024546D01*
X185448138Y-42264392D01*
X185329643Y-42532507D01*
X185308524Y-42643110D01*
X181263103Y-42643110D01*
X181247932Y-42566842D01*
X181135990Y-42296589D01*
X180973475Y-42053368D01*
X180766632Y-41846525D01*
X180523411Y-41684010D01*
X180253158Y-41572068D01*
X179966260Y-41515000D01*
X179673740Y-41515000D01*
X179386842Y-41572068D01*
X179116589Y-41684010D01*
X178873368Y-41846525D01*
X178666525Y-42053368D01*
X178504010Y-42296589D01*
X178392068Y-42566842D01*
X178335000Y-42853740D01*
X176660000Y-42853740D01*
X176660000Y-41160000D01*
X260840000Y-41160000D01*
X260840001Y-64840000D01*
G04 #@! TA.AperFunction,Conductor*
D14*
G36*
X260840001Y-64840000D02*
G01*
X213414734Y-64840000D01*
X213451227Y-64751899D01*
X213491001Y-64551940D01*
X213491001Y-64348062D01*
X213451227Y-64148103D01*
X213385000Y-63988218D01*
X213385000Y-63356890D01*
X248808524Y-63356890D01*
X248829643Y-63467493D01*
X248948138Y-63735608D01*
X249116663Y-63975454D01*
X249328741Y-64177814D01*
X249576223Y-64334911D01*
X249849598Y-64440708D01*
X250138360Y-64491140D01*
X250373000Y-64331496D01*
X250373000Y-63127000D01*
X250627000Y-63127000D01*
X250627000Y-64331496D01*
X250861640Y-64491140D01*
X251150402Y-64440708D01*
X251423777Y-64334911D01*
X251671259Y-64177814D01*
X251883337Y-63975454D01*
X252051862Y-63735608D01*
X252170357Y-63467493D01*
X252191476Y-63356890D01*
X252070155Y-63127000D01*
X250627000Y-63127000D01*
X250373000Y-63127000D01*
X248929845Y-63127000D01*
X248808524Y-63356890D01*
X213385000Y-63356890D01*
X213385000Y-59900000D01*
X248761928Y-59900000D01*
X248761928Y-61100000D01*
X248778992Y-61273254D01*
X248829528Y-61439850D01*
X248911595Y-61593386D01*
X249022038Y-61727962D01*
X249156614Y-61838405D01*
X249256044Y-61891552D01*
X249116663Y-62024546D01*
X248948138Y-62264392D01*
X248829643Y-62532507D01*
X248808524Y-62643110D01*
X248929845Y-62873000D01*
X250373000Y-62873000D01*
X250373000Y-62853000D01*
X250627000Y-62853000D01*
X250627000Y-62873000D01*
X252070155Y-62873000D01*
X252191476Y-62643110D01*
X252170357Y-62532507D01*
X252051862Y-62264392D01*
X251883337Y-62024546D01*
X251743956Y-61891552D01*
X251843386Y-61838405D01*
X251977962Y-61727962D01*
X252088405Y-61593386D01*
X252170472Y-61439850D01*
X252221008Y-61273254D01*
X252238072Y-61100000D01*
X252238072Y-60353740D01*
X256195000Y-60353740D01*
X256195000Y-60646260D01*
X256252068Y-60933158D01*
X256364010Y-61203411D01*
X256526525Y-61446632D01*
X256733368Y-61653475D01*
X256877828Y-61750000D01*
X256733368Y-61846525D01*
X256526525Y-62053368D01*
X256364010Y-62296589D01*
X256252068Y-62566842D01*
X256195000Y-62853740D01*
X256195000Y-63146260D01*
X256252068Y-63433158D01*
X256364010Y-63703411D01*
X256526525Y-63946632D01*
X256733368Y-64153475D01*
X256976589Y-64315990D01*
X257246842Y-64427932D01*
X257533740Y-64485000D01*
X257826260Y-64485000D01*
X258113158Y-64427932D01*
X258383411Y-64315990D01*
X258626632Y-64153475D01*
X258833475Y-63946632D01*
X258995990Y-63703411D01*
X259107932Y-63433158D01*
X259165000Y-63146260D01*
X259165000Y-62853740D01*
X259107932Y-62566842D01*
X258995990Y-62296589D01*
X258833475Y-62053368D01*
X258626632Y-61846525D01*
X258482172Y-61750000D01*
X258626632Y-61653475D01*
X258833475Y-61446632D01*
X258995990Y-61203411D01*
X259107932Y-60933158D01*
X259165000Y-60646260D01*
X259165000Y-60353740D01*
X259107932Y-60066842D01*
X258995990Y-59796589D01*
X258833475Y-59553368D01*
X258626632Y-59346525D01*
X258383411Y-59184010D01*
X258113158Y-59072068D01*
X257826260Y-59015000D01*
X257533740Y-59015000D01*
X257246842Y-59072068D01*
X256976589Y-59184010D01*
X256733368Y-59346525D01*
X256526525Y-59553368D01*
X256364010Y-59796589D01*
X256252068Y-60066842D01*
X256195000Y-60353740D01*
X252238072Y-60353740D01*
X252238072Y-59900000D01*
X252221008Y-59726746D01*
X252170472Y-59560150D01*
X252088405Y-59406614D01*
X251977962Y-59272038D01*
X251843386Y-59161595D01*
X251689850Y-59079528D01*
X251523254Y-59028992D01*
X251350000Y-59011928D01*
X249650000Y-59011928D01*
X249476746Y-59028992D01*
X249310150Y-59079528D01*
X249156614Y-59161595D01*
X249022038Y-59272038D01*
X248911595Y-59406614D01*
X248829528Y-59560150D01*
X248778992Y-59726746D01*
X248761928Y-59900000D01*
X213385000Y-59900000D01*
X213385000Y-59306578D01*
X213920044Y-58771535D01*
X213976898Y-58760226D01*
X214165256Y-58682205D01*
X214334774Y-58568937D01*
X214478937Y-58424774D01*
X214592205Y-58255256D01*
X214670226Y-58066898D01*
X214710000Y-57866939D01*
X214710000Y-57663061D01*
X214670226Y-57463102D01*
X214592205Y-57274744D01*
X214478937Y-57105226D01*
X214334774Y-56961063D01*
X214165256Y-56847795D01*
X213976898Y-56769774D01*
X213776939Y-56730000D01*
X213573061Y-56730000D01*
X213373102Y-56769774D01*
X213184744Y-56847795D01*
X213015226Y-56961063D01*
X212871063Y-57105226D01*
X212757795Y-57274744D01*
X212679774Y-57463102D01*
X212668465Y-57519956D01*
X211904951Y-58283471D01*
X211871184Y-58311183D01*
X211843471Y-58344951D01*
X211843468Y-58344954D01*
X211760590Y-58445941D01*
X211678412Y-58599687D01*
X211627805Y-58766510D01*
X211610719Y-58940000D01*
X211615001Y-58983479D01*
X211615000Y-63845697D01*
X211538796Y-63959745D01*
X211460775Y-64148103D01*
X211421001Y-64348062D01*
X211421001Y-64551940D01*
X211460775Y-64751899D01*
X211497268Y-64840000D01*
X176660000Y-64840000D01*
X176660000Y-60353740D01*
X178335000Y-60353740D01*
X178335000Y-60646260D01*
X178392068Y-60933158D01*
X178504010Y-61203411D01*
X178666525Y-61446632D01*
X178873368Y-61653475D01*
X179017828Y-61750000D01*
X178873368Y-61846525D01*
X178666525Y-62053368D01*
X178504010Y-62296589D01*
X178392068Y-62566842D01*
X178335000Y-62853740D01*
X178335000Y-63146260D01*
X178392068Y-63433158D01*
X178504010Y-63703411D01*
X178666525Y-63946632D01*
X178873368Y-64153475D01*
X179116589Y-64315990D01*
X179386842Y-64427932D01*
X179673740Y-64485000D01*
X179966260Y-64485000D01*
X180253158Y-64427932D01*
X180523411Y-64315990D01*
X180766632Y-64153475D01*
X180973475Y-63946632D01*
X181135990Y-63703411D01*
X181247932Y-63433158D01*
X181305000Y-63146260D01*
X181305000Y-62853740D01*
X181247932Y-62566842D01*
X181178825Y-62400000D01*
X185261928Y-62400000D01*
X185261928Y-63600000D01*
X185278992Y-63773254D01*
X185329528Y-63939850D01*
X185411595Y-64093386D01*
X185522038Y-64227962D01*
X185656614Y-64338405D01*
X185810150Y-64420472D01*
X185976746Y-64471008D01*
X186150000Y-64488072D01*
X187850000Y-64488072D01*
X188023254Y-64471008D01*
X188189850Y-64420472D01*
X188343386Y-64338405D01*
X188477962Y-64227962D01*
X188588405Y-64093386D01*
X188670472Y-63939850D01*
X188721008Y-63773254D01*
X188738072Y-63600000D01*
X188738072Y-62400000D01*
X188721008Y-62226746D01*
X188670472Y-62060150D01*
X188588405Y-61906614D01*
X188477962Y-61772038D01*
X188343386Y-61661595D01*
X188243956Y-61608448D01*
X188383337Y-61475454D01*
X188551862Y-61235608D01*
X188670357Y-60967493D01*
X188691476Y-60856890D01*
X188570155Y-60627000D01*
X187127000Y-60627000D01*
X187127000Y-60647000D01*
X186873000Y-60647000D01*
X186873000Y-60627000D01*
X185429845Y-60627000D01*
X185308524Y-60856890D01*
X185329643Y-60967493D01*
X185448138Y-61235608D01*
X185616663Y-61475454D01*
X185756044Y-61608448D01*
X185656614Y-61661595D01*
X185522038Y-61772038D01*
X185411595Y-61906614D01*
X185329528Y-62060150D01*
X185278992Y-62226746D01*
X185261928Y-62400000D01*
X181178825Y-62400000D01*
X181135990Y-62296589D01*
X180973475Y-62053368D01*
X180766632Y-61846525D01*
X180622172Y-61750000D01*
X180766632Y-61653475D01*
X180973475Y-61446632D01*
X181135990Y-61203411D01*
X181247932Y-60933158D01*
X181305000Y-60646260D01*
X181305000Y-60353740D01*
X181263103Y-60143110D01*
X185308524Y-60143110D01*
X185429845Y-60373000D01*
X186873000Y-60373000D01*
X186873000Y-59168504D01*
X187127000Y-59168504D01*
X187127000Y-60373000D01*
X188570155Y-60373000D01*
X188691476Y-60143110D01*
X188670357Y-60032507D01*
X188551862Y-59764392D01*
X188383337Y-59524546D01*
X188171259Y-59322186D01*
X187923777Y-59165089D01*
X187650402Y-59059292D01*
X187361640Y-59008860D01*
X187127000Y-59168504D01*
X186873000Y-59168504D01*
X186638360Y-59008860D01*
X186349598Y-59059292D01*
X186076223Y-59165089D01*
X185828741Y-59322186D01*
X185616663Y-59524546D01*
X185448138Y-59764392D01*
X185329643Y-60032507D01*
X185308524Y-60143110D01*
X181263103Y-60143110D01*
X181247932Y-60066842D01*
X181135990Y-59796589D01*
X180973475Y-59553368D01*
X180766632Y-59346525D01*
X180523411Y-59184010D01*
X180253158Y-59072068D01*
X179966260Y-59015000D01*
X179673740Y-59015000D01*
X179386842Y-59072068D01*
X179116589Y-59184010D01*
X178873368Y-59346525D01*
X178666525Y-59553368D01*
X178504010Y-59796589D01*
X178392068Y-60066842D01*
X178335000Y-60353740D01*
X176660000Y-60353740D01*
X176660000Y-55353740D01*
X178335000Y-55353740D01*
X178335000Y-55646260D01*
X178392068Y-55933158D01*
X178504010Y-56203411D01*
X178666525Y-56446632D01*
X178873368Y-56653475D01*
X179116589Y-56815990D01*
X179386842Y-56927932D01*
X179673740Y-56985000D01*
X179966260Y-56985000D01*
X180253158Y-56927932D01*
X180523411Y-56815990D01*
X180766632Y-56653475D01*
X180973475Y-56446632D01*
X181135990Y-56203411D01*
X181247932Y-55933158D01*
X181305000Y-55646260D01*
X181305000Y-55353740D01*
X181247932Y-55066842D01*
X181135990Y-54796589D01*
X180973475Y-54553368D01*
X180766632Y-54346525D01*
X180523411Y-54184010D01*
X180253158Y-54072068D01*
X179966260Y-54015000D01*
X179673740Y-54015000D01*
X179386842Y-54072068D01*
X179116589Y-54184010D01*
X178873368Y-54346525D01*
X178666525Y-54553368D01*
X178504010Y-54796589D01*
X178392068Y-55066842D01*
X178335000Y-55353740D01*
X176660000Y-55353740D01*
X176660000Y-53000000D01*
X185257815Y-53000000D01*
X185286487Y-53291111D01*
X185371401Y-53571034D01*
X185509294Y-53829014D01*
X185694866Y-54055134D01*
X185758337Y-54107223D01*
X185656614Y-54161595D01*
X185522038Y-54272038D01*
X185411595Y-54406614D01*
X185329528Y-54560150D01*
X185278992Y-54726746D01*
X185261928Y-54900000D01*
X185261928Y-56100000D01*
X185278992Y-56273254D01*
X185329528Y-56439850D01*
X185411595Y-56593386D01*
X185522038Y-56727962D01*
X185656614Y-56838405D01*
X185810150Y-56920472D01*
X185976746Y-56971008D01*
X186150000Y-56988072D01*
X187850000Y-56988072D01*
X188023254Y-56971008D01*
X188189850Y-56920472D01*
X188343386Y-56838405D01*
X188477962Y-56727962D01*
X188588405Y-56593386D01*
X188670472Y-56439850D01*
X188721008Y-56273254D01*
X188738072Y-56100000D01*
X188738072Y-55856890D01*
X248808524Y-55856890D01*
X248829643Y-55967493D01*
X248948138Y-56235608D01*
X249116663Y-56475454D01*
X249328741Y-56677814D01*
X249576223Y-56834911D01*
X249849598Y-56940708D01*
X250138360Y-56991140D01*
X250373000Y-56831496D01*
X250373000Y-55627000D01*
X250627000Y-55627000D01*
X250627000Y-56831496D01*
X250861640Y-56991140D01*
X251150402Y-56940708D01*
X251423777Y-56834911D01*
X251671259Y-56677814D01*
X251883337Y-56475454D01*
X252051862Y-56235608D01*
X252170357Y-55967493D01*
X252191476Y-55856890D01*
X252070155Y-55627000D01*
X250627000Y-55627000D01*
X250373000Y-55627000D01*
X248929845Y-55627000D01*
X248808524Y-55856890D01*
X188738072Y-55856890D01*
X188738072Y-54900000D01*
X188721008Y-54726746D01*
X188670472Y-54560150D01*
X188588405Y-54406614D01*
X188477962Y-54272038D01*
X188343386Y-54161595D01*
X188241663Y-54107223D01*
X188305134Y-54055134D01*
X188490706Y-53829014D01*
X188628599Y-53571034D01*
X188713513Y-53291111D01*
X188742185Y-53000000D01*
X188713513Y-52708889D01*
X188628599Y-52428966D01*
X188612080Y-52398061D01*
X215965000Y-52398061D01*
X215965000Y-52601939D01*
X216004774Y-52801898D01*
X216082795Y-52990256D01*
X216196063Y-53159774D01*
X216340226Y-53303937D01*
X216509744Y-53417205D01*
X216698102Y-53495226D01*
X216898061Y-53535000D01*
X217101939Y-53535000D01*
X217301898Y-53495226D01*
X217490256Y-53417205D01*
X217659774Y-53303937D01*
X217803937Y-53159774D01*
X217917205Y-52990256D01*
X217995226Y-52801898D01*
X218006535Y-52745043D01*
X218095045Y-52656533D01*
X218128817Y-52628817D01*
X218239411Y-52494059D01*
X218289686Y-52400000D01*
X248761928Y-52400000D01*
X248761928Y-53600000D01*
X248778992Y-53773254D01*
X248829528Y-53939850D01*
X248911595Y-54093386D01*
X249022038Y-54227962D01*
X249156614Y-54338405D01*
X249256044Y-54391552D01*
X249116663Y-54524546D01*
X248948138Y-54764392D01*
X248829643Y-55032507D01*
X248808524Y-55143110D01*
X248929845Y-55373000D01*
X250373000Y-55373000D01*
X250373000Y-55353000D01*
X250627000Y-55353000D01*
X250627000Y-55373000D01*
X252070155Y-55373000D01*
X252191476Y-55143110D01*
X252170357Y-55032507D01*
X252051862Y-54764392D01*
X251883337Y-54524546D01*
X251743956Y-54391552D01*
X251843386Y-54338405D01*
X251977962Y-54227962D01*
X252088405Y-54093386D01*
X252170472Y-53939850D01*
X252221008Y-53773254D01*
X252238072Y-53600000D01*
X252238072Y-52853740D01*
X256195000Y-52853740D01*
X256195000Y-53146260D01*
X256252068Y-53433158D01*
X256364010Y-53703411D01*
X256526525Y-53946632D01*
X256733368Y-54153475D01*
X256877828Y-54250000D01*
X256733368Y-54346525D01*
X256526525Y-54553368D01*
X256364010Y-54796589D01*
X256252068Y-55066842D01*
X256195000Y-55353740D01*
X256195000Y-55646260D01*
X256252068Y-55933158D01*
X256364010Y-56203411D01*
X256526525Y-56446632D01*
X256733368Y-56653475D01*
X256976589Y-56815990D01*
X257246842Y-56927932D01*
X257533740Y-56985000D01*
X257826260Y-56985000D01*
X258113158Y-56927932D01*
X258383411Y-56815990D01*
X258626632Y-56653475D01*
X258833475Y-56446632D01*
X258995990Y-56203411D01*
X259107932Y-55933158D01*
X259165000Y-55646260D01*
X259165000Y-55353740D01*
X259107932Y-55066842D01*
X258995990Y-54796589D01*
X258833475Y-54553368D01*
X258626632Y-54346525D01*
X258482172Y-54250000D01*
X258626632Y-54153475D01*
X258833475Y-53946632D01*
X258995990Y-53703411D01*
X259107932Y-53433158D01*
X259165000Y-53146260D01*
X259165000Y-52853740D01*
X259107932Y-52566842D01*
X258995990Y-52296589D01*
X258833475Y-52053368D01*
X258626632Y-51846525D01*
X258383411Y-51684010D01*
X258113158Y-51572068D01*
X257826260Y-51515000D01*
X257533740Y-51515000D01*
X257246842Y-51572068D01*
X256976589Y-51684010D01*
X256733368Y-51846525D01*
X256526525Y-52053368D01*
X256364010Y-52296589D01*
X256252068Y-52566842D01*
X256195000Y-52853740D01*
X252238072Y-52853740D01*
X252238072Y-52400000D01*
X252221008Y-52226746D01*
X252170472Y-52060150D01*
X252088405Y-51906614D01*
X251977962Y-51772038D01*
X251843386Y-51661595D01*
X251689850Y-51579528D01*
X251523254Y-51528992D01*
X251350000Y-51511928D01*
X249650000Y-51511928D01*
X249476746Y-51528992D01*
X249310150Y-51579528D01*
X249156614Y-51661595D01*
X249022038Y-51772038D01*
X248911595Y-51906614D01*
X248829528Y-52060150D01*
X248778992Y-52226746D01*
X248761928Y-52400000D01*
X218289686Y-52400000D01*
X218321589Y-52340313D01*
X218372195Y-52173490D01*
X218385000Y-52043477D01*
X218385000Y-52043469D01*
X218389281Y-52000000D01*
X218385000Y-51956531D01*
X218385000Y-47038454D01*
X218417205Y-46990256D01*
X218495226Y-46801898D01*
X218535000Y-46601939D01*
X218535000Y-46398061D01*
X218495226Y-46198102D01*
X218417205Y-46009744D01*
X218385000Y-45961546D01*
X218385000Y-45856890D01*
X248808524Y-45856890D01*
X248829643Y-45967493D01*
X248948138Y-46235608D01*
X249116663Y-46475454D01*
X249328741Y-46677814D01*
X249576223Y-46834911D01*
X249849598Y-46940708D01*
X250138360Y-46991140D01*
X250373000Y-46831496D01*
X250373000Y-45627000D01*
X250627000Y-45627000D01*
X250627000Y-46831496D01*
X250861640Y-46991140D01*
X251150402Y-46940708D01*
X251423777Y-46834911D01*
X251671259Y-46677814D01*
X251883337Y-46475454D01*
X252051862Y-46235608D01*
X252170357Y-45967493D01*
X252191476Y-45856890D01*
X252070155Y-45627000D01*
X250627000Y-45627000D01*
X250373000Y-45627000D01*
X248929845Y-45627000D01*
X248808524Y-45856890D01*
X218385000Y-45856890D01*
X218385000Y-45366578D01*
X219866579Y-43885000D01*
X248812890Y-43885000D01*
X248829528Y-43939850D01*
X248911595Y-44093386D01*
X249022038Y-44227962D01*
X249156614Y-44338405D01*
X249256044Y-44391552D01*
X249116663Y-44524546D01*
X248948138Y-44764392D01*
X248829643Y-45032507D01*
X248808524Y-45143110D01*
X248929845Y-45373000D01*
X250373000Y-45373000D01*
X250373000Y-45353000D01*
X250627000Y-45353000D01*
X250627000Y-45373000D01*
X252070155Y-45373000D01*
X252191476Y-45143110D01*
X252170357Y-45032507D01*
X252051862Y-44764392D01*
X251883337Y-44524546D01*
X251743956Y-44391552D01*
X251843386Y-44338405D01*
X251977962Y-44227962D01*
X252088405Y-44093386D01*
X252170472Y-43939850D01*
X252221008Y-43773254D01*
X252238072Y-43600000D01*
X252238072Y-42853740D01*
X256195000Y-42853740D01*
X256195000Y-43146260D01*
X256252068Y-43433158D01*
X256364010Y-43703411D01*
X256526525Y-43946632D01*
X256733368Y-44153475D01*
X256877828Y-44250000D01*
X256733368Y-44346525D01*
X256526525Y-44553368D01*
X256364010Y-44796589D01*
X256252068Y-45066842D01*
X256195000Y-45353740D01*
X256195000Y-45646260D01*
X256252068Y-45933158D01*
X256364010Y-46203411D01*
X256526525Y-46446632D01*
X256733368Y-46653475D01*
X256976589Y-46815990D01*
X257246842Y-46927932D01*
X257533740Y-46985000D01*
X257826260Y-46985000D01*
X258113158Y-46927932D01*
X258383411Y-46815990D01*
X258626632Y-46653475D01*
X258833475Y-46446632D01*
X258995990Y-46203411D01*
X259107932Y-45933158D01*
X259165000Y-45646260D01*
X259165000Y-45353740D01*
X259107932Y-45066842D01*
X258995990Y-44796589D01*
X258833475Y-44553368D01*
X258626632Y-44346525D01*
X258482172Y-44250000D01*
X258626632Y-44153475D01*
X258833475Y-43946632D01*
X258995990Y-43703411D01*
X259107932Y-43433158D01*
X259165000Y-43146260D01*
X259165000Y-42853740D01*
X259107932Y-42566842D01*
X258995990Y-42296589D01*
X258833475Y-42053368D01*
X258626632Y-41846525D01*
X258383411Y-41684010D01*
X258113158Y-41572068D01*
X257826260Y-41515000D01*
X257533740Y-41515000D01*
X257246842Y-41572068D01*
X256976589Y-41684010D01*
X256733368Y-41846525D01*
X256526525Y-42053368D01*
X256364010Y-42296589D01*
X256252068Y-42566842D01*
X256195000Y-42853740D01*
X252238072Y-42853740D01*
X252238072Y-42400000D01*
X252221008Y-42226746D01*
X252170472Y-42060150D01*
X252088405Y-41906614D01*
X251977962Y-41772038D01*
X251843386Y-41661595D01*
X251689850Y-41579528D01*
X251523254Y-41528992D01*
X251350000Y-41511928D01*
X249650000Y-41511928D01*
X249476746Y-41528992D01*
X249310150Y-41579528D01*
X249156614Y-41661595D01*
X249022038Y-41772038D01*
X248911595Y-41906614D01*
X248829528Y-42060150D01*
X248812890Y-42115000D01*
X219543465Y-42115000D01*
X219499999Y-42110719D01*
X219456533Y-42115000D01*
X219456523Y-42115000D01*
X219326510Y-42127805D01*
X219159687Y-42178411D01*
X219005941Y-42260589D01*
X219005939Y-42260590D01*
X219005940Y-42260590D01*
X218904953Y-42343468D01*
X218904951Y-42343470D01*
X218871183Y-42371183D01*
X218843470Y-42404951D01*
X216904951Y-44343471D01*
X216871184Y-44371183D01*
X216843471Y-44404951D01*
X216843468Y-44404954D01*
X216760590Y-44505941D01*
X216678412Y-44659687D01*
X216627805Y-44826510D01*
X216610719Y-45000000D01*
X216615001Y-45043479D01*
X216615001Y-45961545D01*
X216582795Y-46009744D01*
X216504774Y-46198102D01*
X216465000Y-46398061D01*
X216465000Y-46601939D01*
X216504774Y-46801898D01*
X216582795Y-46990256D01*
X216615000Y-47038454D01*
X216615000Y-47043476D01*
X216615001Y-47043486D01*
X216615000Y-51539196D01*
X216509744Y-51582795D01*
X216340226Y-51696063D01*
X216196063Y-51840226D01*
X216082795Y-52009744D01*
X216004774Y-52198102D01*
X215965000Y-52398061D01*
X188612080Y-52398061D01*
X188490706Y-52170986D01*
X188305134Y-51944866D01*
X188079014Y-51759294D01*
X188059408Y-51748815D01*
X188171259Y-51677814D01*
X188383337Y-51475454D01*
X188551862Y-51235608D01*
X188670357Y-50967493D01*
X188691476Y-50856890D01*
X188570155Y-50627000D01*
X187127000Y-50627000D01*
X187127000Y-50647000D01*
X186873000Y-50647000D01*
X186873000Y-50627000D01*
X185429845Y-50627000D01*
X185308524Y-50856890D01*
X185329643Y-50967493D01*
X185448138Y-51235608D01*
X185616663Y-51475454D01*
X185828741Y-51677814D01*
X185940592Y-51748815D01*
X185920986Y-51759294D01*
X185694866Y-51944866D01*
X185509294Y-52170986D01*
X185371401Y-52428966D01*
X185286487Y-52708889D01*
X185257815Y-53000000D01*
X176660000Y-53000000D01*
X176660000Y-50353740D01*
X178335000Y-50353740D01*
X178335000Y-50646260D01*
X178392068Y-50933158D01*
X178504010Y-51203411D01*
X178666525Y-51446632D01*
X178873368Y-51653475D01*
X179116589Y-51815990D01*
X179386842Y-51927932D01*
X179673740Y-51985000D01*
X179966260Y-51985000D01*
X180253158Y-51927932D01*
X180523411Y-51815990D01*
X180766632Y-51653475D01*
X180973475Y-51446632D01*
X181135990Y-51203411D01*
X181247932Y-50933158D01*
X181305000Y-50646260D01*
X181305000Y-50353740D01*
X181263103Y-50143110D01*
X185308524Y-50143110D01*
X185429845Y-50373000D01*
X186873000Y-50373000D01*
X186873000Y-49168504D01*
X187127000Y-49168504D01*
X187127000Y-50373000D01*
X188570155Y-50373000D01*
X188691476Y-50143110D01*
X188670357Y-50032507D01*
X188551862Y-49764392D01*
X188383337Y-49524546D01*
X188171259Y-49322186D01*
X187923777Y-49165089D01*
X187650402Y-49059292D01*
X187361640Y-49008860D01*
X187127000Y-49168504D01*
X186873000Y-49168504D01*
X186638360Y-49008860D01*
X186349598Y-49059292D01*
X186076223Y-49165089D01*
X185828741Y-49322186D01*
X185616663Y-49524546D01*
X185448138Y-49764392D01*
X185329643Y-50032507D01*
X185308524Y-50143110D01*
X181263103Y-50143110D01*
X181247932Y-50066842D01*
X181135990Y-49796589D01*
X180973475Y-49553368D01*
X180766632Y-49346525D01*
X180523411Y-49184010D01*
X180253158Y-49072068D01*
X179966260Y-49015000D01*
X179673740Y-49015000D01*
X179386842Y-49072068D01*
X179116589Y-49184010D01*
X178873368Y-49346525D01*
X178666525Y-49553368D01*
X178504010Y-49796589D01*
X178392068Y-50066842D01*
X178335000Y-50353740D01*
X176660000Y-50353740D01*
X176660000Y-42853740D01*
X178335000Y-42853740D01*
X178335000Y-43146260D01*
X178392068Y-43433158D01*
X178504010Y-43703411D01*
X178666525Y-43946632D01*
X178873368Y-44153475D01*
X179017828Y-44250000D01*
X178873368Y-44346525D01*
X178666525Y-44553368D01*
X178504010Y-44796589D01*
X178392068Y-45066842D01*
X178335000Y-45353740D01*
X178335000Y-45646260D01*
X178392068Y-45933158D01*
X178504010Y-46203411D01*
X178666525Y-46446632D01*
X178873368Y-46653475D01*
X179116589Y-46815990D01*
X179386842Y-46927932D01*
X179673740Y-46985000D01*
X179966260Y-46985000D01*
X180253158Y-46927932D01*
X180523411Y-46815990D01*
X180766632Y-46653475D01*
X180973475Y-46446632D01*
X181135990Y-46203411D01*
X181247932Y-45933158D01*
X181305000Y-45646260D01*
X181305000Y-45353740D01*
X181247932Y-45066842D01*
X181178825Y-44900000D01*
X185261928Y-44900000D01*
X185261928Y-46100000D01*
X185278992Y-46273254D01*
X185329528Y-46439850D01*
X185411595Y-46593386D01*
X185522038Y-46727962D01*
X185656614Y-46838405D01*
X185810150Y-46920472D01*
X185976746Y-46971008D01*
X186150000Y-46988072D01*
X187850000Y-46988072D01*
X188023254Y-46971008D01*
X188189850Y-46920472D01*
X188343386Y-46838405D01*
X188477962Y-46727962D01*
X188588405Y-46593386D01*
X188670472Y-46439850D01*
X188721008Y-46273254D01*
X188738072Y-46100000D01*
X188738072Y-44900000D01*
X188721008Y-44726746D01*
X188670472Y-44560150D01*
X188588405Y-44406614D01*
X188477962Y-44272038D01*
X188343386Y-44161595D01*
X188243956Y-44108448D01*
X188383337Y-43975454D01*
X188551862Y-43735608D01*
X188670357Y-43467493D01*
X188691476Y-43356890D01*
X188570155Y-43127000D01*
X187127000Y-43127000D01*
X187127000Y-43147000D01*
X186873000Y-43147000D01*
X186873000Y-43127000D01*
X185429845Y-43127000D01*
X185308524Y-43356890D01*
X185329643Y-43467493D01*
X185448138Y-43735608D01*
X185616663Y-43975454D01*
X185756044Y-44108448D01*
X185656614Y-44161595D01*
X185522038Y-44272038D01*
X185411595Y-44406614D01*
X185329528Y-44560150D01*
X185278992Y-44726746D01*
X185261928Y-44900000D01*
X181178825Y-44900000D01*
X181135990Y-44796589D01*
X180973475Y-44553368D01*
X180766632Y-44346525D01*
X180622172Y-44250000D01*
X180766632Y-44153475D01*
X180973475Y-43946632D01*
X181135990Y-43703411D01*
X181247932Y-43433158D01*
X181305000Y-43146260D01*
X181305000Y-42853740D01*
X181263103Y-42643110D01*
X185308524Y-42643110D01*
X185429845Y-42873000D01*
X186873000Y-42873000D01*
X186873000Y-41668504D01*
X187127000Y-41668504D01*
X187127000Y-42873000D01*
X188570155Y-42873000D01*
X188691476Y-42643110D01*
X188670357Y-42532507D01*
X188551862Y-42264392D01*
X188383337Y-42024546D01*
X188171259Y-41822186D01*
X187923777Y-41665089D01*
X187650402Y-41559292D01*
X187361640Y-41508860D01*
X187127000Y-41668504D01*
X186873000Y-41668504D01*
X186638360Y-41508860D01*
X186349598Y-41559292D01*
X186076223Y-41665089D01*
X185828741Y-41822186D01*
X185616663Y-42024546D01*
X185448138Y-42264392D01*
X185329643Y-42532507D01*
X185308524Y-42643110D01*
X181263103Y-42643110D01*
X181247932Y-42566842D01*
X181135990Y-42296589D01*
X180973475Y-42053368D01*
X180766632Y-41846525D01*
X180523411Y-41684010D01*
X180253158Y-41572068D01*
X179966260Y-41515000D01*
X179673740Y-41515000D01*
X179386842Y-41572068D01*
X179116589Y-41684010D01*
X178873368Y-41846525D01*
X178666525Y-42053368D01*
X178504010Y-42296589D01*
X178392068Y-42566842D01*
X178335000Y-42853740D01*
X176660000Y-42853740D01*
X176660000Y-41160000D01*
X260840000Y-41160000D01*
X260840001Y-64840000D01*
G37*
G04 #@! TD.AperFunction*
M02*
