G04 #@! TF.GenerationSoftware,KiCad,Pcbnew,(5.1.10)-1*
G04 #@! TF.CreationDate,2021-10-14T23:30:01+01:00*
G04 #@! TF.ProjectId,Battery,42617474-6572-4792-9e6b-696361645f70,rev?*
G04 #@! TF.SameCoordinates,Original*
G04 #@! TF.FileFunction,Soldermask,Bot*
G04 #@! TF.FilePolarity,Negative*
%FSLAX46Y46*%
G04 Gerber Fmt 4.6, Leading zero omitted, Abs format (unit mm)*
G04 Created by KiCad (PCBNEW (5.1.10)-1) date 2021-10-14 23:30:01*
%MOMM*%
%LPD*%
G01*
G04 APERTURE LIST*
%ADD10C,1.700000*%
%ADD11O,2.200000X1.700000*%
G04 APERTURE END LIST*
D10*
X179820000Y-60500000D03*
X179820000Y-63000000D03*
D11*
X187000000Y-60500000D03*
G36*
G01*
X188100000Y-62400000D02*
X188100000Y-63600000D01*
G75*
G02*
X187850000Y-63850000I-250000J0D01*
G01*
X186150000Y-63850000D01*
G75*
G02*
X185900000Y-63600000I0J250000D01*
G01*
X185900000Y-62400000D01*
G75*
G02*
X186150000Y-62150000I250000J0D01*
G01*
X187850000Y-62150000D01*
G75*
G02*
X188100000Y-62400000I0J-250000D01*
G01*
G37*
G36*
G01*
X249400000Y-53600000D02*
X249400000Y-52400000D01*
G75*
G02*
X249650000Y-52150000I250000J0D01*
G01*
X251350000Y-52150000D01*
G75*
G02*
X251600000Y-52400000I0J-250000D01*
G01*
X251600000Y-53600000D01*
G75*
G02*
X251350000Y-53850000I-250000J0D01*
G01*
X249650000Y-53850000D01*
G75*
G02*
X249400000Y-53600000I0J250000D01*
G01*
G37*
X250500000Y-55500000D03*
D10*
X257680000Y-53000000D03*
X257680000Y-55500000D03*
G36*
G01*
X249400000Y-61100000D02*
X249400000Y-59900000D01*
G75*
G02*
X249650000Y-59650000I250000J0D01*
G01*
X251350000Y-59650000D01*
G75*
G02*
X251600000Y-59900000I0J-250000D01*
G01*
X251600000Y-61100000D01*
G75*
G02*
X251350000Y-61350000I-250000J0D01*
G01*
X249650000Y-61350000D01*
G75*
G02*
X249400000Y-61100000I0J250000D01*
G01*
G37*
D11*
X250500000Y-63000000D03*
D10*
X257680000Y-60500000D03*
X257680000Y-63000000D03*
X179820000Y-43000000D03*
X179820000Y-45500000D03*
D11*
X187000000Y-43000000D03*
G36*
G01*
X188100000Y-44900000D02*
X188100000Y-46100000D01*
G75*
G02*
X187850000Y-46350000I-250000J0D01*
G01*
X186150000Y-46350000D01*
G75*
G02*
X185900000Y-46100000I0J250000D01*
G01*
X185900000Y-44900000D01*
G75*
G02*
X186150000Y-44650000I250000J0D01*
G01*
X187850000Y-44650000D01*
G75*
G02*
X188100000Y-44900000I0J-250000D01*
G01*
G37*
G36*
G01*
X249400000Y-43600000D02*
X249400000Y-42400000D01*
G75*
G02*
X249650000Y-42150000I250000J0D01*
G01*
X251350000Y-42150000D01*
G75*
G02*
X251600000Y-42400000I0J-250000D01*
G01*
X251600000Y-43600000D01*
G75*
G02*
X251350000Y-43850000I-250000J0D01*
G01*
X249650000Y-43850000D01*
G75*
G02*
X249400000Y-43600000I0J250000D01*
G01*
G37*
X250500000Y-45500000D03*
D10*
X257680000Y-43000000D03*
X257680000Y-45500000D03*
X179820000Y-50500000D03*
X179820000Y-55500000D03*
D11*
X187000000Y-50500000D03*
X187000000Y-53000000D03*
G36*
G01*
X188100000Y-54900000D02*
X188100000Y-56100000D01*
G75*
G02*
X187850000Y-56350000I-250000J0D01*
G01*
X186150000Y-56350000D01*
G75*
G02*
X185900000Y-56100000I0J250000D01*
G01*
X185900000Y-54900000D01*
G75*
G02*
X186150000Y-54650000I250000J0D01*
G01*
X187850000Y-54650000D01*
G75*
G02*
X188100000Y-54900000I0J-250000D01*
G01*
G37*
M02*
