%FSLAX45Y45*%
G04 Gerber Fmt 4.5, Leading zero omitted, Abs format (unit mm)*
G04 Created by KiCad (PCBNEW (5.1.10)-1) date 2021-10-14 23:30:50*
%MOMM*%
%LPD*%
G01*
G04 APERTURE LIST*
%TA.AperFunction,Profile*%
%ADD10C,0.050000*%
%TD*%
%ADD11C,0.200000*%
%ADD12C,0.300000*%
G04 APERTURE END LIST*
D10*
X17600000Y-6550000D02*
X17600000Y-4050000D01*
X26150000Y-6550000D02*
X17600000Y-6550000D01*
X26150000Y-4050000D02*
X26150000Y-6550000D01*
X17600000Y-4050000D02*
X26150000Y-4050000D01*
D11*
X17897000Y-4215000D02*
X18067000Y-4385000D01*
X18067000Y-4215000D02*
X17897000Y-4385000D01*
X17897000Y-4465000D02*
X18067000Y-4635000D01*
X18067000Y-4465000D02*
X17897000Y-4635000D01*
X17897000Y-4965000D02*
X18067000Y-5135000D01*
X18067000Y-4965000D02*
X17897000Y-5135000D01*
X17897000Y-5465000D02*
X18067000Y-5635000D01*
X18067000Y-5465000D02*
X17897000Y-5635000D01*
X17897000Y-5965000D02*
X18067000Y-6135000D01*
X18067000Y-5965000D02*
X17897000Y-6135000D01*
X17897000Y-6215000D02*
X18067000Y-6385000D01*
X18067000Y-6215000D02*
X17897000Y-6385000D01*
X25683000Y-4215000D02*
X25853000Y-4385000D01*
X25853000Y-4215000D02*
X25683000Y-4385000D01*
X25683000Y-4465000D02*
X25853000Y-4635000D01*
X25853000Y-4465000D02*
X25683000Y-4635000D01*
X25683000Y-5215000D02*
X25853000Y-5385000D01*
X25853000Y-5215000D02*
X25683000Y-5385000D01*
X25683000Y-5465000D02*
X25853000Y-5635000D01*
X25853000Y-5465000D02*
X25683000Y-5635000D01*
X25683000Y-5965000D02*
X25853000Y-6135000D01*
X25853000Y-5965000D02*
X25683000Y-6135000D01*
X25683000Y-6215000D02*
X25853000Y-6385000D01*
X25853000Y-6215000D02*
X25683000Y-6385000D01*
D12*
X17883928Y-7018214D02*
X17883928Y-6718214D01*
X17955357Y-6718214D01*
X17998214Y-6732500D01*
X18026786Y-6761071D01*
X18041071Y-6789643D01*
X18055357Y-6846786D01*
X18055357Y-6889643D01*
X18041071Y-6946786D01*
X18026786Y-6975357D01*
X17998214Y-7003929D01*
X17955357Y-7018214D01*
X17883928Y-7018214D01*
X18183928Y-7018214D02*
X18183928Y-6818214D01*
X18183928Y-6875357D02*
X18198214Y-6846786D01*
X18212500Y-6832500D01*
X18241071Y-6818214D01*
X18269643Y-6818214D01*
X18369643Y-7018214D02*
X18369643Y-6818214D01*
X18369643Y-6718214D02*
X18355357Y-6732500D01*
X18369643Y-6746786D01*
X18383928Y-6732500D01*
X18369643Y-6718214D01*
X18369643Y-6746786D01*
X18555357Y-7018214D02*
X18526786Y-7003929D01*
X18512500Y-6975357D01*
X18512500Y-6718214D01*
X18712500Y-7018214D02*
X18683928Y-7003929D01*
X18669643Y-6975357D01*
X18669643Y-6718214D01*
X19055357Y-7018214D02*
X19055357Y-6718214D01*
X19155357Y-6932500D01*
X19255357Y-6718214D01*
X19255357Y-7018214D01*
X19526786Y-7018214D02*
X19526786Y-6861071D01*
X19512500Y-6832500D01*
X19483928Y-6818214D01*
X19426786Y-6818214D01*
X19398214Y-6832500D01*
X19526786Y-7003929D02*
X19498214Y-7018214D01*
X19426786Y-7018214D01*
X19398214Y-7003929D01*
X19383928Y-6975357D01*
X19383928Y-6946786D01*
X19398214Y-6918214D01*
X19426786Y-6903929D01*
X19498214Y-6903929D01*
X19526786Y-6889643D01*
X19669643Y-6818214D02*
X19669643Y-7118214D01*
X19669643Y-6832500D02*
X19698214Y-6818214D01*
X19755357Y-6818214D01*
X19783928Y-6832500D01*
X19798214Y-6846786D01*
X19812500Y-6875357D01*
X19812500Y-6961071D01*
X19798214Y-6989643D01*
X19783928Y-7003929D01*
X19755357Y-7018214D01*
X19698214Y-7018214D01*
X19669643Y-7003929D01*
X19941071Y-6989643D02*
X19955357Y-7003929D01*
X19941071Y-7018214D01*
X19926786Y-7003929D01*
X19941071Y-6989643D01*
X19941071Y-7018214D01*
X19941071Y-6832500D02*
X19955357Y-6846786D01*
X19941071Y-6861071D01*
X19926786Y-6846786D01*
X19941071Y-6832500D01*
X19941071Y-6861071D01*
X17427500Y-7427500D02*
X17597500Y-7597500D01*
X17597500Y-7427500D02*
X17427500Y-7597500D01*
X18041071Y-7648214D02*
X17869643Y-7648214D01*
X17955357Y-7648214D02*
X17955357Y-7348214D01*
X17926786Y-7391071D01*
X17898214Y-7419643D01*
X17869643Y-7433929D01*
X18169643Y-7619643D02*
X18183928Y-7633929D01*
X18169643Y-7648214D01*
X18155357Y-7633929D01*
X18169643Y-7619643D01*
X18169643Y-7648214D01*
X18283928Y-7348214D02*
X18483928Y-7348214D01*
X18355357Y-7648214D01*
X18655357Y-7348214D02*
X18683928Y-7348214D01*
X18712500Y-7362500D01*
X18726786Y-7376786D01*
X18741071Y-7405357D01*
X18755357Y-7462500D01*
X18755357Y-7533929D01*
X18741071Y-7591071D01*
X18726786Y-7619643D01*
X18712500Y-7633929D01*
X18683928Y-7648214D01*
X18655357Y-7648214D01*
X18626786Y-7633929D01*
X18612500Y-7619643D01*
X18598214Y-7591071D01*
X18583928Y-7533929D01*
X18583928Y-7462500D01*
X18598214Y-7405357D01*
X18612500Y-7376786D01*
X18626786Y-7362500D01*
X18655357Y-7348214D01*
X18941071Y-7348214D02*
X18969643Y-7348214D01*
X18998214Y-7362500D01*
X19012500Y-7376786D01*
X19026786Y-7405357D01*
X19041071Y-7462500D01*
X19041071Y-7533929D01*
X19026786Y-7591071D01*
X19012500Y-7619643D01*
X18998214Y-7633929D01*
X18969643Y-7648214D01*
X18941071Y-7648214D01*
X18912500Y-7633929D01*
X18898214Y-7619643D01*
X18883928Y-7591071D01*
X18869643Y-7533929D01*
X18869643Y-7462500D01*
X18883928Y-7405357D01*
X18898214Y-7376786D01*
X18912500Y-7362500D01*
X18941071Y-7348214D01*
X19169643Y-7648214D02*
X19169643Y-7448214D01*
X19169643Y-7476786D02*
X19183928Y-7462500D01*
X19212500Y-7448214D01*
X19255357Y-7448214D01*
X19283928Y-7462500D01*
X19298214Y-7491071D01*
X19298214Y-7648214D01*
X19298214Y-7491071D02*
X19312500Y-7462500D01*
X19341071Y-7448214D01*
X19383928Y-7448214D01*
X19412500Y-7462500D01*
X19426786Y-7491071D01*
X19426786Y-7648214D01*
X19569643Y-7648214D02*
X19569643Y-7448214D01*
X19569643Y-7476786D02*
X19583928Y-7462500D01*
X19612500Y-7448214D01*
X19655357Y-7448214D01*
X19683928Y-7462500D01*
X19698214Y-7491071D01*
X19698214Y-7648214D01*
X19698214Y-7491071D02*
X19712500Y-7462500D01*
X19741071Y-7448214D01*
X19783928Y-7448214D01*
X19812500Y-7462500D01*
X19826786Y-7491071D01*
X19826786Y-7648214D01*
X20412500Y-7333929D02*
X20155357Y-7719643D01*
X20798214Y-7348214D02*
X20826786Y-7348214D01*
X20855357Y-7362500D01*
X20869643Y-7376786D01*
X20883928Y-7405357D01*
X20898214Y-7462500D01*
X20898214Y-7533929D01*
X20883928Y-7591071D01*
X20869643Y-7619643D01*
X20855357Y-7633929D01*
X20826786Y-7648214D01*
X20798214Y-7648214D01*
X20769643Y-7633929D01*
X20755357Y-7619643D01*
X20741071Y-7591071D01*
X20726786Y-7533929D01*
X20726786Y-7462500D01*
X20741071Y-7405357D01*
X20755357Y-7376786D01*
X20769643Y-7362500D01*
X20798214Y-7348214D01*
X21026786Y-7619643D02*
X21041071Y-7633929D01*
X21026786Y-7648214D01*
X21012500Y-7633929D01*
X21026786Y-7619643D01*
X21026786Y-7648214D01*
X21226786Y-7348214D02*
X21255357Y-7348214D01*
X21283928Y-7362500D01*
X21298214Y-7376786D01*
X21312500Y-7405357D01*
X21326786Y-7462500D01*
X21326786Y-7533929D01*
X21312500Y-7591071D01*
X21298214Y-7619643D01*
X21283928Y-7633929D01*
X21255357Y-7648214D01*
X21226786Y-7648214D01*
X21198214Y-7633929D01*
X21183928Y-7619643D01*
X21169643Y-7591071D01*
X21155357Y-7533929D01*
X21155357Y-7462500D01*
X21169643Y-7405357D01*
X21183928Y-7376786D01*
X21198214Y-7362500D01*
X21226786Y-7348214D01*
X21583928Y-7348214D02*
X21526786Y-7348214D01*
X21498214Y-7362500D01*
X21483928Y-7376786D01*
X21455357Y-7419643D01*
X21441071Y-7476786D01*
X21441071Y-7591071D01*
X21455357Y-7619643D01*
X21469643Y-7633929D01*
X21498214Y-7648214D01*
X21555357Y-7648214D01*
X21583928Y-7633929D01*
X21598214Y-7619643D01*
X21612500Y-7591071D01*
X21612500Y-7519643D01*
X21598214Y-7491071D01*
X21583928Y-7476786D01*
X21555357Y-7462500D01*
X21498214Y-7462500D01*
X21469643Y-7476786D01*
X21455357Y-7491071D01*
X21441071Y-7519643D01*
X21869643Y-7348214D02*
X21812500Y-7348214D01*
X21783928Y-7362500D01*
X21769643Y-7376786D01*
X21741071Y-7419643D01*
X21726786Y-7476786D01*
X21726786Y-7591071D01*
X21741071Y-7619643D01*
X21755357Y-7633929D01*
X21783928Y-7648214D01*
X21841071Y-7648214D01*
X21869643Y-7633929D01*
X21883928Y-7619643D01*
X21898214Y-7591071D01*
X21898214Y-7519643D01*
X21883928Y-7491071D01*
X21869643Y-7476786D01*
X21841071Y-7462500D01*
X21783928Y-7462500D01*
X21755357Y-7476786D01*
X21741071Y-7491071D01*
X21726786Y-7519643D01*
X22041071Y-7648214D02*
X22098214Y-7648214D01*
X22126786Y-7633929D01*
X22141071Y-7619643D01*
X22169643Y-7576786D01*
X22183928Y-7519643D01*
X22183928Y-7405357D01*
X22169643Y-7376786D01*
X22155357Y-7362500D01*
X22126786Y-7348214D01*
X22069643Y-7348214D01*
X22041071Y-7362500D01*
X22026786Y-7376786D01*
X22012500Y-7405357D01*
X22012500Y-7476786D01*
X22026786Y-7505357D01*
X22041071Y-7519643D01*
X22069643Y-7533929D01*
X22126786Y-7533929D01*
X22155357Y-7519643D01*
X22169643Y-7505357D01*
X22183928Y-7476786D01*
X22298214Y-7348214D02*
X22298214Y-7405357D01*
X22412500Y-7348214D02*
X22412500Y-7405357D01*
X22855357Y-7762500D02*
X22841071Y-7748214D01*
X22812500Y-7705357D01*
X22798214Y-7676786D01*
X22783928Y-7633929D01*
X22769643Y-7562500D01*
X22769643Y-7505357D01*
X22783928Y-7433929D01*
X22798214Y-7391071D01*
X22812500Y-7362500D01*
X22841071Y-7319643D01*
X22855357Y-7305357D01*
X23126786Y-7648214D02*
X22955357Y-7648214D01*
X23041071Y-7648214D02*
X23041071Y-7348214D01*
X23012500Y-7391071D01*
X22983928Y-7419643D01*
X22955357Y-7433929D01*
X23241071Y-7376786D02*
X23255357Y-7362500D01*
X23283928Y-7348214D01*
X23355357Y-7348214D01*
X23383928Y-7362500D01*
X23398214Y-7376786D01*
X23412500Y-7405357D01*
X23412500Y-7433929D01*
X23398214Y-7476786D01*
X23226786Y-7648214D01*
X23412500Y-7648214D01*
X23769643Y-7648214D02*
X23769643Y-7348214D01*
X23898214Y-7648214D02*
X23898214Y-7491071D01*
X23883928Y-7462500D01*
X23855357Y-7448214D01*
X23812500Y-7448214D01*
X23783928Y-7462500D01*
X23769643Y-7476786D01*
X24083928Y-7648214D02*
X24055357Y-7633929D01*
X24041071Y-7619643D01*
X24026786Y-7591071D01*
X24026786Y-7505357D01*
X24041071Y-7476786D01*
X24055357Y-7462500D01*
X24083928Y-7448214D01*
X24126786Y-7448214D01*
X24155357Y-7462500D01*
X24169643Y-7476786D01*
X24183928Y-7505357D01*
X24183928Y-7591071D01*
X24169643Y-7619643D01*
X24155357Y-7633929D01*
X24126786Y-7648214D01*
X24083928Y-7648214D01*
X24355357Y-7648214D02*
X24326786Y-7633929D01*
X24312500Y-7605357D01*
X24312500Y-7348214D01*
X24583928Y-7633929D02*
X24555357Y-7648214D01*
X24498214Y-7648214D01*
X24469643Y-7633929D01*
X24455357Y-7605357D01*
X24455357Y-7491071D01*
X24469643Y-7462500D01*
X24498214Y-7448214D01*
X24555357Y-7448214D01*
X24583928Y-7462500D01*
X24598214Y-7491071D01*
X24598214Y-7519643D01*
X24455357Y-7548214D01*
X24712500Y-7633929D02*
X24741071Y-7648214D01*
X24798214Y-7648214D01*
X24826786Y-7633929D01*
X24841071Y-7605357D01*
X24841071Y-7591071D01*
X24826786Y-7562500D01*
X24798214Y-7548214D01*
X24755357Y-7548214D01*
X24726786Y-7533929D01*
X24712500Y-7505357D01*
X24712500Y-7491071D01*
X24726786Y-7462500D01*
X24755357Y-7448214D01*
X24798214Y-7448214D01*
X24826786Y-7462500D01*
X24941071Y-7762500D02*
X24955357Y-7748214D01*
X24983928Y-7705357D01*
X24998214Y-7676786D01*
X25012500Y-7633929D01*
X25026786Y-7562500D01*
X25026786Y-7505357D01*
X25012500Y-7433929D01*
X24998214Y-7391071D01*
X24983928Y-7362500D01*
X24955357Y-7319643D01*
X24941071Y-7305357D01*
X25483928Y-7762500D02*
X25469643Y-7748214D01*
X25441071Y-7705357D01*
X25426786Y-7676786D01*
X25412500Y-7633929D01*
X25398214Y-7562500D01*
X25398214Y-7505357D01*
X25412500Y-7433929D01*
X25426786Y-7391071D01*
X25441071Y-7362500D01*
X25469643Y-7319643D01*
X25483928Y-7305357D01*
X25598214Y-7448214D02*
X25598214Y-7648214D01*
X25598214Y-7476786D02*
X25612500Y-7462500D01*
X25641071Y-7448214D01*
X25683928Y-7448214D01*
X25712500Y-7462500D01*
X25726786Y-7491071D01*
X25726786Y-7648214D01*
X25912500Y-7648214D02*
X25883928Y-7633929D01*
X25869643Y-7619643D01*
X25855357Y-7591071D01*
X25855357Y-7505357D01*
X25869643Y-7476786D01*
X25883928Y-7462500D01*
X25912500Y-7448214D01*
X25955357Y-7448214D01*
X25983928Y-7462500D01*
X25998214Y-7476786D01*
X26012500Y-7505357D01*
X26012500Y-7591071D01*
X25998214Y-7619643D01*
X25983928Y-7633929D01*
X25955357Y-7648214D01*
X25912500Y-7648214D01*
X26098214Y-7448214D02*
X26212500Y-7448214D01*
X26141071Y-7348214D02*
X26141071Y-7605357D01*
X26155357Y-7633929D01*
X26183928Y-7648214D01*
X26212500Y-7648214D01*
X26541071Y-7448214D02*
X26541071Y-7748214D01*
X26541071Y-7462500D02*
X26569643Y-7448214D01*
X26626786Y-7448214D01*
X26655357Y-7462500D01*
X26669643Y-7476786D01*
X26683928Y-7505357D01*
X26683928Y-7591071D01*
X26669643Y-7619643D01*
X26655357Y-7633929D01*
X26626786Y-7648214D01*
X26569643Y-7648214D01*
X26541071Y-7633929D01*
X26855357Y-7648214D02*
X26826786Y-7633929D01*
X26812500Y-7605357D01*
X26812500Y-7348214D01*
X27098214Y-7648214D02*
X27098214Y-7491071D01*
X27083928Y-7462500D01*
X27055357Y-7448214D01*
X26998214Y-7448214D01*
X26969643Y-7462500D01*
X27098214Y-7633929D02*
X27069643Y-7648214D01*
X26998214Y-7648214D01*
X26969643Y-7633929D01*
X26955357Y-7605357D01*
X26955357Y-7576786D01*
X26969643Y-7548214D01*
X26998214Y-7533929D01*
X27069643Y-7533929D01*
X27098214Y-7519643D01*
X27198214Y-7448214D02*
X27312500Y-7448214D01*
X27241071Y-7348214D02*
X27241071Y-7605357D01*
X27255357Y-7633929D01*
X27283928Y-7648214D01*
X27312500Y-7648214D01*
X27526786Y-7633929D02*
X27498214Y-7648214D01*
X27441071Y-7648214D01*
X27412500Y-7633929D01*
X27398214Y-7605357D01*
X27398214Y-7491071D01*
X27412500Y-7462500D01*
X27441071Y-7448214D01*
X27498214Y-7448214D01*
X27526786Y-7462500D01*
X27541071Y-7491071D01*
X27541071Y-7519643D01*
X27398214Y-7548214D01*
X27798214Y-7648214D02*
X27798214Y-7348214D01*
X27798214Y-7633929D02*
X27769643Y-7648214D01*
X27712500Y-7648214D01*
X27683928Y-7633929D01*
X27669643Y-7619643D01*
X27655357Y-7591071D01*
X27655357Y-7505357D01*
X27669643Y-7476786D01*
X27683928Y-7462500D01*
X27712500Y-7448214D01*
X27769643Y-7448214D01*
X27798214Y-7462500D01*
X27912500Y-7762500D02*
X27926786Y-7748214D01*
X27955357Y-7705357D01*
X27969643Y-7676786D01*
X27983928Y-7633929D01*
X27998214Y-7562500D01*
X27998214Y-7505357D01*
X27983928Y-7433929D01*
X27969643Y-7391071D01*
X27955357Y-7362500D01*
X27926786Y-7319643D01*
X27912500Y-7305357D01*
M02*
