M48
; DRILL file {KiCad (5.1.10)-1} date 10/14/21 23:30:38
; FORMAT={-:-/ absolute / metric / decimal}
; #@! TF.CreationDate,2021-10-14T23:30:38+01:00
; #@! TF.GenerationSoftware,Kicad,Pcbnew,(5.1.10)-1
; #@! TF.FileFunction,Plated,1,2,PTH
FMAT,2
METRIC
T1C0.400
T2C1.200
%
G90
G05
T1
X193.5Y-53.5
X197.5Y-58.5
X200.0Y-49.5
X200.0Y-53.5
X201.0Y-49.5
X201.0Y-53.5
X203.0Y-54.5
X204.5Y-63.5
X207.0Y-63.5
X209.5Y-63.5
X211.55Y-61.575
X212.456Y-64.45
X213.675Y-57.765
X214.0Y-63.5
X217.0Y-52.5
X217.5Y-46.5
X225.5Y-44.5
X226.0Y-59.0
X227.0Y-59.0
X228.0Y-59.0
X231.5Y-63.5
X236.0Y-51.5
X236.0Y-52.5
X236.0Y-53.5
X236.0Y-54.5
X236.0Y-55.5
X236.0Y-59.5
X236.0Y-60.5
X236.0Y-61.5
X236.0Y-62.5
X236.0Y-63.5
X237.0Y-51.5
X237.0Y-52.5
X237.0Y-53.5
X237.0Y-54.5
X237.0Y-55.5
X237.0Y-59.5
X237.0Y-60.5
X237.0Y-61.5
X237.0Y-62.5
X237.0Y-63.5
X241.5Y-63.5
X242.0Y-49.5
T2
X187.0Y-43.0
X187.0Y-45.5
X187.0Y-50.5
X187.0Y-53.0
X187.0Y-55.5
X187.0Y-60.5
X187.0Y-63.0
X250.5Y-43.0
X250.5Y-45.5
X250.5Y-53.0
X250.5Y-55.5
X250.5Y-60.5
X250.5Y-63.0
T0
M30
