%FSLAX45Y45*%
G04 Gerber Fmt 4.5, Leading zero omitted, Abs format (unit mm)*
G04 Created by KiCad (PCBNEW (5.1.10)-1) date 2021-10-14 23:30:50*
%MOMM*%
%LPD*%
G01*
G04 APERTURE LIST*
%TA.AperFunction,Profile*%
%ADD10C,0.050000*%
%TD*%
%ADD11C,0.200000*%
%ADD12C,0.300000*%
G04 APERTURE END LIST*
D10*
X17600000Y-6550000D02*
X17600000Y-4050000D01*
X26150000Y-6550000D02*
X17600000Y-6550000D01*
X26150000Y-4050000D02*
X26150000Y-6550000D01*
X17600000Y-4050000D02*
X26150000Y-4050000D01*
D11*
X19330000Y-5330000D02*
X19370000Y-5370000D01*
X19370000Y-5330000D02*
X19330000Y-5370000D01*
X19730000Y-5830000D02*
X19770000Y-5870000D01*
X19770000Y-5830000D02*
X19730000Y-5870000D01*
X19980000Y-4930000D02*
X20020000Y-4970000D01*
X20020000Y-4930000D02*
X19980000Y-4970000D01*
X19980000Y-5330000D02*
X20020000Y-5370000D01*
X20020000Y-5330000D02*
X19980000Y-5370000D01*
X20080000Y-4930000D02*
X20120000Y-4970000D01*
X20120000Y-4930000D02*
X20080000Y-4970000D01*
X20080000Y-5330000D02*
X20120000Y-5370000D01*
X20120000Y-5330000D02*
X20080000Y-5370000D01*
X20280000Y-5430000D02*
X20320000Y-5470000D01*
X20320000Y-5430000D02*
X20280000Y-5470000D01*
X20430000Y-6330000D02*
X20470000Y-6370000D01*
X20470000Y-6330000D02*
X20430000Y-6370000D01*
X20680000Y-6330000D02*
X20720000Y-6370000D01*
X20720000Y-6330000D02*
X20680000Y-6370000D01*
X20930000Y-6330000D02*
X20970000Y-6370000D01*
X20970000Y-6330000D02*
X20930000Y-6370000D01*
X21134999Y-6137500D02*
X21174999Y-6177500D01*
X21174999Y-6137500D02*
X21134999Y-6177500D01*
X21225600Y-6425000D02*
X21265600Y-6465000D01*
X21265600Y-6425000D02*
X21225600Y-6465000D01*
X21347500Y-5756500D02*
X21387500Y-5796500D01*
X21387500Y-5756500D02*
X21347500Y-5796500D01*
X21380000Y-6330000D02*
X21420000Y-6370000D01*
X21420000Y-6330000D02*
X21380000Y-6370000D01*
X21680000Y-5230000D02*
X21720000Y-5270000D01*
X21720000Y-5230000D02*
X21680000Y-5270000D01*
X21730000Y-4630000D02*
X21770000Y-4670000D01*
X21770000Y-4630000D02*
X21730000Y-4670000D01*
X22530000Y-4430000D02*
X22570000Y-4470000D01*
X22570000Y-4430000D02*
X22530000Y-4470000D01*
X22580000Y-5880000D02*
X22620000Y-5920000D01*
X22620000Y-5880000D02*
X22580000Y-5920000D01*
X22680000Y-5880000D02*
X22720000Y-5920000D01*
X22720000Y-5880000D02*
X22680000Y-5920000D01*
X22780000Y-5880000D02*
X22820000Y-5920000D01*
X22820000Y-5880000D02*
X22780000Y-5920000D01*
X23130000Y-6330000D02*
X23170000Y-6370000D01*
X23170000Y-6330000D02*
X23130000Y-6370000D01*
X23580000Y-5130000D02*
X23620000Y-5170000D01*
X23620000Y-5130000D02*
X23580000Y-5170000D01*
X23580000Y-5230000D02*
X23620000Y-5270000D01*
X23620000Y-5230000D02*
X23580000Y-5270000D01*
X23580000Y-5330000D02*
X23620000Y-5370000D01*
X23620000Y-5330000D02*
X23580000Y-5370000D01*
X23580000Y-5430000D02*
X23620000Y-5470000D01*
X23620000Y-5430000D02*
X23580000Y-5470000D01*
X23580000Y-5530000D02*
X23620000Y-5570000D01*
X23620000Y-5530000D02*
X23580000Y-5570000D01*
X23580000Y-5930000D02*
X23620000Y-5970000D01*
X23620000Y-5930000D02*
X23580000Y-5970000D01*
X23580000Y-6030000D02*
X23620000Y-6070000D01*
X23620000Y-6030000D02*
X23580000Y-6070000D01*
X23580000Y-6130000D02*
X23620000Y-6170000D01*
X23620000Y-6130000D02*
X23580000Y-6170000D01*
X23580000Y-6230000D02*
X23620000Y-6270000D01*
X23620000Y-6230000D02*
X23580000Y-6270000D01*
X23580000Y-6330000D02*
X23620000Y-6370000D01*
X23620000Y-6330000D02*
X23580000Y-6370000D01*
X23680000Y-5130000D02*
X23720000Y-5170000D01*
X23720000Y-5130000D02*
X23680000Y-5170000D01*
X23680000Y-5230000D02*
X23720000Y-5270000D01*
X23720000Y-5230000D02*
X23680000Y-5270000D01*
X23680000Y-5330000D02*
X23720000Y-5370000D01*
X23720000Y-5330000D02*
X23680000Y-5370000D01*
X23680000Y-5430000D02*
X23720000Y-5470000D01*
X23720000Y-5430000D02*
X23680000Y-5470000D01*
X23680000Y-5530000D02*
X23720000Y-5570000D01*
X23720000Y-5530000D02*
X23680000Y-5570000D01*
X23680000Y-5930000D02*
X23720000Y-5970000D01*
X23720000Y-5930000D02*
X23680000Y-5970000D01*
X23680000Y-6030000D02*
X23720000Y-6070000D01*
X23720000Y-6030000D02*
X23680000Y-6070000D01*
X23680000Y-6130000D02*
X23720000Y-6170000D01*
X23720000Y-6130000D02*
X23680000Y-6170000D01*
X23680000Y-6230000D02*
X23720000Y-6270000D01*
X23720000Y-6230000D02*
X23680000Y-6270000D01*
X23680000Y-6330000D02*
X23720000Y-6370000D01*
X23720000Y-6330000D02*
X23680000Y-6370000D01*
X24130000Y-6330000D02*
X24170000Y-6370000D01*
X24170000Y-6330000D02*
X24130000Y-6370000D01*
X24180000Y-4930000D02*
X24220000Y-4970000D01*
X24220000Y-4930000D02*
X24180000Y-4970000D01*
X18760000Y-4300000D02*
G75*
G03*
X18760000Y-4300000I-60000J0D01*
G01*
X18760000Y-4550000D02*
G75*
G03*
X18760000Y-4550000I-60000J0D01*
G01*
X18760000Y-5050000D02*
G75*
G03*
X18760000Y-5050000I-60000J0D01*
G01*
X18760000Y-5300000D02*
G75*
G03*
X18760000Y-5300000I-60000J0D01*
G01*
X18760000Y-5550000D02*
G75*
G03*
X18760000Y-5550000I-60000J0D01*
G01*
X18760000Y-6050000D02*
G75*
G03*
X18760000Y-6050000I-60000J0D01*
G01*
X18760000Y-6300000D02*
G75*
G03*
X18760000Y-6300000I-60000J0D01*
G01*
X25110000Y-4300000D02*
G75*
G03*
X25110000Y-4300000I-60000J0D01*
G01*
X25110000Y-4550000D02*
G75*
G03*
X25110000Y-4550000I-60000J0D01*
G01*
X25110000Y-5300000D02*
G75*
G03*
X25110000Y-5300000I-60000J0D01*
G01*
X25110000Y-5550000D02*
G75*
G03*
X25110000Y-5550000I-60000J0D01*
G01*
X25110000Y-6050000D02*
G75*
G03*
X25110000Y-6050000I-60000J0D01*
G01*
X25110000Y-6300000D02*
G75*
G03*
X25110000Y-6300000I-60000J0D01*
G01*
D12*
X17883928Y-7018214D02*
X17883928Y-6718214D01*
X17955357Y-6718214D01*
X17998214Y-6732500D01*
X18026786Y-6761071D01*
X18041071Y-6789643D01*
X18055357Y-6846786D01*
X18055357Y-6889643D01*
X18041071Y-6946786D01*
X18026786Y-6975357D01*
X17998214Y-7003929D01*
X17955357Y-7018214D01*
X17883928Y-7018214D01*
X18183928Y-7018214D02*
X18183928Y-6818214D01*
X18183928Y-6875357D02*
X18198214Y-6846786D01*
X18212500Y-6832500D01*
X18241071Y-6818214D01*
X18269643Y-6818214D01*
X18369643Y-7018214D02*
X18369643Y-6818214D01*
X18369643Y-6718214D02*
X18355357Y-6732500D01*
X18369643Y-6746786D01*
X18383928Y-6732500D01*
X18369643Y-6718214D01*
X18369643Y-6746786D01*
X18555357Y-7018214D02*
X18526786Y-7003929D01*
X18512500Y-6975357D01*
X18512500Y-6718214D01*
X18712500Y-7018214D02*
X18683928Y-7003929D01*
X18669643Y-6975357D01*
X18669643Y-6718214D01*
X19055357Y-7018214D02*
X19055357Y-6718214D01*
X19155357Y-6932500D01*
X19255357Y-6718214D01*
X19255357Y-7018214D01*
X19526786Y-7018214D02*
X19526786Y-6861071D01*
X19512500Y-6832500D01*
X19483928Y-6818214D01*
X19426786Y-6818214D01*
X19398214Y-6832500D01*
X19526786Y-7003929D02*
X19498214Y-7018214D01*
X19426786Y-7018214D01*
X19398214Y-7003929D01*
X19383928Y-6975357D01*
X19383928Y-6946786D01*
X19398214Y-6918214D01*
X19426786Y-6903929D01*
X19498214Y-6903929D01*
X19526786Y-6889643D01*
X19669643Y-6818214D02*
X19669643Y-7118214D01*
X19669643Y-6832500D02*
X19698214Y-6818214D01*
X19755357Y-6818214D01*
X19783928Y-6832500D01*
X19798214Y-6846786D01*
X19812500Y-6875357D01*
X19812500Y-6961071D01*
X19798214Y-6989643D01*
X19783928Y-7003929D01*
X19755357Y-7018214D01*
X19698214Y-7018214D01*
X19669643Y-7003929D01*
X19941071Y-6989643D02*
X19955357Y-7003929D01*
X19941071Y-7018214D01*
X19926786Y-7003929D01*
X19941071Y-6989643D01*
X19941071Y-7018214D01*
X19941071Y-6832500D02*
X19955357Y-6846786D01*
X19941071Y-6861071D01*
X19926786Y-6846786D01*
X19941071Y-6832500D01*
X19941071Y-6861071D01*
X17557500Y-7492500D02*
X17597500Y-7532500D01*
X17597500Y-7492500D02*
X17557500Y-7532500D01*
X17941071Y-7348214D02*
X17969643Y-7348214D01*
X17998214Y-7362500D01*
X18012500Y-7376786D01*
X18026786Y-7405357D01*
X18041071Y-7462500D01*
X18041071Y-7533929D01*
X18026786Y-7591071D01*
X18012500Y-7619643D01*
X17998214Y-7633929D01*
X17969643Y-7648214D01*
X17941071Y-7648214D01*
X17912500Y-7633929D01*
X17898214Y-7619643D01*
X17883928Y-7591071D01*
X17869643Y-7533929D01*
X17869643Y-7462500D01*
X17883928Y-7405357D01*
X17898214Y-7376786D01*
X17912500Y-7362500D01*
X17941071Y-7348214D01*
X18169643Y-7619643D02*
X18183928Y-7633929D01*
X18169643Y-7648214D01*
X18155357Y-7633929D01*
X18169643Y-7619643D01*
X18169643Y-7648214D01*
X18441071Y-7448214D02*
X18441071Y-7648214D01*
X18369643Y-7333929D02*
X18298214Y-7548214D01*
X18483928Y-7548214D01*
X18655357Y-7348214D02*
X18683928Y-7348214D01*
X18712500Y-7362500D01*
X18726786Y-7376786D01*
X18741071Y-7405357D01*
X18755357Y-7462500D01*
X18755357Y-7533929D01*
X18741071Y-7591071D01*
X18726786Y-7619643D01*
X18712500Y-7633929D01*
X18683928Y-7648214D01*
X18655357Y-7648214D01*
X18626786Y-7633929D01*
X18612500Y-7619643D01*
X18598214Y-7591071D01*
X18583928Y-7533929D01*
X18583928Y-7462500D01*
X18598214Y-7405357D01*
X18612500Y-7376786D01*
X18626786Y-7362500D01*
X18655357Y-7348214D01*
X18941071Y-7348214D02*
X18969643Y-7348214D01*
X18998214Y-7362500D01*
X19012500Y-7376786D01*
X19026786Y-7405357D01*
X19041071Y-7462500D01*
X19041071Y-7533929D01*
X19026786Y-7591071D01*
X19012500Y-7619643D01*
X18998214Y-7633929D01*
X18969643Y-7648214D01*
X18941071Y-7648214D01*
X18912500Y-7633929D01*
X18898214Y-7619643D01*
X18883928Y-7591071D01*
X18869643Y-7533929D01*
X18869643Y-7462500D01*
X18883928Y-7405357D01*
X18898214Y-7376786D01*
X18912500Y-7362500D01*
X18941071Y-7348214D01*
X19169643Y-7648214D02*
X19169643Y-7448214D01*
X19169643Y-7476786D02*
X19183928Y-7462500D01*
X19212500Y-7448214D01*
X19255357Y-7448214D01*
X19283928Y-7462500D01*
X19298214Y-7491071D01*
X19298214Y-7648214D01*
X19298214Y-7491071D02*
X19312500Y-7462500D01*
X19341071Y-7448214D01*
X19383928Y-7448214D01*
X19412500Y-7462500D01*
X19426786Y-7491071D01*
X19426786Y-7648214D01*
X19569643Y-7648214D02*
X19569643Y-7448214D01*
X19569643Y-7476786D02*
X19583928Y-7462500D01*
X19612500Y-7448214D01*
X19655357Y-7448214D01*
X19683928Y-7462500D01*
X19698214Y-7491071D01*
X19698214Y-7648214D01*
X19698214Y-7491071D02*
X19712500Y-7462500D01*
X19741071Y-7448214D01*
X19783928Y-7448214D01*
X19812500Y-7462500D01*
X19826786Y-7491071D01*
X19826786Y-7648214D01*
X20412500Y-7333929D02*
X20155357Y-7719643D01*
X20798214Y-7348214D02*
X20826786Y-7348214D01*
X20855357Y-7362500D01*
X20869643Y-7376786D01*
X20883928Y-7405357D01*
X20898214Y-7462500D01*
X20898214Y-7533929D01*
X20883928Y-7591071D01*
X20869643Y-7619643D01*
X20855357Y-7633929D01*
X20826786Y-7648214D01*
X20798214Y-7648214D01*
X20769643Y-7633929D01*
X20755357Y-7619643D01*
X20741071Y-7591071D01*
X20726786Y-7533929D01*
X20726786Y-7462500D01*
X20741071Y-7405357D01*
X20755357Y-7376786D01*
X20769643Y-7362500D01*
X20798214Y-7348214D01*
X21026786Y-7619643D02*
X21041071Y-7633929D01*
X21026786Y-7648214D01*
X21012500Y-7633929D01*
X21026786Y-7619643D01*
X21026786Y-7648214D01*
X21226786Y-7348214D02*
X21255357Y-7348214D01*
X21283928Y-7362500D01*
X21298214Y-7376786D01*
X21312500Y-7405357D01*
X21326786Y-7462500D01*
X21326786Y-7533929D01*
X21312500Y-7591071D01*
X21298214Y-7619643D01*
X21283928Y-7633929D01*
X21255357Y-7648214D01*
X21226786Y-7648214D01*
X21198214Y-7633929D01*
X21183928Y-7619643D01*
X21169643Y-7591071D01*
X21155357Y-7533929D01*
X21155357Y-7462500D01*
X21169643Y-7405357D01*
X21183928Y-7376786D01*
X21198214Y-7362500D01*
X21226786Y-7348214D01*
X21612500Y-7648214D02*
X21441071Y-7648214D01*
X21526786Y-7648214D02*
X21526786Y-7348214D01*
X21498214Y-7391071D01*
X21469643Y-7419643D01*
X21441071Y-7433929D01*
X21883928Y-7348214D02*
X21741071Y-7348214D01*
X21726786Y-7491071D01*
X21741071Y-7476786D01*
X21769643Y-7462500D01*
X21841071Y-7462500D01*
X21869643Y-7476786D01*
X21883928Y-7491071D01*
X21898214Y-7519643D01*
X21898214Y-7591071D01*
X21883928Y-7619643D01*
X21869643Y-7633929D01*
X21841071Y-7648214D01*
X21769643Y-7648214D01*
X21741071Y-7633929D01*
X21726786Y-7619643D01*
X21998214Y-7348214D02*
X22198214Y-7348214D01*
X22069643Y-7648214D01*
X22298214Y-7348214D02*
X22298214Y-7405357D01*
X22412500Y-7348214D02*
X22412500Y-7405357D01*
X22855357Y-7762500D02*
X22841071Y-7748214D01*
X22812500Y-7705357D01*
X22798214Y-7676786D01*
X22783928Y-7633929D01*
X22769643Y-7562500D01*
X22769643Y-7505357D01*
X22783928Y-7433929D01*
X22798214Y-7391071D01*
X22812500Y-7362500D01*
X22841071Y-7319643D01*
X22855357Y-7305357D01*
X23098214Y-7448214D02*
X23098214Y-7648214D01*
X23026786Y-7333929D02*
X22955357Y-7548214D01*
X23141071Y-7548214D01*
X23226786Y-7348214D02*
X23412500Y-7348214D01*
X23312500Y-7462500D01*
X23355357Y-7462500D01*
X23383928Y-7476786D01*
X23398214Y-7491071D01*
X23412500Y-7519643D01*
X23412500Y-7591071D01*
X23398214Y-7619643D01*
X23383928Y-7633929D01*
X23355357Y-7648214D01*
X23269643Y-7648214D01*
X23241071Y-7633929D01*
X23226786Y-7619643D01*
X23769643Y-7648214D02*
X23769643Y-7348214D01*
X23898214Y-7648214D02*
X23898214Y-7491071D01*
X23883928Y-7462500D01*
X23855357Y-7448214D01*
X23812500Y-7448214D01*
X23783928Y-7462500D01*
X23769643Y-7476786D01*
X24083928Y-7648214D02*
X24055357Y-7633929D01*
X24041071Y-7619643D01*
X24026786Y-7591071D01*
X24026786Y-7505357D01*
X24041071Y-7476786D01*
X24055357Y-7462500D01*
X24083928Y-7448214D01*
X24126786Y-7448214D01*
X24155357Y-7462500D01*
X24169643Y-7476786D01*
X24183928Y-7505357D01*
X24183928Y-7591071D01*
X24169643Y-7619643D01*
X24155357Y-7633929D01*
X24126786Y-7648214D01*
X24083928Y-7648214D01*
X24355357Y-7648214D02*
X24326786Y-7633929D01*
X24312500Y-7605357D01*
X24312500Y-7348214D01*
X24583928Y-7633929D02*
X24555357Y-7648214D01*
X24498214Y-7648214D01*
X24469643Y-7633929D01*
X24455357Y-7605357D01*
X24455357Y-7491071D01*
X24469643Y-7462500D01*
X24498214Y-7448214D01*
X24555357Y-7448214D01*
X24583928Y-7462500D01*
X24598214Y-7491071D01*
X24598214Y-7519643D01*
X24455357Y-7548214D01*
X24712500Y-7633929D02*
X24741071Y-7648214D01*
X24798214Y-7648214D01*
X24826786Y-7633929D01*
X24841071Y-7605357D01*
X24841071Y-7591071D01*
X24826786Y-7562500D01*
X24798214Y-7548214D01*
X24755357Y-7548214D01*
X24726786Y-7533929D01*
X24712500Y-7505357D01*
X24712500Y-7491071D01*
X24726786Y-7462500D01*
X24755357Y-7448214D01*
X24798214Y-7448214D01*
X24826786Y-7462500D01*
X24941071Y-7762500D02*
X24955357Y-7748214D01*
X24983928Y-7705357D01*
X24998214Y-7676786D01*
X25012500Y-7633929D01*
X25026786Y-7562500D01*
X25026786Y-7505357D01*
X25012500Y-7433929D01*
X24998214Y-7391071D01*
X24983928Y-7362500D01*
X24955357Y-7319643D01*
X24941071Y-7305357D01*
X17597500Y-7908500D02*
G75*
G03*
X17597500Y-7908500I-60000J0D01*
G01*
X18041071Y-8044214D02*
X17869643Y-8044214D01*
X17955357Y-8044214D02*
X17955357Y-7744214D01*
X17926786Y-7787071D01*
X17898214Y-7815643D01*
X17869643Y-7829929D01*
X18169643Y-8015643D02*
X18183928Y-8029929D01*
X18169643Y-8044214D01*
X18155357Y-8029929D01*
X18169643Y-8015643D01*
X18169643Y-8044214D01*
X18298214Y-7772786D02*
X18312500Y-7758500D01*
X18341071Y-7744214D01*
X18412500Y-7744214D01*
X18441071Y-7758500D01*
X18455357Y-7772786D01*
X18469643Y-7801357D01*
X18469643Y-7829929D01*
X18455357Y-7872786D01*
X18283928Y-8044214D01*
X18469643Y-8044214D01*
X18655357Y-7744214D02*
X18683928Y-7744214D01*
X18712500Y-7758500D01*
X18726786Y-7772786D01*
X18741071Y-7801357D01*
X18755357Y-7858500D01*
X18755357Y-7929929D01*
X18741071Y-7987071D01*
X18726786Y-8015643D01*
X18712500Y-8029929D01*
X18683928Y-8044214D01*
X18655357Y-8044214D01*
X18626786Y-8029929D01*
X18612500Y-8015643D01*
X18598214Y-7987071D01*
X18583928Y-7929929D01*
X18583928Y-7858500D01*
X18598214Y-7801357D01*
X18612500Y-7772786D01*
X18626786Y-7758500D01*
X18655357Y-7744214D01*
X18941071Y-7744214D02*
X18969643Y-7744214D01*
X18998214Y-7758500D01*
X19012500Y-7772786D01*
X19026786Y-7801357D01*
X19041071Y-7858500D01*
X19041071Y-7929929D01*
X19026786Y-7987071D01*
X19012500Y-8015643D01*
X18998214Y-8029929D01*
X18969643Y-8044214D01*
X18941071Y-8044214D01*
X18912500Y-8029929D01*
X18898214Y-8015643D01*
X18883928Y-7987071D01*
X18869643Y-7929929D01*
X18869643Y-7858500D01*
X18883928Y-7801357D01*
X18898214Y-7772786D01*
X18912500Y-7758500D01*
X18941071Y-7744214D01*
X19169643Y-8044214D02*
X19169643Y-7844214D01*
X19169643Y-7872786D02*
X19183928Y-7858500D01*
X19212500Y-7844214D01*
X19255357Y-7844214D01*
X19283928Y-7858500D01*
X19298214Y-7887071D01*
X19298214Y-8044214D01*
X19298214Y-7887071D02*
X19312500Y-7858500D01*
X19341071Y-7844214D01*
X19383928Y-7844214D01*
X19412500Y-7858500D01*
X19426786Y-7887071D01*
X19426786Y-8044214D01*
X19569643Y-8044214D02*
X19569643Y-7844214D01*
X19569643Y-7872786D02*
X19583928Y-7858500D01*
X19612500Y-7844214D01*
X19655357Y-7844214D01*
X19683928Y-7858500D01*
X19698214Y-7887071D01*
X19698214Y-8044214D01*
X19698214Y-7887071D02*
X19712500Y-7858500D01*
X19741071Y-7844214D01*
X19783928Y-7844214D01*
X19812500Y-7858500D01*
X19826786Y-7887071D01*
X19826786Y-8044214D01*
X20412500Y-7729929D02*
X20155357Y-8115643D01*
X20798214Y-7744214D02*
X20826786Y-7744214D01*
X20855357Y-7758500D01*
X20869643Y-7772786D01*
X20883928Y-7801357D01*
X20898214Y-7858500D01*
X20898214Y-7929929D01*
X20883928Y-7987071D01*
X20869643Y-8015643D01*
X20855357Y-8029929D01*
X20826786Y-8044214D01*
X20798214Y-8044214D01*
X20769643Y-8029929D01*
X20755357Y-8015643D01*
X20741071Y-7987071D01*
X20726786Y-7929929D01*
X20726786Y-7858500D01*
X20741071Y-7801357D01*
X20755357Y-7772786D01*
X20769643Y-7758500D01*
X20798214Y-7744214D01*
X21026786Y-8015643D02*
X21041071Y-8029929D01*
X21026786Y-8044214D01*
X21012500Y-8029929D01*
X21026786Y-8015643D01*
X21026786Y-8044214D01*
X21226786Y-7744214D02*
X21255357Y-7744214D01*
X21283928Y-7758500D01*
X21298214Y-7772786D01*
X21312500Y-7801357D01*
X21326786Y-7858500D01*
X21326786Y-7929929D01*
X21312500Y-7987071D01*
X21298214Y-8015643D01*
X21283928Y-8029929D01*
X21255357Y-8044214D01*
X21226786Y-8044214D01*
X21198214Y-8029929D01*
X21183928Y-8015643D01*
X21169643Y-7987071D01*
X21155357Y-7929929D01*
X21155357Y-7858500D01*
X21169643Y-7801357D01*
X21183928Y-7772786D01*
X21198214Y-7758500D01*
X21226786Y-7744214D01*
X21583928Y-7844214D02*
X21583928Y-8044214D01*
X21512500Y-7729929D02*
X21441071Y-7944214D01*
X21626786Y-7944214D01*
X21712500Y-7744214D02*
X21912500Y-7744214D01*
X21783928Y-8044214D01*
X22012500Y-7772786D02*
X22026786Y-7758500D01*
X22055357Y-7744214D01*
X22126786Y-7744214D01*
X22155357Y-7758500D01*
X22169643Y-7772786D01*
X22183928Y-7801357D01*
X22183928Y-7829929D01*
X22169643Y-7872786D01*
X21998214Y-8044214D01*
X22183928Y-8044214D01*
X22298214Y-7744214D02*
X22298214Y-7801357D01*
X22412500Y-7744214D02*
X22412500Y-7801357D01*
X22855357Y-8158500D02*
X22841071Y-8144214D01*
X22812500Y-8101357D01*
X22798214Y-8072786D01*
X22783928Y-8029929D01*
X22769643Y-7958500D01*
X22769643Y-7901357D01*
X22783928Y-7829929D01*
X22798214Y-7787071D01*
X22812500Y-7758500D01*
X22841071Y-7715643D01*
X22855357Y-7701357D01*
X23126786Y-8044214D02*
X22955357Y-8044214D01*
X23041071Y-8044214D02*
X23041071Y-7744214D01*
X23012500Y-7787071D01*
X22983928Y-7815643D01*
X22955357Y-7829929D01*
X23226786Y-7744214D02*
X23412500Y-7744214D01*
X23312500Y-7858500D01*
X23355357Y-7858500D01*
X23383928Y-7872786D01*
X23398214Y-7887071D01*
X23412500Y-7915643D01*
X23412500Y-7987071D01*
X23398214Y-8015643D01*
X23383928Y-8029929D01*
X23355357Y-8044214D01*
X23269643Y-8044214D01*
X23241071Y-8029929D01*
X23226786Y-8015643D01*
X23769643Y-8044214D02*
X23769643Y-7744214D01*
X23898214Y-8044214D02*
X23898214Y-7887071D01*
X23883928Y-7858500D01*
X23855357Y-7844214D01*
X23812500Y-7844214D01*
X23783928Y-7858500D01*
X23769643Y-7872786D01*
X24083928Y-8044214D02*
X24055357Y-8029929D01*
X24041071Y-8015643D01*
X24026786Y-7987071D01*
X24026786Y-7901357D01*
X24041071Y-7872786D01*
X24055357Y-7858500D01*
X24083928Y-7844214D01*
X24126786Y-7844214D01*
X24155357Y-7858500D01*
X24169643Y-7872786D01*
X24183928Y-7901357D01*
X24183928Y-7987071D01*
X24169643Y-8015643D01*
X24155357Y-8029929D01*
X24126786Y-8044214D01*
X24083928Y-8044214D01*
X24355357Y-8044214D02*
X24326786Y-8029929D01*
X24312500Y-8001357D01*
X24312500Y-7744214D01*
X24583928Y-8029929D02*
X24555357Y-8044214D01*
X24498214Y-8044214D01*
X24469643Y-8029929D01*
X24455357Y-8001357D01*
X24455357Y-7887071D01*
X24469643Y-7858500D01*
X24498214Y-7844214D01*
X24555357Y-7844214D01*
X24583928Y-7858500D01*
X24598214Y-7887071D01*
X24598214Y-7915643D01*
X24455357Y-7944214D01*
X24712500Y-8029929D02*
X24741071Y-8044214D01*
X24798214Y-8044214D01*
X24826786Y-8029929D01*
X24841071Y-8001357D01*
X24841071Y-7987071D01*
X24826786Y-7958500D01*
X24798214Y-7944214D01*
X24755357Y-7944214D01*
X24726786Y-7929929D01*
X24712500Y-7901357D01*
X24712500Y-7887071D01*
X24726786Y-7858500D01*
X24755357Y-7844214D01*
X24798214Y-7844214D01*
X24826786Y-7858500D01*
X24941071Y-8158500D02*
X24955357Y-8144214D01*
X24983928Y-8101357D01*
X24998214Y-8072786D01*
X25012500Y-8029929D01*
X25026786Y-7958500D01*
X25026786Y-7901357D01*
X25012500Y-7829929D01*
X24998214Y-7787071D01*
X24983928Y-7758500D01*
X24955357Y-7715643D01*
X24941071Y-7701357D01*
M02*
