M48
; DRILL file {KiCad (5.1.10)-1} date 10/18/21 13:49:50
; FORMAT={-:-/ absolute / metric / decimal}
; #@! TF.CreationDate,2021-10-18T13:49:50+01:00
; #@! TF.GenerationSoftware,Kicad,Pcbnew,(5.1.10)-1
; #@! TF.FileFunction,Plated,1,2,PTH
FMAT,2
METRIC
T1C0.400
T2C1.200
%
G90
G05
T1
X124.0Y-109.5
X130.5Y-103.5
X130.5Y-105.5
X130.5Y-109.5
X131.5Y-103.5
X131.5Y-105.5
X131.5Y-109.5
X133.5Y-110.5
X135.75Y-118.125
X138.231Y-118.125
X140.731Y-118.125
X143.55Y-117.075
X144.0Y-119.075
X145.675Y-115.174
X146.0Y-119.0
X149.25Y-107.75
X149.5Y-102.0
X157.5Y-101.0
X158.0Y-114.5
X159.0Y-114.5
X160.0Y-114.5
X161.75Y-118.0
X168.0Y-106.75
X168.0Y-107.75
X168.0Y-108.75
X168.0Y-109.75
X168.0Y-110.75
X168.0Y-115.5
X168.0Y-116.5
X168.0Y-117.5
X168.0Y-118.5
X168.0Y-119.5
X169.0Y-106.75
X169.0Y-107.75
X169.0Y-108.75
X169.0Y-109.75
X169.0Y-110.75
X169.0Y-115.5
X169.0Y-116.5
X169.0Y-117.5
X169.0Y-118.5
X169.0Y-119.5
X172.0Y-101.0
X173.5Y-119.5
T2
X116.0Y-99.0
X116.0Y-101.5
X116.0Y-106.5
X116.0Y-109.0
X116.0Y-111.5
X116.0Y-116.5
X116.0Y-119.0
X184.0Y-99.0
X184.0Y-101.5
X184.0Y-109.0
X184.0Y-111.5
X184.0Y-116.5
X184.0Y-119.0
T0
M30
