%FSLAX45Y45*%
G04 Gerber Fmt 4.5, Leading zero omitted, Abs format (unit mm)*
G04 Created by KiCad (PCBNEW (5.1.10)-1) date 2021-10-18 13:49:50*
%MOMM*%
%LPD*%
G01*
G04 APERTURE LIST*
%TA.AperFunction,Profile*%
%ADD10C,0.050000*%
%TD*%
%ADD11C,0.200000*%
%ADD12C,0.300000*%
G04 APERTURE END LIST*
D10*
X10500000Y-12150000D02*
X10500000Y-9650000D01*
X19500000Y-12150000D02*
X10500000Y-12150000D01*
X19500000Y-9650000D02*
X19500000Y-12150000D01*
X10500000Y-9650000D02*
X19500000Y-9650000D01*
D11*
X10797000Y-9815000D02*
X10967000Y-9985000D01*
X10967000Y-9815000D02*
X10797000Y-9985000D01*
X10797000Y-10065000D02*
X10967000Y-10235000D01*
X10967000Y-10065000D02*
X10797000Y-10235000D01*
X10797000Y-10565000D02*
X10967000Y-10735000D01*
X10967000Y-10565000D02*
X10797000Y-10735000D01*
X10797000Y-11065000D02*
X10967000Y-11235000D01*
X10967000Y-11065000D02*
X10797000Y-11235000D01*
X10797000Y-11565000D02*
X10967000Y-11735000D01*
X10967000Y-11565000D02*
X10797000Y-11735000D01*
X10797000Y-11815000D02*
X10967000Y-11985000D01*
X10967000Y-11815000D02*
X10797000Y-11985000D01*
X19033000Y-9815000D02*
X19203000Y-9985000D01*
X19203000Y-9815000D02*
X19033000Y-9985000D01*
X19033000Y-10065000D02*
X19203000Y-10235000D01*
X19203000Y-10065000D02*
X19033000Y-10235000D01*
X19033000Y-10815000D02*
X19203000Y-10985000D01*
X19203000Y-10815000D02*
X19033000Y-10985000D01*
X19033000Y-11065000D02*
X19203000Y-11235000D01*
X19203000Y-11065000D02*
X19033000Y-11235000D01*
X19033000Y-11565000D02*
X19203000Y-11735000D01*
X19203000Y-11565000D02*
X19033000Y-11735000D01*
X19033000Y-11815000D02*
X19203000Y-11985000D01*
X19203000Y-11815000D02*
X19033000Y-11985000D01*
D12*
X10783928Y-12618214D02*
X10783928Y-12318214D01*
X10855357Y-12318214D01*
X10898214Y-12332500D01*
X10926786Y-12361071D01*
X10941071Y-12389643D01*
X10955357Y-12446786D01*
X10955357Y-12489643D01*
X10941071Y-12546786D01*
X10926786Y-12575357D01*
X10898214Y-12603929D01*
X10855357Y-12618214D01*
X10783928Y-12618214D01*
X11083928Y-12618214D02*
X11083928Y-12418214D01*
X11083928Y-12475357D02*
X11098214Y-12446786D01*
X11112500Y-12432500D01*
X11141071Y-12418214D01*
X11169643Y-12418214D01*
X11269643Y-12618214D02*
X11269643Y-12418214D01*
X11269643Y-12318214D02*
X11255357Y-12332500D01*
X11269643Y-12346786D01*
X11283928Y-12332500D01*
X11269643Y-12318214D01*
X11269643Y-12346786D01*
X11455357Y-12618214D02*
X11426786Y-12603929D01*
X11412500Y-12575357D01*
X11412500Y-12318214D01*
X11612500Y-12618214D02*
X11583928Y-12603929D01*
X11569643Y-12575357D01*
X11569643Y-12318214D01*
X11955357Y-12618214D02*
X11955357Y-12318214D01*
X12055357Y-12532500D01*
X12155357Y-12318214D01*
X12155357Y-12618214D01*
X12426786Y-12618214D02*
X12426786Y-12461071D01*
X12412500Y-12432500D01*
X12383928Y-12418214D01*
X12326786Y-12418214D01*
X12298214Y-12432500D01*
X12426786Y-12603929D02*
X12398214Y-12618214D01*
X12326786Y-12618214D01*
X12298214Y-12603929D01*
X12283928Y-12575357D01*
X12283928Y-12546786D01*
X12298214Y-12518214D01*
X12326786Y-12503929D01*
X12398214Y-12503929D01*
X12426786Y-12489643D01*
X12569643Y-12418214D02*
X12569643Y-12718214D01*
X12569643Y-12432500D02*
X12598214Y-12418214D01*
X12655357Y-12418214D01*
X12683928Y-12432500D01*
X12698214Y-12446786D01*
X12712500Y-12475357D01*
X12712500Y-12561071D01*
X12698214Y-12589643D01*
X12683928Y-12603929D01*
X12655357Y-12618214D01*
X12598214Y-12618214D01*
X12569643Y-12603929D01*
X12841071Y-12589643D02*
X12855357Y-12603929D01*
X12841071Y-12618214D01*
X12826786Y-12603929D01*
X12841071Y-12589643D01*
X12841071Y-12618214D01*
X12841071Y-12432500D02*
X12855357Y-12446786D01*
X12841071Y-12461071D01*
X12826786Y-12446786D01*
X12841071Y-12432500D01*
X12841071Y-12461071D01*
X10327500Y-13027500D02*
X10497500Y-13197500D01*
X10497500Y-13027500D02*
X10327500Y-13197500D01*
X10941071Y-13248214D02*
X10769643Y-13248214D01*
X10855357Y-13248214D02*
X10855357Y-12948214D01*
X10826786Y-12991071D01*
X10798214Y-13019643D01*
X10769643Y-13033929D01*
X11069643Y-13219643D02*
X11083928Y-13233929D01*
X11069643Y-13248214D01*
X11055357Y-13233929D01*
X11069643Y-13219643D01*
X11069643Y-13248214D01*
X11183928Y-12948214D02*
X11383928Y-12948214D01*
X11255357Y-13248214D01*
X11555357Y-12948214D02*
X11583928Y-12948214D01*
X11612500Y-12962500D01*
X11626786Y-12976786D01*
X11641071Y-13005357D01*
X11655357Y-13062500D01*
X11655357Y-13133929D01*
X11641071Y-13191071D01*
X11626786Y-13219643D01*
X11612500Y-13233929D01*
X11583928Y-13248214D01*
X11555357Y-13248214D01*
X11526786Y-13233929D01*
X11512500Y-13219643D01*
X11498214Y-13191071D01*
X11483928Y-13133929D01*
X11483928Y-13062500D01*
X11498214Y-13005357D01*
X11512500Y-12976786D01*
X11526786Y-12962500D01*
X11555357Y-12948214D01*
X11841071Y-12948214D02*
X11869643Y-12948214D01*
X11898214Y-12962500D01*
X11912500Y-12976786D01*
X11926786Y-13005357D01*
X11941071Y-13062500D01*
X11941071Y-13133929D01*
X11926786Y-13191071D01*
X11912500Y-13219643D01*
X11898214Y-13233929D01*
X11869643Y-13248214D01*
X11841071Y-13248214D01*
X11812500Y-13233929D01*
X11798214Y-13219643D01*
X11783928Y-13191071D01*
X11769643Y-13133929D01*
X11769643Y-13062500D01*
X11783928Y-13005357D01*
X11798214Y-12976786D01*
X11812500Y-12962500D01*
X11841071Y-12948214D01*
X12069643Y-13248214D02*
X12069643Y-13048214D01*
X12069643Y-13076786D02*
X12083928Y-13062500D01*
X12112500Y-13048214D01*
X12155357Y-13048214D01*
X12183928Y-13062500D01*
X12198214Y-13091071D01*
X12198214Y-13248214D01*
X12198214Y-13091071D02*
X12212500Y-13062500D01*
X12241071Y-13048214D01*
X12283928Y-13048214D01*
X12312500Y-13062500D01*
X12326786Y-13091071D01*
X12326786Y-13248214D01*
X12469643Y-13248214D02*
X12469643Y-13048214D01*
X12469643Y-13076786D02*
X12483928Y-13062500D01*
X12512500Y-13048214D01*
X12555357Y-13048214D01*
X12583928Y-13062500D01*
X12598214Y-13091071D01*
X12598214Y-13248214D01*
X12598214Y-13091071D02*
X12612500Y-13062500D01*
X12641071Y-13048214D01*
X12683928Y-13048214D01*
X12712500Y-13062500D01*
X12726786Y-13091071D01*
X12726786Y-13248214D01*
X13312500Y-12933929D02*
X13055357Y-13319643D01*
X13698214Y-12948214D02*
X13726786Y-12948214D01*
X13755357Y-12962500D01*
X13769643Y-12976786D01*
X13783928Y-13005357D01*
X13798214Y-13062500D01*
X13798214Y-13133929D01*
X13783928Y-13191071D01*
X13769643Y-13219643D01*
X13755357Y-13233929D01*
X13726786Y-13248214D01*
X13698214Y-13248214D01*
X13669643Y-13233929D01*
X13655357Y-13219643D01*
X13641071Y-13191071D01*
X13626786Y-13133929D01*
X13626786Y-13062500D01*
X13641071Y-13005357D01*
X13655357Y-12976786D01*
X13669643Y-12962500D01*
X13698214Y-12948214D01*
X13926786Y-13219643D02*
X13941071Y-13233929D01*
X13926786Y-13248214D01*
X13912500Y-13233929D01*
X13926786Y-13219643D01*
X13926786Y-13248214D01*
X14126786Y-12948214D02*
X14155357Y-12948214D01*
X14183928Y-12962500D01*
X14198214Y-12976786D01*
X14212500Y-13005357D01*
X14226786Y-13062500D01*
X14226786Y-13133929D01*
X14212500Y-13191071D01*
X14198214Y-13219643D01*
X14183928Y-13233929D01*
X14155357Y-13248214D01*
X14126786Y-13248214D01*
X14098214Y-13233929D01*
X14083928Y-13219643D01*
X14069643Y-13191071D01*
X14055357Y-13133929D01*
X14055357Y-13062500D01*
X14069643Y-13005357D01*
X14083928Y-12976786D01*
X14098214Y-12962500D01*
X14126786Y-12948214D01*
X14483928Y-12948214D02*
X14426786Y-12948214D01*
X14398214Y-12962500D01*
X14383928Y-12976786D01*
X14355357Y-13019643D01*
X14341071Y-13076786D01*
X14341071Y-13191071D01*
X14355357Y-13219643D01*
X14369643Y-13233929D01*
X14398214Y-13248214D01*
X14455357Y-13248214D01*
X14483928Y-13233929D01*
X14498214Y-13219643D01*
X14512500Y-13191071D01*
X14512500Y-13119643D01*
X14498214Y-13091071D01*
X14483928Y-13076786D01*
X14455357Y-13062500D01*
X14398214Y-13062500D01*
X14369643Y-13076786D01*
X14355357Y-13091071D01*
X14341071Y-13119643D01*
X14769643Y-12948214D02*
X14712500Y-12948214D01*
X14683928Y-12962500D01*
X14669643Y-12976786D01*
X14641071Y-13019643D01*
X14626786Y-13076786D01*
X14626786Y-13191071D01*
X14641071Y-13219643D01*
X14655357Y-13233929D01*
X14683928Y-13248214D01*
X14741071Y-13248214D01*
X14769643Y-13233929D01*
X14783928Y-13219643D01*
X14798214Y-13191071D01*
X14798214Y-13119643D01*
X14783928Y-13091071D01*
X14769643Y-13076786D01*
X14741071Y-13062500D01*
X14683928Y-13062500D01*
X14655357Y-13076786D01*
X14641071Y-13091071D01*
X14626786Y-13119643D01*
X14941071Y-13248214D02*
X14998214Y-13248214D01*
X15026786Y-13233929D01*
X15041071Y-13219643D01*
X15069643Y-13176786D01*
X15083928Y-13119643D01*
X15083928Y-13005357D01*
X15069643Y-12976786D01*
X15055357Y-12962500D01*
X15026786Y-12948214D01*
X14969643Y-12948214D01*
X14941071Y-12962500D01*
X14926786Y-12976786D01*
X14912500Y-13005357D01*
X14912500Y-13076786D01*
X14926786Y-13105357D01*
X14941071Y-13119643D01*
X14969643Y-13133929D01*
X15026786Y-13133929D01*
X15055357Y-13119643D01*
X15069643Y-13105357D01*
X15083928Y-13076786D01*
X15198214Y-12948214D02*
X15198214Y-13005357D01*
X15312500Y-12948214D02*
X15312500Y-13005357D01*
X15755357Y-13362500D02*
X15741071Y-13348214D01*
X15712500Y-13305357D01*
X15698214Y-13276786D01*
X15683928Y-13233929D01*
X15669643Y-13162500D01*
X15669643Y-13105357D01*
X15683928Y-13033929D01*
X15698214Y-12991071D01*
X15712500Y-12962500D01*
X15741071Y-12919643D01*
X15755357Y-12905357D01*
X16026786Y-13248214D02*
X15855357Y-13248214D01*
X15941071Y-13248214D02*
X15941071Y-12948214D01*
X15912500Y-12991071D01*
X15883928Y-13019643D01*
X15855357Y-13033929D01*
X16141071Y-12976786D02*
X16155357Y-12962500D01*
X16183928Y-12948214D01*
X16255357Y-12948214D01*
X16283928Y-12962500D01*
X16298214Y-12976786D01*
X16312500Y-13005357D01*
X16312500Y-13033929D01*
X16298214Y-13076786D01*
X16126786Y-13248214D01*
X16312500Y-13248214D01*
X16669643Y-13248214D02*
X16669643Y-12948214D01*
X16798214Y-13248214D02*
X16798214Y-13091071D01*
X16783928Y-13062500D01*
X16755357Y-13048214D01*
X16712500Y-13048214D01*
X16683928Y-13062500D01*
X16669643Y-13076786D01*
X16983928Y-13248214D02*
X16955357Y-13233929D01*
X16941071Y-13219643D01*
X16926786Y-13191071D01*
X16926786Y-13105357D01*
X16941071Y-13076786D01*
X16955357Y-13062500D01*
X16983928Y-13048214D01*
X17026786Y-13048214D01*
X17055357Y-13062500D01*
X17069643Y-13076786D01*
X17083928Y-13105357D01*
X17083928Y-13191071D01*
X17069643Y-13219643D01*
X17055357Y-13233929D01*
X17026786Y-13248214D01*
X16983928Y-13248214D01*
X17255357Y-13248214D02*
X17226786Y-13233929D01*
X17212500Y-13205357D01*
X17212500Y-12948214D01*
X17483928Y-13233929D02*
X17455357Y-13248214D01*
X17398214Y-13248214D01*
X17369643Y-13233929D01*
X17355357Y-13205357D01*
X17355357Y-13091071D01*
X17369643Y-13062500D01*
X17398214Y-13048214D01*
X17455357Y-13048214D01*
X17483928Y-13062500D01*
X17498214Y-13091071D01*
X17498214Y-13119643D01*
X17355357Y-13148214D01*
X17612500Y-13233929D02*
X17641071Y-13248214D01*
X17698214Y-13248214D01*
X17726786Y-13233929D01*
X17741071Y-13205357D01*
X17741071Y-13191071D01*
X17726786Y-13162500D01*
X17698214Y-13148214D01*
X17655357Y-13148214D01*
X17626786Y-13133929D01*
X17612500Y-13105357D01*
X17612500Y-13091071D01*
X17626786Y-13062500D01*
X17655357Y-13048214D01*
X17698214Y-13048214D01*
X17726786Y-13062500D01*
X17841071Y-13362500D02*
X17855357Y-13348214D01*
X17883928Y-13305357D01*
X17898214Y-13276786D01*
X17912500Y-13233929D01*
X17926786Y-13162500D01*
X17926786Y-13105357D01*
X17912500Y-13033929D01*
X17898214Y-12991071D01*
X17883928Y-12962500D01*
X17855357Y-12919643D01*
X17841071Y-12905357D01*
X18383928Y-13362500D02*
X18369643Y-13348214D01*
X18341071Y-13305357D01*
X18326786Y-13276786D01*
X18312500Y-13233929D01*
X18298214Y-13162500D01*
X18298214Y-13105357D01*
X18312500Y-13033929D01*
X18326786Y-12991071D01*
X18341071Y-12962500D01*
X18369643Y-12919643D01*
X18383928Y-12905357D01*
X18498214Y-13048214D02*
X18498214Y-13248214D01*
X18498214Y-13076786D02*
X18512500Y-13062500D01*
X18541071Y-13048214D01*
X18583928Y-13048214D01*
X18612500Y-13062500D01*
X18626786Y-13091071D01*
X18626786Y-13248214D01*
X18812500Y-13248214D02*
X18783928Y-13233929D01*
X18769643Y-13219643D01*
X18755357Y-13191071D01*
X18755357Y-13105357D01*
X18769643Y-13076786D01*
X18783928Y-13062500D01*
X18812500Y-13048214D01*
X18855357Y-13048214D01*
X18883928Y-13062500D01*
X18898214Y-13076786D01*
X18912500Y-13105357D01*
X18912500Y-13191071D01*
X18898214Y-13219643D01*
X18883928Y-13233929D01*
X18855357Y-13248214D01*
X18812500Y-13248214D01*
X18998214Y-13048214D02*
X19112500Y-13048214D01*
X19041071Y-12948214D02*
X19041071Y-13205357D01*
X19055357Y-13233929D01*
X19083928Y-13248214D01*
X19112500Y-13248214D01*
X19441071Y-13048214D02*
X19441071Y-13348214D01*
X19441071Y-13062500D02*
X19469643Y-13048214D01*
X19526786Y-13048214D01*
X19555357Y-13062500D01*
X19569643Y-13076786D01*
X19583928Y-13105357D01*
X19583928Y-13191071D01*
X19569643Y-13219643D01*
X19555357Y-13233929D01*
X19526786Y-13248214D01*
X19469643Y-13248214D01*
X19441071Y-13233929D01*
X19755357Y-13248214D02*
X19726786Y-13233929D01*
X19712500Y-13205357D01*
X19712500Y-12948214D01*
X19998214Y-13248214D02*
X19998214Y-13091071D01*
X19983928Y-13062500D01*
X19955357Y-13048214D01*
X19898214Y-13048214D01*
X19869643Y-13062500D01*
X19998214Y-13233929D02*
X19969643Y-13248214D01*
X19898214Y-13248214D01*
X19869643Y-13233929D01*
X19855357Y-13205357D01*
X19855357Y-13176786D01*
X19869643Y-13148214D01*
X19898214Y-13133929D01*
X19969643Y-13133929D01*
X19998214Y-13119643D01*
X20098214Y-13048214D02*
X20212500Y-13048214D01*
X20141071Y-12948214D02*
X20141071Y-13205357D01*
X20155357Y-13233929D01*
X20183928Y-13248214D01*
X20212500Y-13248214D01*
X20426786Y-13233929D02*
X20398214Y-13248214D01*
X20341071Y-13248214D01*
X20312500Y-13233929D01*
X20298214Y-13205357D01*
X20298214Y-13091071D01*
X20312500Y-13062500D01*
X20341071Y-13048214D01*
X20398214Y-13048214D01*
X20426786Y-13062500D01*
X20441071Y-13091071D01*
X20441071Y-13119643D01*
X20298214Y-13148214D01*
X20698214Y-13248214D02*
X20698214Y-12948214D01*
X20698214Y-13233929D02*
X20669643Y-13248214D01*
X20612500Y-13248214D01*
X20583928Y-13233929D01*
X20569643Y-13219643D01*
X20555357Y-13191071D01*
X20555357Y-13105357D01*
X20569643Y-13076786D01*
X20583928Y-13062500D01*
X20612500Y-13048214D01*
X20669643Y-13048214D01*
X20698214Y-13062500D01*
X20812500Y-13362500D02*
X20826786Y-13348214D01*
X20855357Y-13305357D01*
X20869643Y-13276786D01*
X20883928Y-13233929D01*
X20898214Y-13162500D01*
X20898214Y-13105357D01*
X20883928Y-13033929D01*
X20869643Y-12991071D01*
X20855357Y-12962500D01*
X20826786Y-12919643D01*
X20812500Y-12905357D01*
M02*
