G04 #@! TF.GenerationSoftware,KiCad,Pcbnew,(5.1.10)-1*
G04 #@! TF.CreationDate,2021-10-18T13:49:48+01:00*
G04 #@! TF.ProjectId,Battery,42617474-6572-4792-9e6b-696361645f70,1*
G04 #@! TF.SameCoordinates,Original*
G04 #@! TF.FileFunction,Copper,L1,Top*
G04 #@! TF.FilePolarity,Positive*
%FSLAX46Y46*%
G04 Gerber Fmt 4.6, Leading zero omitted, Abs format (unit mm)*
G04 Created by KiCad (PCBNEW (5.1.10)-1) date 2021-10-18 13:49:48*
%MOMM*%
%LPD*%
G01*
G04 APERTURE LIST*
G04 #@! TA.AperFunction,SMDPad,CuDef*
%ADD10C,2.000000*%
G04 #@! TD*
G04 #@! TA.AperFunction,SMDPad,CuDef*
%ADD11R,1.550000X2.400000*%
G04 #@! TD*
G04 #@! TA.AperFunction,SMDPad,CuDef*
%ADD12R,0.650000X0.350000*%
G04 #@! TD*
G04 #@! TA.AperFunction,SMDPad,CuDef*
%ADD13R,3.600000X3.100000*%
G04 #@! TD*
G04 #@! TA.AperFunction,ComponentPad*
%ADD14O,2.200000X1.700000*%
G04 #@! TD*
G04 #@! TA.AperFunction,SMDPad,CuDef*
%ADD15R,2.300000X3.500000*%
G04 #@! TD*
G04 #@! TA.AperFunction,ViaPad*
%ADD16C,0.800000*%
G04 #@! TD*
G04 #@! TA.AperFunction,Conductor*
%ADD17C,0.500000*%
G04 #@! TD*
G04 #@! TA.AperFunction,Conductor*
%ADD18C,0.250000*%
G04 #@! TD*
G04 #@! TA.AperFunction,Conductor*
%ADD19C,0.350000*%
G04 #@! TD*
G04 #@! TA.AperFunction,Conductor*
%ADD20C,0.300000*%
G04 #@! TD*
G04 #@! TA.AperFunction,Conductor*
%ADD21C,0.254000*%
G04 #@! TD*
G04 #@! TA.AperFunction,Conductor*
%ADD22C,0.100000*%
G04 #@! TD*
G04 APERTURE END LIST*
D10*
X156500000Y-116500000D03*
X174500000Y-100000000D03*
X155000000Y-100000000D03*
G04 #@! TA.AperFunction,SMDPad,CuDef*
G36*
G01*
X127025000Y-103375000D02*
X127975000Y-103375000D01*
G75*
G02*
X128225000Y-103625000I0J-250000D01*
G01*
X128225000Y-104300000D01*
G75*
G02*
X127975000Y-104550000I-250000J0D01*
G01*
X127025000Y-104550000D01*
G75*
G02*
X126775000Y-104300000I0J250000D01*
G01*
X126775000Y-103625000D01*
G75*
G02*
X127025000Y-103375000I250000J0D01*
G01*
G37*
G04 #@! TD.AperFunction*
G04 #@! TA.AperFunction,SMDPad,CuDef*
G36*
G01*
X127025000Y-105450000D02*
X127975000Y-105450000D01*
G75*
G02*
X128225000Y-105700000I0J-250000D01*
G01*
X128225000Y-106375000D01*
G75*
G02*
X127975000Y-106625000I-250000J0D01*
G01*
X127025000Y-106625000D01*
G75*
G02*
X126775000Y-106375000I0J250000D01*
G01*
X126775000Y-105700000D01*
G75*
G02*
X127025000Y-105450000I250000J0D01*
G01*
G37*
G04 #@! TD.AperFunction*
G04 #@! TA.AperFunction,SMDPad,CuDef*
G36*
G01*
X165050000Y-106995000D02*
X165050000Y-106695000D01*
G75*
G02*
X165200000Y-106545000I150000J0D01*
G01*
X166850000Y-106545000D01*
G75*
G02*
X167000000Y-106695000I0J-150000D01*
G01*
X167000000Y-106995000D01*
G75*
G02*
X166850000Y-107145000I-150000J0D01*
G01*
X165200000Y-107145000D01*
G75*
G02*
X165050000Y-106995000I0J150000D01*
G01*
G37*
G04 #@! TD.AperFunction*
G04 #@! TA.AperFunction,SMDPad,CuDef*
G36*
G01*
X165050000Y-108265000D02*
X165050000Y-107965000D01*
G75*
G02*
X165200000Y-107815000I150000J0D01*
G01*
X166850000Y-107815000D01*
G75*
G02*
X167000000Y-107965000I0J-150000D01*
G01*
X167000000Y-108265000D01*
G75*
G02*
X166850000Y-108415000I-150000J0D01*
G01*
X165200000Y-108415000D01*
G75*
G02*
X165050000Y-108265000I0J150000D01*
G01*
G37*
G04 #@! TD.AperFunction*
G04 #@! TA.AperFunction,SMDPad,CuDef*
G36*
G01*
X165050000Y-109535000D02*
X165050000Y-109235000D01*
G75*
G02*
X165200000Y-109085000I150000J0D01*
G01*
X166850000Y-109085000D01*
G75*
G02*
X167000000Y-109235000I0J-150000D01*
G01*
X167000000Y-109535000D01*
G75*
G02*
X166850000Y-109685000I-150000J0D01*
G01*
X165200000Y-109685000D01*
G75*
G02*
X165050000Y-109535000I0J150000D01*
G01*
G37*
G04 #@! TD.AperFunction*
G04 #@! TA.AperFunction,SMDPad,CuDef*
G36*
G01*
X165050000Y-110805000D02*
X165050000Y-110505000D01*
G75*
G02*
X165200000Y-110355000I150000J0D01*
G01*
X166850000Y-110355000D01*
G75*
G02*
X167000000Y-110505000I0J-150000D01*
G01*
X167000000Y-110805000D01*
G75*
G02*
X166850000Y-110955000I-150000J0D01*
G01*
X165200000Y-110955000D01*
G75*
G02*
X165050000Y-110805000I0J150000D01*
G01*
G37*
G04 #@! TD.AperFunction*
G04 #@! TA.AperFunction,SMDPad,CuDef*
G36*
G01*
X170000000Y-110805000D02*
X170000000Y-110505000D01*
G75*
G02*
X170150000Y-110355000I150000J0D01*
G01*
X171800000Y-110355000D01*
G75*
G02*
X171950000Y-110505000I0J-150000D01*
G01*
X171950000Y-110805000D01*
G75*
G02*
X171800000Y-110955000I-150000J0D01*
G01*
X170150000Y-110955000D01*
G75*
G02*
X170000000Y-110805000I0J150000D01*
G01*
G37*
G04 #@! TD.AperFunction*
G04 #@! TA.AperFunction,SMDPad,CuDef*
G36*
G01*
X170000000Y-109535000D02*
X170000000Y-109235000D01*
G75*
G02*
X170150000Y-109085000I150000J0D01*
G01*
X171800000Y-109085000D01*
G75*
G02*
X171950000Y-109235000I0J-150000D01*
G01*
X171950000Y-109535000D01*
G75*
G02*
X171800000Y-109685000I-150000J0D01*
G01*
X170150000Y-109685000D01*
G75*
G02*
X170000000Y-109535000I0J150000D01*
G01*
G37*
G04 #@! TD.AperFunction*
G04 #@! TA.AperFunction,SMDPad,CuDef*
G36*
G01*
X170000000Y-108265000D02*
X170000000Y-107965000D01*
G75*
G02*
X170150000Y-107815000I150000J0D01*
G01*
X171800000Y-107815000D01*
G75*
G02*
X171950000Y-107965000I0J-150000D01*
G01*
X171950000Y-108265000D01*
G75*
G02*
X171800000Y-108415000I-150000J0D01*
G01*
X170150000Y-108415000D01*
G75*
G02*
X170000000Y-108265000I0J150000D01*
G01*
G37*
G04 #@! TD.AperFunction*
G04 #@! TA.AperFunction,SMDPad,CuDef*
G36*
G01*
X170000000Y-106995000D02*
X170000000Y-106695000D01*
G75*
G02*
X170150000Y-106545000I150000J0D01*
G01*
X171800000Y-106545000D01*
G75*
G02*
X171950000Y-106695000I0J-150000D01*
G01*
X171950000Y-106995000D01*
G75*
G02*
X171800000Y-107145000I-150000J0D01*
G01*
X170150000Y-107145000D01*
G75*
G02*
X170000000Y-106995000I0J150000D01*
G01*
G37*
G04 #@! TD.AperFunction*
G04 #@! TA.AperFunction,SMDPad,CuDef*
G36*
G01*
X165050000Y-115745000D02*
X165050000Y-115445000D01*
G75*
G02*
X165200000Y-115295000I150000J0D01*
G01*
X166850000Y-115295000D01*
G75*
G02*
X167000000Y-115445000I0J-150000D01*
G01*
X167000000Y-115745000D01*
G75*
G02*
X166850000Y-115895000I-150000J0D01*
G01*
X165200000Y-115895000D01*
G75*
G02*
X165050000Y-115745000I0J150000D01*
G01*
G37*
G04 #@! TD.AperFunction*
G04 #@! TA.AperFunction,SMDPad,CuDef*
G36*
G01*
X165050000Y-117015000D02*
X165050000Y-116715000D01*
G75*
G02*
X165200000Y-116565000I150000J0D01*
G01*
X166850000Y-116565000D01*
G75*
G02*
X167000000Y-116715000I0J-150000D01*
G01*
X167000000Y-117015000D01*
G75*
G02*
X166850000Y-117165000I-150000J0D01*
G01*
X165200000Y-117165000D01*
G75*
G02*
X165050000Y-117015000I0J150000D01*
G01*
G37*
G04 #@! TD.AperFunction*
G04 #@! TA.AperFunction,SMDPad,CuDef*
G36*
G01*
X165050000Y-118285000D02*
X165050000Y-117985000D01*
G75*
G02*
X165200000Y-117835000I150000J0D01*
G01*
X166850000Y-117835000D01*
G75*
G02*
X167000000Y-117985000I0J-150000D01*
G01*
X167000000Y-118285000D01*
G75*
G02*
X166850000Y-118435000I-150000J0D01*
G01*
X165200000Y-118435000D01*
G75*
G02*
X165050000Y-118285000I0J150000D01*
G01*
G37*
G04 #@! TD.AperFunction*
G04 #@! TA.AperFunction,SMDPad,CuDef*
G36*
G01*
X165050000Y-119555000D02*
X165050000Y-119255000D01*
G75*
G02*
X165200000Y-119105000I150000J0D01*
G01*
X166850000Y-119105000D01*
G75*
G02*
X167000000Y-119255000I0J-150000D01*
G01*
X167000000Y-119555000D01*
G75*
G02*
X166850000Y-119705000I-150000J0D01*
G01*
X165200000Y-119705000D01*
G75*
G02*
X165050000Y-119555000I0J150000D01*
G01*
G37*
G04 #@! TD.AperFunction*
G04 #@! TA.AperFunction,SMDPad,CuDef*
G36*
G01*
X170000000Y-119555000D02*
X170000000Y-119255000D01*
G75*
G02*
X170150000Y-119105000I150000J0D01*
G01*
X171800000Y-119105000D01*
G75*
G02*
X171950000Y-119255000I0J-150000D01*
G01*
X171950000Y-119555000D01*
G75*
G02*
X171800000Y-119705000I-150000J0D01*
G01*
X170150000Y-119705000D01*
G75*
G02*
X170000000Y-119555000I0J150000D01*
G01*
G37*
G04 #@! TD.AperFunction*
G04 #@! TA.AperFunction,SMDPad,CuDef*
G36*
G01*
X170000000Y-118285000D02*
X170000000Y-117985000D01*
G75*
G02*
X170150000Y-117835000I150000J0D01*
G01*
X171800000Y-117835000D01*
G75*
G02*
X171950000Y-117985000I0J-150000D01*
G01*
X171950000Y-118285000D01*
G75*
G02*
X171800000Y-118435000I-150000J0D01*
G01*
X170150000Y-118435000D01*
G75*
G02*
X170000000Y-118285000I0J150000D01*
G01*
G37*
G04 #@! TD.AperFunction*
G04 #@! TA.AperFunction,SMDPad,CuDef*
G36*
G01*
X170000000Y-117015000D02*
X170000000Y-116715000D01*
G75*
G02*
X170150000Y-116565000I150000J0D01*
G01*
X171800000Y-116565000D01*
G75*
G02*
X171950000Y-116715000I0J-150000D01*
G01*
X171950000Y-117015000D01*
G75*
G02*
X171800000Y-117165000I-150000J0D01*
G01*
X170150000Y-117165000D01*
G75*
G02*
X170000000Y-117015000I0J150000D01*
G01*
G37*
G04 #@! TD.AperFunction*
G04 #@! TA.AperFunction,SMDPad,CuDef*
G36*
G01*
X170000000Y-115745000D02*
X170000000Y-115445000D01*
G75*
G02*
X170150000Y-115295000I150000J0D01*
G01*
X171800000Y-115295000D01*
G75*
G02*
X171950000Y-115445000I0J-150000D01*
G01*
X171950000Y-115745000D01*
G75*
G02*
X171800000Y-115895000I-150000J0D01*
G01*
X170150000Y-115895000D01*
G75*
G02*
X170000000Y-115745000I0J150000D01*
G01*
G37*
G04 #@! TD.AperFunction*
G04 #@! TA.AperFunction,SMDPad,CuDef*
G36*
G01*
X141090000Y-113415000D02*
X141090000Y-113115000D01*
G75*
G02*
X141240000Y-112965000I150000J0D01*
G01*
X142690000Y-112965000D01*
G75*
G02*
X142840000Y-113115000I0J-150000D01*
G01*
X142840000Y-113415000D01*
G75*
G02*
X142690000Y-113565000I-150000J0D01*
G01*
X141240000Y-113565000D01*
G75*
G02*
X141090000Y-113415000I0J150000D01*
G01*
G37*
G04 #@! TD.AperFunction*
G04 #@! TA.AperFunction,SMDPad,CuDef*
G36*
G01*
X141090000Y-114685000D02*
X141090000Y-114385000D01*
G75*
G02*
X141240000Y-114235000I150000J0D01*
G01*
X142690000Y-114235000D01*
G75*
G02*
X142840000Y-114385000I0J-150000D01*
G01*
X142840000Y-114685000D01*
G75*
G02*
X142690000Y-114835000I-150000J0D01*
G01*
X141240000Y-114835000D01*
G75*
G02*
X141090000Y-114685000I0J150000D01*
G01*
G37*
G04 #@! TD.AperFunction*
G04 #@! TA.AperFunction,SMDPad,CuDef*
G36*
G01*
X141090000Y-115955000D02*
X141090000Y-115655000D01*
G75*
G02*
X141240000Y-115505000I150000J0D01*
G01*
X142690000Y-115505000D01*
G75*
G02*
X142840000Y-115655000I0J-150000D01*
G01*
X142840000Y-115955000D01*
G75*
G02*
X142690000Y-116105000I-150000J0D01*
G01*
X141240000Y-116105000D01*
G75*
G02*
X141090000Y-115955000I0J150000D01*
G01*
G37*
G04 #@! TD.AperFunction*
G04 #@! TA.AperFunction,SMDPad,CuDef*
G36*
G01*
X141090000Y-117225000D02*
X141090000Y-116925000D01*
G75*
G02*
X141240000Y-116775000I150000J0D01*
G01*
X142690000Y-116775000D01*
G75*
G02*
X142840000Y-116925000I0J-150000D01*
G01*
X142840000Y-117225000D01*
G75*
G02*
X142690000Y-117375000I-150000J0D01*
G01*
X141240000Y-117375000D01*
G75*
G02*
X141090000Y-117225000I0J150000D01*
G01*
G37*
G04 #@! TD.AperFunction*
G04 #@! TA.AperFunction,SMDPad,CuDef*
G36*
G01*
X146240000Y-117225000D02*
X146240000Y-116925000D01*
G75*
G02*
X146390000Y-116775000I150000J0D01*
G01*
X147840000Y-116775000D01*
G75*
G02*
X147990000Y-116925000I0J-150000D01*
G01*
X147990000Y-117225000D01*
G75*
G02*
X147840000Y-117375000I-150000J0D01*
G01*
X146390000Y-117375000D01*
G75*
G02*
X146240000Y-117225000I0J150000D01*
G01*
G37*
G04 #@! TD.AperFunction*
G04 #@! TA.AperFunction,SMDPad,CuDef*
G36*
G01*
X146240000Y-115955000D02*
X146240000Y-115655000D01*
G75*
G02*
X146390000Y-115505000I150000J0D01*
G01*
X147840000Y-115505000D01*
G75*
G02*
X147990000Y-115655000I0J-150000D01*
G01*
X147990000Y-115955000D01*
G75*
G02*
X147840000Y-116105000I-150000J0D01*
G01*
X146390000Y-116105000D01*
G75*
G02*
X146240000Y-115955000I0J150000D01*
G01*
G37*
G04 #@! TD.AperFunction*
G04 #@! TA.AperFunction,SMDPad,CuDef*
G36*
G01*
X146240000Y-114685000D02*
X146240000Y-114385000D01*
G75*
G02*
X146390000Y-114235000I150000J0D01*
G01*
X147840000Y-114235000D01*
G75*
G02*
X147990000Y-114385000I0J-150000D01*
G01*
X147990000Y-114685000D01*
G75*
G02*
X147840000Y-114835000I-150000J0D01*
G01*
X146390000Y-114835000D01*
G75*
G02*
X146240000Y-114685000I0J150000D01*
G01*
G37*
G04 #@! TD.AperFunction*
G04 #@! TA.AperFunction,SMDPad,CuDef*
G36*
G01*
X146240000Y-113415000D02*
X146240000Y-113115000D01*
G75*
G02*
X146390000Y-112965000I150000J0D01*
G01*
X147840000Y-112965000D01*
G75*
G02*
X147990000Y-113115000I0J-150000D01*
G01*
X147990000Y-113415000D01*
G75*
G02*
X147840000Y-113565000I-150000J0D01*
G01*
X146390000Y-113565000D01*
G75*
G02*
X146240000Y-113415000I0J150000D01*
G01*
G37*
G04 #@! TD.AperFunction*
D11*
X131000000Y-107500000D03*
D12*
X132400000Y-106525000D03*
X132400000Y-107175000D03*
X132400000Y-107825000D03*
X132400000Y-108475000D03*
X129600000Y-108475000D03*
X129600000Y-107825000D03*
X129600000Y-107175000D03*
X129600000Y-106525000D03*
D10*
X130500000Y-117000000D03*
X127000000Y-117000000D03*
X123500000Y-117000000D03*
X176500000Y-111250000D03*
X176500000Y-119000000D03*
X147000000Y-100000000D03*
X151500000Y-100000000D03*
X134000000Y-100000000D03*
X129500000Y-100000000D03*
X126000000Y-100000000D03*
G04 #@! TA.AperFunction,SMDPad,CuDef*
G36*
G01*
X173950001Y-111350000D02*
X173049999Y-111350000D01*
G75*
G02*
X172800000Y-111100001I0J249999D01*
G01*
X172800000Y-110399999D01*
G75*
G02*
X173049999Y-110150000I249999J0D01*
G01*
X173950001Y-110150000D01*
G75*
G02*
X174200000Y-110399999I0J-249999D01*
G01*
X174200000Y-111100001D01*
G75*
G02*
X173950001Y-111350000I-249999J0D01*
G01*
G37*
G04 #@! TD.AperFunction*
G04 #@! TA.AperFunction,SMDPad,CuDef*
G36*
G01*
X173950001Y-109350000D02*
X173049999Y-109350000D01*
G75*
G02*
X172800000Y-109100001I0J249999D01*
G01*
X172800000Y-108399999D01*
G75*
G02*
X173049999Y-108150000I249999J0D01*
G01*
X173950001Y-108150000D01*
G75*
G02*
X174200000Y-108399999I0J-249999D01*
G01*
X174200000Y-109100001D01*
G75*
G02*
X173950001Y-109350000I-249999J0D01*
G01*
G37*
G04 #@! TD.AperFunction*
G04 #@! TA.AperFunction,SMDPad,CuDef*
G36*
G01*
X174100000Y-112299999D02*
X174100000Y-113200001D01*
G75*
G02*
X173850001Y-113450000I-249999J0D01*
G01*
X173149999Y-113450000D01*
G75*
G02*
X172900000Y-113200001I0J249999D01*
G01*
X172900000Y-112299999D01*
G75*
G02*
X173149999Y-112050000I249999J0D01*
G01*
X173850001Y-112050000D01*
G75*
G02*
X174100000Y-112299999I0J-249999D01*
G01*
G37*
G04 #@! TD.AperFunction*
G04 #@! TA.AperFunction,SMDPad,CuDef*
G36*
G01*
X172100000Y-112299999D02*
X172100000Y-113200001D01*
G75*
G02*
X171850001Y-113450000I-249999J0D01*
G01*
X171149999Y-113450000D01*
G75*
G02*
X170900000Y-113200001I0J249999D01*
G01*
X170900000Y-112299999D01*
G75*
G02*
X171149999Y-112050000I249999J0D01*
G01*
X171850001Y-112050000D01*
G75*
G02*
X172100000Y-112299999I0J-249999D01*
G01*
G37*
G04 #@! TD.AperFunction*
G04 #@! TA.AperFunction,SMDPad,CuDef*
G36*
G01*
X146900000Y-111450001D02*
X146900000Y-110549999D01*
G75*
G02*
X147149999Y-110300000I249999J0D01*
G01*
X147850001Y-110300000D01*
G75*
G02*
X148100000Y-110549999I0J-249999D01*
G01*
X148100000Y-111450001D01*
G75*
G02*
X147850001Y-111700000I-249999J0D01*
G01*
X147149999Y-111700000D01*
G75*
G02*
X146900000Y-111450001I0J249999D01*
G01*
G37*
G04 #@! TD.AperFunction*
G04 #@! TA.AperFunction,SMDPad,CuDef*
G36*
G01*
X144900000Y-111450001D02*
X144900000Y-110549999D01*
G75*
G02*
X145149999Y-110300000I249999J0D01*
G01*
X145850001Y-110300000D01*
G75*
G02*
X146100000Y-110549999I0J-249999D01*
G01*
X146100000Y-111450001D01*
G75*
G02*
X145850001Y-111700000I-249999J0D01*
G01*
X145149999Y-111700000D01*
G75*
G02*
X144900000Y-111450001I0J249999D01*
G01*
G37*
G04 #@! TD.AperFunction*
G04 #@! TA.AperFunction,SMDPad,CuDef*
G36*
G01*
X135100000Y-104549999D02*
X135100000Y-105450001D01*
G75*
G02*
X134850001Y-105700000I-249999J0D01*
G01*
X134149999Y-105700000D01*
G75*
G02*
X133900000Y-105450001I0J249999D01*
G01*
X133900000Y-104549999D01*
G75*
G02*
X134149999Y-104300000I249999J0D01*
G01*
X134850001Y-104300000D01*
G75*
G02*
X135100000Y-104549999I0J-249999D01*
G01*
G37*
G04 #@! TD.AperFunction*
G04 #@! TA.AperFunction,SMDPad,CuDef*
G36*
G01*
X137100000Y-104549999D02*
X137100000Y-105450001D01*
G75*
G02*
X136850001Y-105700000I-249999J0D01*
G01*
X136149999Y-105700000D01*
G75*
G02*
X135900000Y-105450001I0J249999D01*
G01*
X135900000Y-104549999D01*
G75*
G02*
X136149999Y-104300000I249999J0D01*
G01*
X136850001Y-104300000D01*
G75*
G02*
X137100000Y-104549999I0J-249999D01*
G01*
G37*
G04 #@! TD.AperFunction*
G04 #@! TA.AperFunction,SMDPad,CuDef*
G36*
G01*
X134049999Y-116400000D02*
X134950001Y-116400000D01*
G75*
G02*
X135200000Y-116649999I0J-249999D01*
G01*
X135200000Y-117350001D01*
G75*
G02*
X134950001Y-117600000I-249999J0D01*
G01*
X134049999Y-117600000D01*
G75*
G02*
X133800000Y-117350001I0J249999D01*
G01*
X133800000Y-116649999D01*
G75*
G02*
X134049999Y-116400000I249999J0D01*
G01*
G37*
G04 #@! TD.AperFunction*
G04 #@! TA.AperFunction,SMDPad,CuDef*
G36*
G01*
X134049999Y-114400000D02*
X134950001Y-114400000D01*
G75*
G02*
X135200000Y-114649999I0J-249999D01*
G01*
X135200000Y-115350001D01*
G75*
G02*
X134950001Y-115600000I-249999J0D01*
G01*
X134049999Y-115600000D01*
G75*
G02*
X133800000Y-115350001I0J249999D01*
G01*
X133800000Y-114649999D01*
G75*
G02*
X134049999Y-114400000I249999J0D01*
G01*
G37*
G04 #@! TD.AperFunction*
G04 #@! TA.AperFunction,SMDPad,CuDef*
G36*
G01*
X127950001Y-108600000D02*
X127049999Y-108600000D01*
G75*
G02*
X126800000Y-108350001I0J249999D01*
G01*
X126800000Y-107649999D01*
G75*
G02*
X127049999Y-107400000I249999J0D01*
G01*
X127950001Y-107400000D01*
G75*
G02*
X128200000Y-107649999I0J-249999D01*
G01*
X128200000Y-108350001D01*
G75*
G02*
X127950001Y-108600000I-249999J0D01*
G01*
G37*
G04 #@! TD.AperFunction*
G04 #@! TA.AperFunction,SMDPad,CuDef*
G36*
G01*
X127950001Y-110600000D02*
X127049999Y-110600000D01*
G75*
G02*
X126800000Y-110350001I0J249999D01*
G01*
X126800000Y-109649999D01*
G75*
G02*
X127049999Y-109400000I249999J0D01*
G01*
X127950001Y-109400000D01*
G75*
G02*
X128200000Y-109649999I0J-249999D01*
G01*
X128200000Y-110350001D01*
G75*
G02*
X127950001Y-110600000I-249999J0D01*
G01*
G37*
G04 #@! TD.AperFunction*
G04 #@! TA.AperFunction,SMDPad,CuDef*
G36*
G01*
X124900000Y-106450001D02*
X124900000Y-105549999D01*
G75*
G02*
X125149999Y-105300000I249999J0D01*
G01*
X125850001Y-105300000D01*
G75*
G02*
X126100000Y-105549999I0J-249999D01*
G01*
X126100000Y-106450001D01*
G75*
G02*
X125850001Y-106700000I-249999J0D01*
G01*
X125149999Y-106700000D01*
G75*
G02*
X124900000Y-106450001I0J249999D01*
G01*
G37*
G04 #@! TD.AperFunction*
G04 #@! TA.AperFunction,SMDPad,CuDef*
G36*
G01*
X122900000Y-106450001D02*
X122900000Y-105549999D01*
G75*
G02*
X123149999Y-105300000I249999J0D01*
G01*
X123850001Y-105300000D01*
G75*
G02*
X124100000Y-105549999I0J-249999D01*
G01*
X124100000Y-106450001D01*
G75*
G02*
X123850001Y-106700000I-249999J0D01*
G01*
X123149999Y-106700000D01*
G75*
G02*
X122900000Y-106450001I0J249999D01*
G01*
G37*
G04 #@! TD.AperFunction*
G04 #@! TA.AperFunction,SMDPad,CuDef*
G36*
G01*
X124900000Y-104450001D02*
X124900000Y-103549999D01*
G75*
G02*
X125149999Y-103300000I249999J0D01*
G01*
X125850001Y-103300000D01*
G75*
G02*
X126100000Y-103549999I0J-249999D01*
G01*
X126100000Y-104450001D01*
G75*
G02*
X125850001Y-104700000I-249999J0D01*
G01*
X125149999Y-104700000D01*
G75*
G02*
X124900000Y-104450001I0J249999D01*
G01*
G37*
G04 #@! TD.AperFunction*
G04 #@! TA.AperFunction,SMDPad,CuDef*
G36*
G01*
X122900000Y-104450001D02*
X122900000Y-103549999D01*
G75*
G02*
X123149999Y-103300000I249999J0D01*
G01*
X123850001Y-103300000D01*
G75*
G02*
X124100000Y-103549999I0J-249999D01*
G01*
X124100000Y-104450001D01*
G75*
G02*
X123850001Y-104700000I-249999J0D01*
G01*
X123149999Y-104700000D01*
G75*
G02*
X122900000Y-104450001I0J249999D01*
G01*
G37*
G04 #@! TD.AperFunction*
G04 #@! TA.AperFunction,SMDPad,CuDef*
G36*
G01*
X149850001Y-114770000D02*
X148949999Y-114770000D01*
G75*
G02*
X148700000Y-114520001I0J249999D01*
G01*
X148700000Y-113819999D01*
G75*
G02*
X148949999Y-113570000I249999J0D01*
G01*
X149850001Y-113570000D01*
G75*
G02*
X150100000Y-113819999I0J-249999D01*
G01*
X150100000Y-114520001D01*
G75*
G02*
X149850001Y-114770000I-249999J0D01*
G01*
G37*
G04 #@! TD.AperFunction*
G04 #@! TA.AperFunction,SMDPad,CuDef*
G36*
G01*
X149850001Y-116770000D02*
X148949999Y-116770000D01*
G75*
G02*
X148700000Y-116520001I0J249999D01*
G01*
X148700000Y-115819999D01*
G75*
G02*
X148949999Y-115570000I249999J0D01*
G01*
X149850001Y-115570000D01*
G75*
G02*
X150100000Y-115819999I0J-249999D01*
G01*
X150100000Y-116520001D01*
G75*
G02*
X149850001Y-116770000I-249999J0D01*
G01*
G37*
G04 #@! TD.AperFunction*
G04 #@! TA.AperFunction,SMDPad,CuDef*
G36*
G01*
X146000000Y-105245000D02*
X146000000Y-104945000D01*
G75*
G02*
X146150000Y-104795000I150000J0D01*
G01*
X147800000Y-104795000D01*
G75*
G02*
X147950000Y-104945000I0J-150000D01*
G01*
X147950000Y-105245000D01*
G75*
G02*
X147800000Y-105395000I-150000J0D01*
G01*
X146150000Y-105395000D01*
G75*
G02*
X146000000Y-105245000I0J150000D01*
G01*
G37*
G04 #@! TD.AperFunction*
G04 #@! TA.AperFunction,SMDPad,CuDef*
G36*
G01*
X146000000Y-106515000D02*
X146000000Y-106215000D01*
G75*
G02*
X146150000Y-106065000I150000J0D01*
G01*
X147800000Y-106065000D01*
G75*
G02*
X147950000Y-106215000I0J-150000D01*
G01*
X147950000Y-106515000D01*
G75*
G02*
X147800000Y-106665000I-150000J0D01*
G01*
X146150000Y-106665000D01*
G75*
G02*
X146000000Y-106515000I0J150000D01*
G01*
G37*
G04 #@! TD.AperFunction*
G04 #@! TA.AperFunction,SMDPad,CuDef*
G36*
G01*
X146000000Y-107785000D02*
X146000000Y-107485000D01*
G75*
G02*
X146150000Y-107335000I150000J0D01*
G01*
X147800000Y-107335000D01*
G75*
G02*
X147950000Y-107485000I0J-150000D01*
G01*
X147950000Y-107785000D01*
G75*
G02*
X147800000Y-107935000I-150000J0D01*
G01*
X146150000Y-107935000D01*
G75*
G02*
X146000000Y-107785000I0J150000D01*
G01*
G37*
G04 #@! TD.AperFunction*
G04 #@! TA.AperFunction,SMDPad,CuDef*
G36*
G01*
X146000000Y-109055000D02*
X146000000Y-108755000D01*
G75*
G02*
X146150000Y-108605000I150000J0D01*
G01*
X147800000Y-108605000D01*
G75*
G02*
X147950000Y-108755000I0J-150000D01*
G01*
X147950000Y-109055000D01*
G75*
G02*
X147800000Y-109205000I-150000J0D01*
G01*
X146150000Y-109205000D01*
G75*
G02*
X146000000Y-109055000I0J150000D01*
G01*
G37*
G04 #@! TD.AperFunction*
G04 #@! TA.AperFunction,SMDPad,CuDef*
G36*
G01*
X141050000Y-109055000D02*
X141050000Y-108755000D01*
G75*
G02*
X141200000Y-108605000I150000J0D01*
G01*
X142850000Y-108605000D01*
G75*
G02*
X143000000Y-108755000I0J-150000D01*
G01*
X143000000Y-109055000D01*
G75*
G02*
X142850000Y-109205000I-150000J0D01*
G01*
X141200000Y-109205000D01*
G75*
G02*
X141050000Y-109055000I0J150000D01*
G01*
G37*
G04 #@! TD.AperFunction*
G04 #@! TA.AperFunction,SMDPad,CuDef*
G36*
G01*
X141050000Y-107785000D02*
X141050000Y-107485000D01*
G75*
G02*
X141200000Y-107335000I150000J0D01*
G01*
X142850000Y-107335000D01*
G75*
G02*
X143000000Y-107485000I0J-150000D01*
G01*
X143000000Y-107785000D01*
G75*
G02*
X142850000Y-107935000I-150000J0D01*
G01*
X141200000Y-107935000D01*
G75*
G02*
X141050000Y-107785000I0J150000D01*
G01*
G37*
G04 #@! TD.AperFunction*
G04 #@! TA.AperFunction,SMDPad,CuDef*
G36*
G01*
X141050000Y-106515000D02*
X141050000Y-106215000D01*
G75*
G02*
X141200000Y-106065000I150000J0D01*
G01*
X142850000Y-106065000D01*
G75*
G02*
X143000000Y-106215000I0J-150000D01*
G01*
X143000000Y-106515000D01*
G75*
G02*
X142850000Y-106665000I-150000J0D01*
G01*
X141200000Y-106665000D01*
G75*
G02*
X141050000Y-106515000I0J150000D01*
G01*
G37*
G04 #@! TD.AperFunction*
G04 #@! TA.AperFunction,SMDPad,CuDef*
G36*
G01*
X141050000Y-105245000D02*
X141050000Y-104945000D01*
G75*
G02*
X141200000Y-104795000I150000J0D01*
G01*
X142850000Y-104795000D01*
G75*
G02*
X143000000Y-104945000I0J-150000D01*
G01*
X143000000Y-105245000D01*
G75*
G02*
X142850000Y-105395000I-150000J0D01*
G01*
X141200000Y-105395000D01*
G75*
G02*
X141050000Y-105245000I0J150000D01*
G01*
G37*
G04 #@! TD.AperFunction*
D13*
X152500000Y-105700000D03*
X152500000Y-111300000D03*
G04 #@! TA.AperFunction,ComponentPad*
G36*
G01*
X117100000Y-118400000D02*
X117100000Y-119600000D01*
G75*
G02*
X116850000Y-119850000I-250000J0D01*
G01*
X115150000Y-119850000D01*
G75*
G02*
X114900000Y-119600000I0J250000D01*
G01*
X114900000Y-118400000D01*
G75*
G02*
X115150000Y-118150000I250000J0D01*
G01*
X116850000Y-118150000D01*
G75*
G02*
X117100000Y-118400000I0J-250000D01*
G01*
G37*
G04 #@! TD.AperFunction*
D14*
X116000000Y-116500000D03*
X184000000Y-111500000D03*
G04 #@! TA.AperFunction,ComponentPad*
G36*
G01*
X182900000Y-109600000D02*
X182900000Y-108400000D01*
G75*
G02*
X183150000Y-108150000I250000J0D01*
G01*
X184850000Y-108150000D01*
G75*
G02*
X185100000Y-108400000I0J-250000D01*
G01*
X185100000Y-109600000D01*
G75*
G02*
X184850000Y-109850000I-250000J0D01*
G01*
X183150000Y-109850000D01*
G75*
G02*
X182900000Y-109600000I0J250000D01*
G01*
G37*
G04 #@! TD.AperFunction*
X184000000Y-119000000D03*
G04 #@! TA.AperFunction,ComponentPad*
G36*
G01*
X182900000Y-117100000D02*
X182900000Y-115900000D01*
G75*
G02*
X183150000Y-115650000I250000J0D01*
G01*
X184850000Y-115650000D01*
G75*
G02*
X185100000Y-115900000I0J-250000D01*
G01*
X185100000Y-117100000D01*
G75*
G02*
X184850000Y-117350000I-250000J0D01*
G01*
X183150000Y-117350000D01*
G75*
G02*
X182900000Y-117100000I0J250000D01*
G01*
G37*
G04 #@! TD.AperFunction*
G04 #@! TA.AperFunction,ComponentPad*
G36*
G01*
X117100000Y-100900000D02*
X117100000Y-102100000D01*
G75*
G02*
X116850000Y-102350000I-250000J0D01*
G01*
X115150000Y-102350000D01*
G75*
G02*
X114900000Y-102100000I0J250000D01*
G01*
X114900000Y-100900000D01*
G75*
G02*
X115150000Y-100650000I250000J0D01*
G01*
X116850000Y-100650000D01*
G75*
G02*
X117100000Y-100900000I0J-250000D01*
G01*
G37*
G04 #@! TD.AperFunction*
X116000000Y-99000000D03*
X184000000Y-101500000D03*
G04 #@! TA.AperFunction,ComponentPad*
G36*
G01*
X182900000Y-99600000D02*
X182900000Y-98400000D01*
G75*
G02*
X183150000Y-98150000I250000J0D01*
G01*
X184850000Y-98150000D01*
G75*
G02*
X185100000Y-98400000I0J-250000D01*
G01*
X185100000Y-99600000D01*
G75*
G02*
X184850000Y-99850000I-250000J0D01*
G01*
X183150000Y-99850000D01*
G75*
G02*
X182900000Y-99600000I0J250000D01*
G01*
G37*
G04 #@! TD.AperFunction*
G04 #@! TA.AperFunction,ComponentPad*
G36*
G01*
X117100000Y-110900000D02*
X117100000Y-112100000D01*
G75*
G02*
X116850000Y-112350000I-250000J0D01*
G01*
X115150000Y-112350000D01*
G75*
G02*
X114900000Y-112100000I0J250000D01*
G01*
X114900000Y-110900000D01*
G75*
G02*
X115150000Y-110650000I250000J0D01*
G01*
X116850000Y-110650000D01*
G75*
G02*
X117100000Y-110900000I0J-250000D01*
G01*
G37*
G04 #@! TD.AperFunction*
X116000000Y-109000000D03*
X116000000Y-106500000D03*
D15*
X159000000Y-106300000D03*
X159000000Y-111700000D03*
G04 #@! TA.AperFunction,SMDPad,CuDef*
G36*
G01*
X169550000Y-104275000D02*
X169550000Y-105225000D01*
G75*
G02*
X169300000Y-105475000I-250000J0D01*
G01*
X168625000Y-105475000D01*
G75*
G02*
X168375000Y-105225000I0J250000D01*
G01*
X168375000Y-104275000D01*
G75*
G02*
X168625000Y-104025000I250000J0D01*
G01*
X169300000Y-104025000D01*
G75*
G02*
X169550000Y-104275000I0J-250000D01*
G01*
G37*
G04 #@! TD.AperFunction*
G04 #@! TA.AperFunction,SMDPad,CuDef*
G36*
G01*
X171625000Y-104275000D02*
X171625000Y-105225000D01*
G75*
G02*
X171375000Y-105475000I-250000J0D01*
G01*
X170700000Y-105475000D01*
G75*
G02*
X170450000Y-105225000I0J250000D01*
G01*
X170450000Y-104275000D01*
G75*
G02*
X170700000Y-104025000I250000J0D01*
G01*
X171375000Y-104025000D01*
G75*
G02*
X171625000Y-104275000I0J-250000D01*
G01*
G37*
G04 #@! TD.AperFunction*
G04 #@! TA.AperFunction,SMDPad,CuDef*
G36*
G01*
X173025000Y-117450000D02*
X173975000Y-117450000D01*
G75*
G02*
X174225000Y-117700000I0J-250000D01*
G01*
X174225000Y-118375000D01*
G75*
G02*
X173975000Y-118625000I-250000J0D01*
G01*
X173025000Y-118625000D01*
G75*
G02*
X172775000Y-118375000I0J250000D01*
G01*
X172775000Y-117700000D01*
G75*
G02*
X173025000Y-117450000I250000J0D01*
G01*
G37*
G04 #@! TD.AperFunction*
G04 #@! TA.AperFunction,SMDPad,CuDef*
G36*
G01*
X173025000Y-115375000D02*
X173975000Y-115375000D01*
G75*
G02*
X174225000Y-115625000I0J-250000D01*
G01*
X174225000Y-116300000D01*
G75*
G02*
X173975000Y-116550000I-250000J0D01*
G01*
X173025000Y-116550000D01*
G75*
G02*
X172775000Y-116300000I0J250000D01*
G01*
X172775000Y-115625000D01*
G75*
G02*
X173025000Y-115375000I250000J0D01*
G01*
G37*
G04 #@! TD.AperFunction*
G04 #@! TA.AperFunction,SMDPad,CuDef*
G36*
G01*
X163025000Y-108550000D02*
X163975000Y-108550000D01*
G75*
G02*
X164225000Y-108800000I0J-250000D01*
G01*
X164225000Y-109475000D01*
G75*
G02*
X163975000Y-109725000I-250000J0D01*
G01*
X163025000Y-109725000D01*
G75*
G02*
X162775000Y-109475000I0J250000D01*
G01*
X162775000Y-108800000D01*
G75*
G02*
X163025000Y-108550000I250000J0D01*
G01*
G37*
G04 #@! TD.AperFunction*
G04 #@! TA.AperFunction,SMDPad,CuDef*
G36*
G01*
X163025000Y-106475000D02*
X163975000Y-106475000D01*
G75*
G02*
X164225000Y-106725000I0J-250000D01*
G01*
X164225000Y-107400000D01*
G75*
G02*
X163975000Y-107650000I-250000J0D01*
G01*
X163025000Y-107650000D01*
G75*
G02*
X162775000Y-107400000I0J250000D01*
G01*
X162775000Y-106725000D01*
G75*
G02*
X163025000Y-106475000I250000J0D01*
G01*
G37*
G04 #@! TD.AperFunction*
G04 #@! TA.AperFunction,SMDPad,CuDef*
G36*
G01*
X163025000Y-117450000D02*
X163975000Y-117450000D01*
G75*
G02*
X164225000Y-117700000I0J-250000D01*
G01*
X164225000Y-118375000D01*
G75*
G02*
X163975000Y-118625000I-250000J0D01*
G01*
X163025000Y-118625000D01*
G75*
G02*
X162775000Y-118375000I0J250000D01*
G01*
X162775000Y-117700000D01*
G75*
G02*
X163025000Y-117450000I250000J0D01*
G01*
G37*
G04 #@! TD.AperFunction*
G04 #@! TA.AperFunction,SMDPad,CuDef*
G36*
G01*
X163025000Y-115375000D02*
X163975000Y-115375000D01*
G75*
G02*
X164225000Y-115625000I0J-250000D01*
G01*
X164225000Y-116300000D01*
G75*
G02*
X163975000Y-116550000I-250000J0D01*
G01*
X163025000Y-116550000D01*
G75*
G02*
X162775000Y-116300000I0J250000D01*
G01*
X162775000Y-115625000D01*
G75*
G02*
X163025000Y-115375000I250000J0D01*
G01*
G37*
G04 #@! TD.AperFunction*
G04 #@! TA.AperFunction,SMDPad,CuDef*
G36*
G01*
X134025000Y-106375000D02*
X134975000Y-106375000D01*
G75*
G02*
X135225000Y-106625000I0J-250000D01*
G01*
X135225000Y-107300000D01*
G75*
G02*
X134975000Y-107550000I-250000J0D01*
G01*
X134025000Y-107550000D01*
G75*
G02*
X133775000Y-107300000I0J250000D01*
G01*
X133775000Y-106625000D01*
G75*
G02*
X134025000Y-106375000I250000J0D01*
G01*
G37*
G04 #@! TD.AperFunction*
G04 #@! TA.AperFunction,SMDPad,CuDef*
G36*
G01*
X134025000Y-108450000D02*
X134975000Y-108450000D01*
G75*
G02*
X135225000Y-108700000I0J-250000D01*
G01*
X135225000Y-109375000D01*
G75*
G02*
X134975000Y-109625000I-250000J0D01*
G01*
X134025000Y-109625000D01*
G75*
G02*
X133775000Y-109375000I0J250000D01*
G01*
X133775000Y-108700000D01*
G75*
G02*
X134025000Y-108450000I250000J0D01*
G01*
G37*
G04 #@! TD.AperFunction*
G04 #@! TA.AperFunction,SMDPad,CuDef*
G36*
G01*
X139025000Y-114375000D02*
X139975000Y-114375000D01*
G75*
G02*
X140225000Y-114625000I0J-250000D01*
G01*
X140225000Y-115300000D01*
G75*
G02*
X139975000Y-115550000I-250000J0D01*
G01*
X139025000Y-115550000D01*
G75*
G02*
X138775000Y-115300000I0J250000D01*
G01*
X138775000Y-114625000D01*
G75*
G02*
X139025000Y-114375000I250000J0D01*
G01*
G37*
G04 #@! TD.AperFunction*
G04 #@! TA.AperFunction,SMDPad,CuDef*
G36*
G01*
X139025000Y-116450000D02*
X139975000Y-116450000D01*
G75*
G02*
X140225000Y-116700000I0J-250000D01*
G01*
X140225000Y-117375000D01*
G75*
G02*
X139975000Y-117625000I-250000J0D01*
G01*
X139025000Y-117625000D01*
G75*
G02*
X138775000Y-117375000I0J250000D01*
G01*
X138775000Y-116700000D01*
G75*
G02*
X139025000Y-116450000I250000J0D01*
G01*
G37*
G04 #@! TD.AperFunction*
G04 #@! TA.AperFunction,SMDPad,CuDef*
G36*
G01*
X136525000Y-114375000D02*
X137475000Y-114375000D01*
G75*
G02*
X137725000Y-114625000I0J-250000D01*
G01*
X137725000Y-115300000D01*
G75*
G02*
X137475000Y-115550000I-250000J0D01*
G01*
X136525000Y-115550000D01*
G75*
G02*
X136275000Y-115300000I0J250000D01*
G01*
X136275000Y-114625000D01*
G75*
G02*
X136525000Y-114375000I250000J0D01*
G01*
G37*
G04 #@! TD.AperFunction*
G04 #@! TA.AperFunction,SMDPad,CuDef*
G36*
G01*
X136525000Y-116450000D02*
X137475000Y-116450000D01*
G75*
G02*
X137725000Y-116700000I0J-250000D01*
G01*
X137725000Y-117375000D01*
G75*
G02*
X137475000Y-117625000I-250000J0D01*
G01*
X136525000Y-117625000D01*
G75*
G02*
X136275000Y-117375000I0J250000D01*
G01*
X136275000Y-116700000D01*
G75*
G02*
X136525000Y-116450000I250000J0D01*
G01*
G37*
G04 #@! TD.AperFunction*
G04 #@! TA.AperFunction,SMDPad,CuDef*
G36*
G01*
X129375000Y-111475000D02*
X129375000Y-110525000D01*
G75*
G02*
X129625000Y-110275000I250000J0D01*
G01*
X130300000Y-110275000D01*
G75*
G02*
X130550000Y-110525000I0J-250000D01*
G01*
X130550000Y-111475000D01*
G75*
G02*
X130300000Y-111725000I-250000J0D01*
G01*
X129625000Y-111725000D01*
G75*
G02*
X129375000Y-111475000I0J250000D01*
G01*
G37*
G04 #@! TD.AperFunction*
G04 #@! TA.AperFunction,SMDPad,CuDef*
G36*
G01*
X131450000Y-111475000D02*
X131450000Y-110525000D01*
G75*
G02*
X131700000Y-110275000I250000J0D01*
G01*
X132375000Y-110275000D01*
G75*
G02*
X132625000Y-110525000I0J-250000D01*
G01*
X132625000Y-111475000D01*
G75*
G02*
X132375000Y-111725000I-250000J0D01*
G01*
X131700000Y-111725000D01*
G75*
G02*
X131450000Y-111475000I0J250000D01*
G01*
G37*
G04 #@! TD.AperFunction*
G04 #@! TA.AperFunction,SMDPad,CuDef*
G36*
G01*
X139125000Y-112525000D02*
X139125000Y-113475000D01*
G75*
G02*
X138875000Y-113725000I-250000J0D01*
G01*
X138200000Y-113725000D01*
G75*
G02*
X137950000Y-113475000I0J250000D01*
G01*
X137950000Y-112525000D01*
G75*
G02*
X138200000Y-112275000I250000J0D01*
G01*
X138875000Y-112275000D01*
G75*
G02*
X139125000Y-112525000I0J-250000D01*
G01*
G37*
G04 #@! TD.AperFunction*
G04 #@! TA.AperFunction,SMDPad,CuDef*
G36*
G01*
X137050000Y-112525000D02*
X137050000Y-113475000D01*
G75*
G02*
X136800000Y-113725000I-250000J0D01*
G01*
X136125000Y-113725000D01*
G75*
G02*
X135875000Y-113475000I0J250000D01*
G01*
X135875000Y-112525000D01*
G75*
G02*
X136125000Y-112275000I250000J0D01*
G01*
X136800000Y-112275000D01*
G75*
G02*
X137050000Y-112525000I0J-250000D01*
G01*
G37*
G04 #@! TD.AperFunction*
G04 #@! TA.AperFunction,SMDPad,CuDef*
G36*
G01*
X125025000Y-107375000D02*
X125975000Y-107375000D01*
G75*
G02*
X126225000Y-107625000I0J-250000D01*
G01*
X126225000Y-108300000D01*
G75*
G02*
X125975000Y-108550000I-250000J0D01*
G01*
X125025000Y-108550000D01*
G75*
G02*
X124775000Y-108300000I0J250000D01*
G01*
X124775000Y-107625000D01*
G75*
G02*
X125025000Y-107375000I250000J0D01*
G01*
G37*
G04 #@! TD.AperFunction*
G04 #@! TA.AperFunction,SMDPad,CuDef*
G36*
G01*
X125025000Y-109450000D02*
X125975000Y-109450000D01*
G75*
G02*
X126225000Y-109700000I0J-250000D01*
G01*
X126225000Y-110375000D01*
G75*
G02*
X125975000Y-110625000I-250000J0D01*
G01*
X125025000Y-110625000D01*
G75*
G02*
X124775000Y-110375000I0J250000D01*
G01*
X124775000Y-109700000D01*
G75*
G02*
X125025000Y-109450000I250000J0D01*
G01*
G37*
G04 #@! TD.AperFunction*
G04 #@! TA.AperFunction,SMDPad,CuDef*
G36*
G01*
X150125000Y-118525000D02*
X150125000Y-119475000D01*
G75*
G02*
X149875000Y-119725000I-250000J0D01*
G01*
X149200000Y-119725000D01*
G75*
G02*
X148950000Y-119475000I0J250000D01*
G01*
X148950000Y-118525000D01*
G75*
G02*
X149200000Y-118275000I250000J0D01*
G01*
X149875000Y-118275000D01*
G75*
G02*
X150125000Y-118525000I0J-250000D01*
G01*
G37*
G04 #@! TD.AperFunction*
G04 #@! TA.AperFunction,SMDPad,CuDef*
G36*
G01*
X148050000Y-118525000D02*
X148050000Y-119475000D01*
G75*
G02*
X147800000Y-119725000I-250000J0D01*
G01*
X147125000Y-119725000D01*
G75*
G02*
X146875000Y-119475000I0J250000D01*
G01*
X146875000Y-118525000D01*
G75*
G02*
X147125000Y-118275000I250000J0D01*
G01*
X147800000Y-118275000D01*
G75*
G02*
X148050000Y-118525000I0J-250000D01*
G01*
G37*
G04 #@! TD.AperFunction*
D16*
X130500000Y-109500000D03*
X131500000Y-109500000D03*
X131500000Y-105500000D03*
X130500000Y-105500000D03*
X169000000Y-110750000D03*
X169000000Y-109750000D03*
X169000000Y-108750000D03*
X169000000Y-107750000D03*
X169000000Y-106750000D03*
X169000000Y-119500000D03*
X169000000Y-118500000D03*
X169000000Y-117500000D03*
X169000000Y-116500000D03*
X169000000Y-115500000D03*
X168000000Y-119500000D03*
X168000000Y-118500000D03*
X168000000Y-117500000D03*
X168000000Y-116500000D03*
X168000000Y-115500000D03*
X168000000Y-106750000D03*
X168000000Y-107750000D03*
X168000000Y-108750000D03*
X168000000Y-110750000D03*
X159000000Y-114500000D03*
X173500000Y-119500000D03*
X124000000Y-109500000D03*
X158000000Y-114500000D03*
X160000000Y-114500000D03*
X168000000Y-109750000D03*
X133500000Y-110500000D03*
X172000000Y-101000000D03*
X157500000Y-101000000D03*
X143549990Y-117075000D03*
X130500000Y-103500000D03*
X131500000Y-103500000D03*
X146000000Y-119000000D03*
X161750000Y-118000000D03*
X135750000Y-118124990D03*
X140731250Y-118124990D03*
X138231250Y-118124990D03*
X149250000Y-107750000D03*
X149500000Y-102000000D03*
X145675010Y-115173774D03*
X144000000Y-119074990D03*
D17*
X149500000Y-118962500D02*
X149537500Y-119000000D01*
X163867500Y-115595000D02*
X163500000Y-115962500D01*
X166025000Y-115595000D02*
X163867500Y-115595000D01*
X163717500Y-106845000D02*
X163500000Y-107062500D01*
X166025000Y-106845000D02*
X163717500Y-106845000D01*
D18*
X149035000Y-115805000D02*
X149400000Y-116170000D01*
X147115000Y-115805000D02*
X149035000Y-115805000D01*
D17*
X130500000Y-107000000D02*
X131000000Y-107500000D01*
X130500000Y-105500000D02*
X130500000Y-107000000D01*
X131500000Y-107000000D02*
X131000000Y-107500000D01*
X131500000Y-105500000D02*
X131500000Y-107000000D01*
X130500000Y-108000000D02*
X131000000Y-107500000D01*
X130500000Y-109500000D02*
X130500000Y-108000000D01*
X131500000Y-108000000D02*
X131000000Y-107500000D01*
X131500000Y-109500000D02*
X131500000Y-108000000D01*
X173402500Y-118135000D02*
X173500000Y-118037500D01*
X170975000Y-118135000D02*
X173402500Y-118135000D01*
X163747500Y-109385000D02*
X163500000Y-109137500D01*
X166025000Y-109385000D02*
X163747500Y-109385000D01*
X171000000Y-112750000D02*
X171500000Y-112750000D01*
X169000000Y-110750000D02*
X171000000Y-112750000D01*
X137000000Y-117037500D02*
X139500000Y-117037500D01*
X134537500Y-117037500D02*
X134500000Y-117000000D01*
X137000000Y-117037500D02*
X134537500Y-117037500D01*
X141927500Y-117037500D02*
X141965000Y-117075000D01*
X139500000Y-117037500D02*
X141927500Y-117037500D01*
X159000000Y-111700000D02*
X159000000Y-114500000D01*
X173500000Y-118037500D02*
X173500000Y-119500000D01*
X173405000Y-119405000D02*
X173500000Y-119500000D01*
X170975000Y-119405000D02*
X173405000Y-119405000D01*
X164522500Y-108115000D02*
X163500000Y-109137500D01*
X166025000Y-108115000D02*
X164522500Y-108115000D01*
X172327500Y-116865000D02*
X173500000Y-118037500D01*
X170975000Y-116865000D02*
X172327500Y-116865000D01*
X163597500Y-118135000D02*
X163500000Y-118037500D01*
X166025000Y-118135000D02*
X163597500Y-118135000D01*
X164672500Y-116865000D02*
X163500000Y-118037500D01*
X166025000Y-116865000D02*
X164672500Y-116865000D01*
X168000000Y-105712500D02*
X168962500Y-104750000D01*
X168000000Y-106750000D02*
X168000000Y-105712500D01*
X169000000Y-104787500D02*
X168962500Y-104750000D01*
X169000000Y-106750000D02*
X169000000Y-104787500D01*
X125500000Y-110037500D02*
X125037500Y-110037500D01*
X125500000Y-110037500D02*
X124537500Y-110037500D01*
D19*
X132962500Y-109037500D02*
X132400000Y-108475000D01*
X134500000Y-109037500D02*
X132962500Y-109037500D01*
X131325001Y-107825001D02*
X132400000Y-107825001D01*
X131000000Y-107500000D02*
X131325001Y-107825001D01*
X132400000Y-108475000D02*
X130525000Y-108475000D01*
D17*
X132037500Y-110037500D02*
X131500000Y-109500000D01*
X132037500Y-111000000D02*
X132037500Y-110037500D01*
X130500000Y-105500000D02*
X131500000Y-105500000D01*
X130500000Y-109500000D02*
X131500000Y-109500000D01*
X159000000Y-114500000D02*
X158000000Y-114500000D01*
X159000000Y-114500000D02*
X160000000Y-114500000D01*
X158000000Y-112700000D02*
X159000000Y-111700000D01*
X158000000Y-114500000D02*
X158000000Y-112700000D01*
X160000000Y-112700000D02*
X159000000Y-111700000D01*
X160000000Y-114500000D02*
X160000000Y-112700000D01*
X133000000Y-111000000D02*
X132037500Y-111000000D01*
X133500000Y-110500000D02*
X133000000Y-111000000D01*
X134500000Y-109037500D02*
X134500000Y-109500000D01*
X134500000Y-109500000D02*
X133500000Y-110500000D01*
X129500000Y-100000000D02*
X130500000Y-101000000D01*
X130500000Y-101000000D02*
X130500000Y-103500000D01*
D19*
X143575000Y-117075000D02*
X143575000Y-117075000D01*
X143575000Y-117075000D02*
X143549990Y-117075000D01*
D17*
X130500000Y-103500000D02*
X130500000Y-105500000D01*
X130500000Y-103500000D02*
X131500000Y-103500000D01*
X131500000Y-105500000D02*
X131500000Y-103500000D01*
X131500000Y-102000000D02*
X130500000Y-101000000D01*
X131500000Y-103500000D02*
X131500000Y-102000000D01*
X141965000Y-117075000D02*
X143549990Y-117075000D01*
X147462500Y-119000000D02*
X146000000Y-119000000D01*
X144974990Y-118500000D02*
X145474990Y-119000000D01*
X146000000Y-119000000D02*
X145474990Y-119000000D01*
X144737495Y-118262505D02*
X143549990Y-117075000D01*
X145474990Y-119000000D02*
X144737495Y-118262505D01*
X124537500Y-110037500D02*
X124000000Y-109500000D01*
X163462500Y-118000000D02*
X162250000Y-118000000D01*
X163500000Y-118037500D02*
X163462500Y-118000000D01*
X157250000Y-114500000D02*
X158000000Y-114500000D01*
X156500000Y-115250000D02*
X157250000Y-114500000D01*
X135624990Y-118124990D02*
X135750000Y-118124990D01*
X139500000Y-117037500D02*
X140587490Y-118124990D01*
X140731250Y-118124990D02*
X138231250Y-118124990D01*
X134500000Y-117000000D02*
X135624990Y-118124990D01*
X138087490Y-118124990D02*
X138231250Y-118124990D01*
X140587490Y-118124990D02*
X140731250Y-118124990D01*
X141296935Y-118124990D02*
X140731250Y-118124990D01*
X144599980Y-118124990D02*
X141296935Y-118124990D01*
X144737495Y-118262505D02*
X144599980Y-118124990D01*
X137000000Y-117037500D02*
X138087490Y-118124990D01*
X138231250Y-118124990D02*
X135750000Y-118124990D01*
X130500000Y-117000000D02*
X134500000Y-117000000D01*
X156500000Y-100000000D02*
X157500000Y-101000000D01*
X155000000Y-100000000D02*
X156500000Y-100000000D01*
X173000000Y-100000000D02*
X172000000Y-101000000D01*
X174500000Y-100000000D02*
X173000000Y-100000000D01*
X162250000Y-118000000D02*
X161750000Y-118000000D01*
X156500000Y-115250000D02*
X156500000Y-116500000D01*
D19*
X129600000Y-106062500D02*
X127500000Y-103962500D01*
X129600000Y-106525000D02*
X129600000Y-106062500D01*
D17*
X125537500Y-103962500D02*
X125500000Y-104000000D01*
X127500000Y-103962500D02*
X125537500Y-103962500D01*
D19*
X128637500Y-107175000D02*
X127500000Y-106037500D01*
X129600000Y-107175000D02*
X128637500Y-107175000D01*
D17*
X125537500Y-106037500D02*
X125500000Y-106000000D01*
X127500000Y-106037500D02*
X125537500Y-106037500D01*
X125500000Y-106000000D02*
X125500000Y-107962500D01*
X138802500Y-113265000D02*
X138537500Y-113000000D01*
X141965000Y-113265000D02*
X138802500Y-113265000D01*
X136462500Y-113037500D02*
X134500000Y-115000000D01*
X136462500Y-113000000D02*
X136462500Y-113037500D01*
D19*
X129600000Y-110637500D02*
X129600000Y-108475000D01*
X129962500Y-111000000D02*
X129600000Y-110637500D01*
D17*
X139500000Y-114962500D02*
X137000000Y-114962500D01*
D19*
X141537500Y-114962500D02*
X141965000Y-114535000D01*
X139500000Y-114962500D02*
X141537500Y-114962500D01*
D17*
X142719966Y-105095000D02*
X142025000Y-105095000D01*
X143550010Y-105925044D02*
X142719966Y-105095000D01*
X143550010Y-107084990D02*
X143550010Y-105925044D01*
X143000000Y-107635000D02*
X143550010Y-107084990D01*
X142025000Y-107635000D02*
X143000000Y-107635000D01*
X142979957Y-112414991D02*
X143390009Y-112825043D01*
X143390009Y-112825043D02*
X143390009Y-113984991D01*
X139774990Y-109774990D02*
X142414991Y-112414991D01*
X139774990Y-106370010D02*
X139774990Y-109774990D01*
X142025000Y-105095000D02*
X141050000Y-105095000D01*
X141050000Y-105095000D02*
X139774990Y-106370010D01*
X142414991Y-112414991D02*
X142979957Y-112414991D01*
X143390009Y-113984991D02*
X142840000Y-114535000D01*
X142840000Y-114535000D02*
X141965000Y-114535000D01*
X173132500Y-115595000D02*
X173500000Y-115962500D01*
X170975000Y-115595000D02*
X173132500Y-115595000D01*
X176500000Y-117000000D02*
X176500000Y-119000000D01*
X175462500Y-115962500D02*
X176500000Y-117000000D01*
X173500000Y-115962500D02*
X175037500Y-115962500D01*
X175037500Y-115962500D02*
X175462500Y-115962500D01*
X183462500Y-115962500D02*
X184000000Y-116500000D01*
X175462500Y-115962500D02*
X183462500Y-115962500D01*
X173500000Y-108750000D02*
X174500000Y-108750000D01*
X173500000Y-108750000D02*
X176000000Y-108750000D01*
X176500000Y-109250000D02*
X176000000Y-108750000D01*
X176500000Y-111250000D02*
X176500000Y-109250000D01*
X171037500Y-106782500D02*
X170975000Y-106845000D01*
X171037500Y-104750000D02*
X171037500Y-106782500D01*
X173500000Y-107750000D02*
X173500000Y-108750000D01*
X172595000Y-106845000D02*
X173500000Y-107750000D01*
X170975000Y-106845000D02*
X172595000Y-106845000D01*
X183750000Y-108750000D02*
X184000000Y-109000000D01*
X176000000Y-108750000D02*
X183750000Y-108750000D01*
X153100000Y-106300000D02*
X152500000Y-105700000D01*
X159000000Y-106300000D02*
X153100000Y-106300000D01*
X151895000Y-105095000D02*
X152500000Y-105700000D01*
X146975000Y-105095000D02*
X151895000Y-105095000D01*
X151835000Y-106365000D02*
X152500000Y-105700000D01*
X146975000Y-106365000D02*
X151835000Y-106365000D01*
X145250000Y-106000000D02*
X145250000Y-105500000D01*
X145615000Y-106365000D02*
X145250000Y-106000000D01*
X146975000Y-106365000D02*
X145615000Y-106365000D01*
X145655000Y-105095000D02*
X145250000Y-105500000D01*
X146975000Y-105095000D02*
X145655000Y-105095000D01*
X126324990Y-111175010D02*
X123675010Y-111175010D01*
X127500000Y-110000000D02*
X126324990Y-111175010D01*
X127000000Y-114500000D02*
X123675010Y-111175010D01*
X121500000Y-109000000D02*
X123675010Y-111175010D01*
X122000000Y-106000000D02*
X123500000Y-106000000D01*
X119000000Y-109000000D02*
X122000000Y-106000000D01*
X121500000Y-109000000D02*
X119000000Y-109000000D01*
X127000000Y-117000000D02*
X127000000Y-114500000D01*
X119000000Y-109000000D02*
X117500000Y-109000000D01*
X117500000Y-109000000D02*
X116000000Y-109000000D01*
X147500000Y-109430000D02*
X146975000Y-108905000D01*
X147500000Y-111000000D02*
X147500000Y-109430000D01*
X149500000Y-102000000D02*
X151500000Y-100000000D01*
X148095000Y-108905000D02*
X149250000Y-107750000D01*
X146975000Y-108905000D02*
X148095000Y-108905000D01*
X149135000Y-107635000D02*
X149250000Y-107750000D01*
X146975000Y-107635000D02*
X149135000Y-107635000D01*
X152500000Y-111300000D02*
X152370000Y-111300000D01*
D18*
X149035000Y-114535000D02*
X149400000Y-114170000D01*
X147115000Y-114535000D02*
X149035000Y-114535000D01*
D17*
X152270000Y-111300000D02*
X149400000Y-114170000D01*
X152500000Y-111300000D02*
X152270000Y-111300000D01*
X143405000Y-108905000D02*
X145500000Y-111000000D01*
X142025000Y-108905000D02*
X143405000Y-108905000D01*
D20*
X143297500Y-108905000D02*
X142025000Y-108905000D01*
D17*
X142025000Y-108905000D02*
X143345000Y-108905000D01*
X143000000Y-108905000D02*
X144449992Y-107455008D01*
X142025000Y-108905000D02*
X143000000Y-108905000D01*
X144449990Y-102550010D02*
X147000000Y-100000000D01*
X144449990Y-106331374D02*
X144449990Y-102550010D01*
X144449992Y-106331376D02*
X144449990Y-106331374D01*
X144449992Y-107455008D02*
X144449992Y-106331376D01*
D19*
X144800000Y-115635000D02*
X144800000Y-111700000D01*
X146240000Y-117075000D02*
X144800000Y-115635000D01*
X147115000Y-117075000D02*
X146240000Y-117075000D01*
X144800000Y-111700000D02*
X145500000Y-111000000D01*
D17*
X142559966Y-115805000D02*
X141965000Y-115805000D01*
D19*
X141050000Y-106365000D02*
X140500001Y-106914999D01*
X142025000Y-106365000D02*
X141050000Y-106365000D01*
X144115020Y-112524734D02*
X144115020Y-114359660D01*
X142715300Y-111689980D02*
X143280267Y-111689981D01*
X140500001Y-106914999D02*
X140500001Y-109474681D01*
X143280267Y-111689981D02*
X144115020Y-112524734D01*
X140500001Y-109474681D02*
X142715300Y-111689980D01*
X144115020Y-114359660D02*
X142669680Y-115805000D01*
X142669680Y-115805000D02*
X141965000Y-115805000D01*
X127675000Y-107825000D02*
X127500000Y-108000000D01*
X129600000Y-107825000D02*
X127675000Y-107825000D01*
D17*
X173405000Y-110655000D02*
X173500000Y-110750000D01*
X170975000Y-110655000D02*
X173405000Y-110655000D01*
X173500000Y-110750000D02*
X173500000Y-112750000D01*
D19*
X134287500Y-107175000D02*
X134500000Y-106962500D01*
X132400000Y-107175000D02*
X134287500Y-107175000D01*
D17*
X134500000Y-106962500D02*
X134500000Y-105000000D01*
D19*
X145675010Y-113670268D02*
X145675010Y-115173774D01*
X146080278Y-113265000D02*
X145675010Y-113670268D01*
X147115000Y-113265000D02*
X146080278Y-113265000D01*
X116074990Y-119074990D02*
X116000000Y-119000000D01*
X144000000Y-119074990D02*
X116074990Y-119074990D01*
D17*
X134000000Y-100000000D02*
X132500000Y-101500000D01*
X132500000Y-106349990D02*
X132400000Y-106449990D01*
X132500000Y-101500000D02*
X132500000Y-106349990D01*
D21*
X169361928Y-106695000D02*
X169361928Y-106995000D01*
X169377071Y-107148745D01*
X169421916Y-107296582D01*
X169493730Y-107430936D01*
X169469463Y-107460506D01*
X169410498Y-107570820D01*
X169374188Y-107690518D01*
X169361928Y-107815000D01*
X169365000Y-107829250D01*
X169523750Y-107988000D01*
X170848000Y-107988000D01*
X170848000Y-107968000D01*
X171102000Y-107968000D01*
X171102000Y-107988000D01*
X171122000Y-107988000D01*
X171122000Y-108242000D01*
X171102000Y-108242000D01*
X171102000Y-109258000D01*
X171122000Y-109258000D01*
X171122000Y-109512000D01*
X171102000Y-109512000D01*
X171102000Y-109532000D01*
X170848000Y-109532000D01*
X170848000Y-109512000D01*
X169523750Y-109512000D01*
X169365000Y-109670750D01*
X169361928Y-109685000D01*
X169374188Y-109809482D01*
X169410498Y-109929180D01*
X169469463Y-110039494D01*
X169493730Y-110069064D01*
X169421916Y-110203418D01*
X169377071Y-110351255D01*
X169361928Y-110505000D01*
X169361928Y-110805000D01*
X169377071Y-110958745D01*
X169421916Y-111106582D01*
X169430692Y-111123000D01*
X167569308Y-111123000D01*
X167578084Y-111106582D01*
X167622929Y-110958745D01*
X167638072Y-110805000D01*
X167638072Y-110505000D01*
X167622929Y-110351255D01*
X167578084Y-110203418D01*
X167506270Y-110069064D01*
X167530537Y-110039494D01*
X167589502Y-109929180D01*
X167625812Y-109809482D01*
X167638072Y-109685000D01*
X167635000Y-109670750D01*
X167476250Y-109512000D01*
X166152000Y-109512000D01*
X166152000Y-109532000D01*
X165898000Y-109532000D01*
X165898000Y-109512000D01*
X165878000Y-109512000D01*
X165878000Y-109258000D01*
X165898000Y-109258000D01*
X165898000Y-108242000D01*
X166152000Y-108242000D01*
X166152000Y-109258000D01*
X167476250Y-109258000D01*
X167635000Y-109099250D01*
X167638072Y-109085000D01*
X167625812Y-108960518D01*
X167589502Y-108840820D01*
X167540957Y-108750000D01*
X167589502Y-108659180D01*
X167625812Y-108539482D01*
X167638072Y-108415000D01*
X169361928Y-108415000D01*
X169374188Y-108539482D01*
X169410498Y-108659180D01*
X169459043Y-108750000D01*
X169410498Y-108840820D01*
X169374188Y-108960518D01*
X169361928Y-109085000D01*
X169365000Y-109099250D01*
X169523750Y-109258000D01*
X170848000Y-109258000D01*
X170848000Y-108242000D01*
X169523750Y-108242000D01*
X169365000Y-108400750D01*
X169361928Y-108415000D01*
X167638072Y-108415000D01*
X167635000Y-108400750D01*
X167476250Y-108242000D01*
X166152000Y-108242000D01*
X165898000Y-108242000D01*
X165878000Y-108242000D01*
X165878000Y-107988000D01*
X165898000Y-107988000D01*
X165898000Y-107968000D01*
X166152000Y-107968000D01*
X166152000Y-107988000D01*
X167476250Y-107988000D01*
X167635000Y-107829250D01*
X167638072Y-107815000D01*
X167625812Y-107690518D01*
X167589502Y-107570820D01*
X167530537Y-107460506D01*
X167506270Y-107430936D01*
X167578084Y-107296582D01*
X167622929Y-107148745D01*
X167638072Y-106995000D01*
X167638072Y-106695000D01*
X167631374Y-106627000D01*
X169368626Y-106627000D01*
X169361928Y-106695000D01*
G04 #@! TA.AperFunction,Conductor*
D22*
G36*
X169361928Y-106695000D02*
G01*
X169361928Y-106995000D01*
X169377071Y-107148745D01*
X169421916Y-107296582D01*
X169493730Y-107430936D01*
X169469463Y-107460506D01*
X169410498Y-107570820D01*
X169374188Y-107690518D01*
X169361928Y-107815000D01*
X169365000Y-107829250D01*
X169523750Y-107988000D01*
X170848000Y-107988000D01*
X170848000Y-107968000D01*
X171102000Y-107968000D01*
X171102000Y-107988000D01*
X171122000Y-107988000D01*
X171122000Y-108242000D01*
X171102000Y-108242000D01*
X171102000Y-109258000D01*
X171122000Y-109258000D01*
X171122000Y-109512000D01*
X171102000Y-109512000D01*
X171102000Y-109532000D01*
X170848000Y-109532000D01*
X170848000Y-109512000D01*
X169523750Y-109512000D01*
X169365000Y-109670750D01*
X169361928Y-109685000D01*
X169374188Y-109809482D01*
X169410498Y-109929180D01*
X169469463Y-110039494D01*
X169493730Y-110069064D01*
X169421916Y-110203418D01*
X169377071Y-110351255D01*
X169361928Y-110505000D01*
X169361928Y-110805000D01*
X169377071Y-110958745D01*
X169421916Y-111106582D01*
X169430692Y-111123000D01*
X167569308Y-111123000D01*
X167578084Y-111106582D01*
X167622929Y-110958745D01*
X167638072Y-110805000D01*
X167638072Y-110505000D01*
X167622929Y-110351255D01*
X167578084Y-110203418D01*
X167506270Y-110069064D01*
X167530537Y-110039494D01*
X167589502Y-109929180D01*
X167625812Y-109809482D01*
X167638072Y-109685000D01*
X167635000Y-109670750D01*
X167476250Y-109512000D01*
X166152000Y-109512000D01*
X166152000Y-109532000D01*
X165898000Y-109532000D01*
X165898000Y-109512000D01*
X165878000Y-109512000D01*
X165878000Y-109258000D01*
X165898000Y-109258000D01*
X165898000Y-108242000D01*
X166152000Y-108242000D01*
X166152000Y-109258000D01*
X167476250Y-109258000D01*
X167635000Y-109099250D01*
X167638072Y-109085000D01*
X167625812Y-108960518D01*
X167589502Y-108840820D01*
X167540957Y-108750000D01*
X167589502Y-108659180D01*
X167625812Y-108539482D01*
X167638072Y-108415000D01*
X169361928Y-108415000D01*
X169374188Y-108539482D01*
X169410498Y-108659180D01*
X169459043Y-108750000D01*
X169410498Y-108840820D01*
X169374188Y-108960518D01*
X169361928Y-109085000D01*
X169365000Y-109099250D01*
X169523750Y-109258000D01*
X170848000Y-109258000D01*
X170848000Y-108242000D01*
X169523750Y-108242000D01*
X169365000Y-108400750D01*
X169361928Y-108415000D01*
X167638072Y-108415000D01*
X167635000Y-108400750D01*
X167476250Y-108242000D01*
X166152000Y-108242000D01*
X165898000Y-108242000D01*
X165878000Y-108242000D01*
X165878000Y-107988000D01*
X165898000Y-107988000D01*
X165898000Y-107968000D01*
X166152000Y-107968000D01*
X166152000Y-107988000D01*
X167476250Y-107988000D01*
X167635000Y-107829250D01*
X167638072Y-107815000D01*
X167625812Y-107690518D01*
X167589502Y-107570820D01*
X167530537Y-107460506D01*
X167506270Y-107430936D01*
X167578084Y-107296582D01*
X167622929Y-107148745D01*
X167638072Y-106995000D01*
X167638072Y-106695000D01*
X167631374Y-106627000D01*
X169368626Y-106627000D01*
X169361928Y-106695000D01*
G37*
G04 #@! TD.AperFunction*
D21*
X194340001Y-120840000D02*
X105660000Y-120840000D01*
X105660000Y-116353740D01*
X107335000Y-116353740D01*
X107335000Y-116646260D01*
X107392068Y-116933158D01*
X107504010Y-117203411D01*
X107666525Y-117446632D01*
X107873368Y-117653475D01*
X108017828Y-117750000D01*
X107873368Y-117846525D01*
X107666525Y-118053368D01*
X107504010Y-118296589D01*
X107392068Y-118566842D01*
X107335000Y-118853740D01*
X107335000Y-119146260D01*
X107392068Y-119433158D01*
X107504010Y-119703411D01*
X107666525Y-119946632D01*
X107873368Y-120153475D01*
X108116589Y-120315990D01*
X108386842Y-120427932D01*
X108673740Y-120485000D01*
X108966260Y-120485000D01*
X109253158Y-120427932D01*
X109523411Y-120315990D01*
X109766632Y-120153475D01*
X109973475Y-119946632D01*
X110135990Y-119703411D01*
X110247932Y-119433158D01*
X110305000Y-119146260D01*
X110305000Y-118853740D01*
X110247932Y-118566842D01*
X110135990Y-118296589D01*
X109973475Y-118053368D01*
X109766632Y-117846525D01*
X109622172Y-117750000D01*
X109766632Y-117653475D01*
X109973475Y-117446632D01*
X110135990Y-117203411D01*
X110247932Y-116933158D01*
X110305000Y-116646260D01*
X110305000Y-116353740D01*
X110247932Y-116066842D01*
X110135990Y-115796589D01*
X109973475Y-115553368D01*
X109766632Y-115346525D01*
X109523411Y-115184010D01*
X109253158Y-115072068D01*
X108966260Y-115015000D01*
X108673740Y-115015000D01*
X108386842Y-115072068D01*
X108116589Y-115184010D01*
X107873368Y-115346525D01*
X107666525Y-115553368D01*
X107504010Y-115796589D01*
X107392068Y-116066842D01*
X107335000Y-116353740D01*
X105660000Y-116353740D01*
X105660000Y-111353740D01*
X107335000Y-111353740D01*
X107335000Y-111646260D01*
X107392068Y-111933158D01*
X107504010Y-112203411D01*
X107666525Y-112446632D01*
X107873368Y-112653475D01*
X108116589Y-112815990D01*
X108386842Y-112927932D01*
X108673740Y-112985000D01*
X108966260Y-112985000D01*
X109253158Y-112927932D01*
X109523411Y-112815990D01*
X109766632Y-112653475D01*
X109973475Y-112446632D01*
X110038042Y-112350000D01*
X114261928Y-112350000D01*
X114274188Y-112474482D01*
X114310498Y-112594180D01*
X114369463Y-112704494D01*
X114448815Y-112801185D01*
X114545506Y-112880537D01*
X114655820Y-112939502D01*
X114775518Y-112975812D01*
X114900000Y-112988072D01*
X115714250Y-112985000D01*
X115873000Y-112826250D01*
X115873000Y-111627000D01*
X116127000Y-111627000D01*
X116127000Y-112826250D01*
X116285750Y-112985000D01*
X117100000Y-112988072D01*
X117224482Y-112975812D01*
X117344180Y-112939502D01*
X117454494Y-112880537D01*
X117551185Y-112801185D01*
X117630537Y-112704494D01*
X117689502Y-112594180D01*
X117725812Y-112474482D01*
X117738072Y-112350000D01*
X117735000Y-111785750D01*
X117576250Y-111627000D01*
X116127000Y-111627000D01*
X115873000Y-111627000D01*
X114423750Y-111627000D01*
X114265000Y-111785750D01*
X114261928Y-112350000D01*
X110038042Y-112350000D01*
X110135990Y-112203411D01*
X110247932Y-111933158D01*
X110305000Y-111646260D01*
X110305000Y-111353740D01*
X110247932Y-111066842D01*
X110135990Y-110796589D01*
X109973475Y-110553368D01*
X109766632Y-110346525D01*
X109523411Y-110184010D01*
X109253158Y-110072068D01*
X108966260Y-110015000D01*
X108673740Y-110015000D01*
X108386842Y-110072068D01*
X108116589Y-110184010D01*
X107873368Y-110346525D01*
X107666525Y-110553368D01*
X107504010Y-110796589D01*
X107392068Y-111066842D01*
X107335000Y-111353740D01*
X105660000Y-111353740D01*
X105660000Y-106353740D01*
X107335000Y-106353740D01*
X107335000Y-106646260D01*
X107392068Y-106933158D01*
X107504010Y-107203411D01*
X107666525Y-107446632D01*
X107873368Y-107653475D01*
X108116589Y-107815990D01*
X108386842Y-107927932D01*
X108673740Y-107985000D01*
X108966260Y-107985000D01*
X109253158Y-107927932D01*
X109523411Y-107815990D01*
X109766632Y-107653475D01*
X109973475Y-107446632D01*
X110135990Y-107203411D01*
X110247932Y-106933158D01*
X110305000Y-106646260D01*
X110305000Y-106500000D01*
X114257815Y-106500000D01*
X114286487Y-106791111D01*
X114371401Y-107071034D01*
X114509294Y-107329014D01*
X114694866Y-107555134D01*
X114920986Y-107740706D01*
X114938374Y-107750000D01*
X114920986Y-107759294D01*
X114694866Y-107944866D01*
X114509294Y-108170986D01*
X114371401Y-108428966D01*
X114286487Y-108708889D01*
X114257815Y-109000000D01*
X114286487Y-109291111D01*
X114371401Y-109571034D01*
X114509294Y-109829014D01*
X114690608Y-110049945D01*
X114655820Y-110060498D01*
X114545506Y-110119463D01*
X114448815Y-110198815D01*
X114369463Y-110295506D01*
X114310498Y-110405820D01*
X114274188Y-110525518D01*
X114261928Y-110650000D01*
X114265000Y-111214250D01*
X114423750Y-111373000D01*
X115873000Y-111373000D01*
X115873000Y-111353000D01*
X116127000Y-111353000D01*
X116127000Y-111373000D01*
X117576250Y-111373000D01*
X117735000Y-111214250D01*
X117738072Y-110650000D01*
X117725812Y-110525518D01*
X117689502Y-110405820D01*
X117630537Y-110295506D01*
X117551185Y-110198815D01*
X117454494Y-110119463D01*
X117344180Y-110060498D01*
X117309392Y-110049945D01*
X117444759Y-109885000D01*
X118956531Y-109885000D01*
X119000000Y-109889281D01*
X119043469Y-109885000D01*
X121133422Y-109885000D01*
X123018480Y-111770059D01*
X123046193Y-111803827D01*
X123079961Y-111831540D01*
X123079963Y-111831542D01*
X123079968Y-111831546D01*
X126115001Y-114866580D01*
X126115001Y-115624940D01*
X125957748Y-115730013D01*
X125730013Y-115957748D01*
X125551082Y-116225537D01*
X125427832Y-116523088D01*
X125365000Y-116838967D01*
X125365000Y-117161033D01*
X125427832Y-117476912D01*
X125551082Y-117774463D01*
X125730013Y-118042252D01*
X125952751Y-118264990D01*
X124408876Y-118264990D01*
X124455808Y-118135413D01*
X123500000Y-117179605D01*
X122544192Y-118135413D01*
X122591124Y-118264990D01*
X117724775Y-118264990D01*
X117721008Y-118226746D01*
X117670472Y-118060150D01*
X117588405Y-117906614D01*
X117477962Y-117772038D01*
X117343386Y-117661595D01*
X117241663Y-117607223D01*
X117305134Y-117555134D01*
X117490706Y-117329014D01*
X117628599Y-117071034D01*
X117631158Y-117062595D01*
X121858282Y-117062595D01*
X121902039Y-117381675D01*
X122007205Y-117686088D01*
X122100186Y-117860044D01*
X122364587Y-117955808D01*
X123320395Y-117000000D01*
X123679605Y-117000000D01*
X124635413Y-117955808D01*
X124899814Y-117860044D01*
X125040704Y-117570429D01*
X125122384Y-117258892D01*
X125141718Y-116937405D01*
X125097961Y-116618325D01*
X124992795Y-116313912D01*
X124899814Y-116139956D01*
X124635413Y-116044192D01*
X123679605Y-117000000D01*
X123320395Y-117000000D01*
X122364587Y-116044192D01*
X122100186Y-116139956D01*
X121959296Y-116429571D01*
X121877616Y-116741108D01*
X121858282Y-117062595D01*
X117631158Y-117062595D01*
X117713513Y-116791111D01*
X117742185Y-116500000D01*
X117713513Y-116208889D01*
X117628599Y-115928966D01*
X117594188Y-115864587D01*
X122544192Y-115864587D01*
X123500000Y-116820395D01*
X124455808Y-115864587D01*
X124360044Y-115600186D01*
X124070429Y-115459296D01*
X123758892Y-115377616D01*
X123437405Y-115358282D01*
X123118325Y-115402039D01*
X122813912Y-115507205D01*
X122639956Y-115600186D01*
X122544192Y-115864587D01*
X117594188Y-115864587D01*
X117490706Y-115670986D01*
X117305134Y-115444866D01*
X117079014Y-115259294D01*
X116821034Y-115121401D01*
X116541111Y-115036487D01*
X116322950Y-115015000D01*
X115677050Y-115015000D01*
X115458889Y-115036487D01*
X115178966Y-115121401D01*
X114920986Y-115259294D01*
X114694866Y-115444866D01*
X114509294Y-115670986D01*
X114371401Y-115928966D01*
X114286487Y-116208889D01*
X114257815Y-116500000D01*
X114286487Y-116791111D01*
X114371401Y-117071034D01*
X114509294Y-117329014D01*
X114694866Y-117555134D01*
X114758337Y-117607223D01*
X114656614Y-117661595D01*
X114522038Y-117772038D01*
X114411595Y-117906614D01*
X114329528Y-118060150D01*
X114278992Y-118226746D01*
X114261928Y-118400000D01*
X114261928Y-119600000D01*
X114278992Y-119773254D01*
X114329528Y-119939850D01*
X114411595Y-120093386D01*
X114522038Y-120227962D01*
X114656614Y-120338405D01*
X114810150Y-120420472D01*
X114976746Y-120471008D01*
X115150000Y-120488072D01*
X116850000Y-120488072D01*
X117023254Y-120471008D01*
X117189850Y-120420472D01*
X117343386Y-120338405D01*
X117477962Y-120227962D01*
X117588405Y-120093386D01*
X117670472Y-119939850D01*
X117687113Y-119884990D01*
X143349300Y-119884990D01*
X143509744Y-119992195D01*
X143698102Y-120070216D01*
X143898061Y-120109990D01*
X144101939Y-120109990D01*
X144301898Y-120070216D01*
X144490256Y-119992195D01*
X144659774Y-119878927D01*
X144803937Y-119734764D01*
X144864615Y-119643952D01*
X144879941Y-119656530D01*
X144879943Y-119656532D01*
X144921638Y-119690750D01*
X144980931Y-119739411D01*
X145134677Y-119821589D01*
X145301500Y-119872195D01*
X145431513Y-119885000D01*
X145431521Y-119885000D01*
X145457903Y-119887598D01*
X145466736Y-119888468D01*
X145509744Y-119917205D01*
X145698102Y-119995226D01*
X145898061Y-120035000D01*
X146101939Y-120035000D01*
X146301898Y-119995226D01*
X146382988Y-119961637D01*
X146386595Y-119968386D01*
X146497038Y-120102962D01*
X146631614Y-120213405D01*
X146785150Y-120295472D01*
X146951746Y-120346008D01*
X147125000Y-120363072D01*
X147800000Y-120363072D01*
X147973254Y-120346008D01*
X148139850Y-120295472D01*
X148293386Y-120213405D01*
X148427962Y-120102962D01*
X148433342Y-120096406D01*
X148498815Y-120176185D01*
X148595506Y-120255537D01*
X148705820Y-120314502D01*
X148825518Y-120350812D01*
X148950000Y-120363072D01*
X149251750Y-120360000D01*
X149410500Y-120201250D01*
X149410500Y-119127000D01*
X149664500Y-119127000D01*
X149664500Y-120201250D01*
X149823250Y-120360000D01*
X150125000Y-120363072D01*
X150249482Y-120350812D01*
X150369180Y-120314502D01*
X150479494Y-120255537D01*
X150576185Y-120176185D01*
X150655537Y-120079494D01*
X150714502Y-119969180D01*
X150750812Y-119849482D01*
X150763072Y-119725000D01*
X150762933Y-119705000D01*
X164411928Y-119705000D01*
X164424188Y-119829482D01*
X164460498Y-119949180D01*
X164519463Y-120059494D01*
X164598815Y-120156185D01*
X164695506Y-120235537D01*
X164805820Y-120294502D01*
X164925518Y-120330812D01*
X165050000Y-120343072D01*
X165739250Y-120340000D01*
X165898000Y-120181250D01*
X165898000Y-119532000D01*
X164573750Y-119532000D01*
X164415000Y-119690750D01*
X164411928Y-119705000D01*
X150762933Y-119705000D01*
X150760000Y-119285750D01*
X150601250Y-119127000D01*
X149664500Y-119127000D01*
X149410500Y-119127000D01*
X149390500Y-119127000D01*
X149390500Y-118873000D01*
X149410500Y-118873000D01*
X149410500Y-117798750D01*
X149664500Y-117798750D01*
X149664500Y-118873000D01*
X150601250Y-118873000D01*
X150760000Y-118714250D01*
X150763072Y-118275000D01*
X150750812Y-118150518D01*
X150714502Y-118030820D01*
X150655537Y-117920506D01*
X150576185Y-117823815D01*
X150479494Y-117744463D01*
X150369180Y-117685498D01*
X150249482Y-117649188D01*
X150125000Y-117636928D01*
X149823250Y-117640000D01*
X149664500Y-117798750D01*
X149410500Y-117798750D01*
X149251750Y-117640000D01*
X148950000Y-117636928D01*
X148825518Y-117649188D01*
X148705820Y-117685498D01*
X148595506Y-117744463D01*
X148498815Y-117823815D01*
X148433342Y-117903594D01*
X148427962Y-117897038D01*
X148342672Y-117827043D01*
X148397251Y-117782251D01*
X148495258Y-117662829D01*
X148568084Y-117526582D01*
X148606817Y-117398895D01*
X148700000Y-117408072D01*
X149114250Y-117405000D01*
X149273000Y-117246250D01*
X149273000Y-116297000D01*
X149527000Y-116297000D01*
X149527000Y-117246250D01*
X149685750Y-117405000D01*
X150100000Y-117408072D01*
X150224482Y-117395812D01*
X150344180Y-117359502D01*
X150454494Y-117300537D01*
X150551185Y-117221185D01*
X150630537Y-117124494D01*
X150689502Y-117014180D01*
X150725812Y-116894482D01*
X150738072Y-116770000D01*
X150735000Y-116455750D01*
X150618217Y-116338967D01*
X154865000Y-116338967D01*
X154865000Y-116661033D01*
X154927832Y-116976912D01*
X155051082Y-117274463D01*
X155230013Y-117542252D01*
X155457748Y-117769987D01*
X155725537Y-117948918D01*
X156023088Y-118072168D01*
X156338967Y-118135000D01*
X156661033Y-118135000D01*
X156976912Y-118072168D01*
X157274463Y-117948918D01*
X157350575Y-117898061D01*
X160715000Y-117898061D01*
X160715000Y-118101939D01*
X160754774Y-118301898D01*
X160832795Y-118490256D01*
X160946063Y-118659774D01*
X161090226Y-118803937D01*
X161259744Y-118917205D01*
X161448102Y-118995226D01*
X161648061Y-119035000D01*
X161851939Y-119035000D01*
X162051898Y-118995226D01*
X162240256Y-118917205D01*
X162288454Y-118885000D01*
X162300230Y-118885000D01*
X162397038Y-119002962D01*
X162531614Y-119113405D01*
X162685150Y-119195472D01*
X162851746Y-119246008D01*
X163025000Y-119263072D01*
X163975000Y-119263072D01*
X164148254Y-119246008D01*
X164314850Y-119195472D01*
X164429787Y-119134037D01*
X164573750Y-119278000D01*
X164647245Y-119278000D01*
X164756996Y-119336664D01*
X164876118Y-119372799D01*
X165000000Y-119385000D01*
X166172000Y-119385000D01*
X166172000Y-119532000D01*
X166152000Y-119532000D01*
X166152000Y-120181250D01*
X166310750Y-120340000D01*
X166716148Y-120341807D01*
X166722017Y-120352787D01*
X166800987Y-120449013D01*
X166897213Y-120527983D01*
X167006996Y-120586664D01*
X167126118Y-120622799D01*
X167250000Y-120635000D01*
X171750000Y-120635000D01*
X171873882Y-120622799D01*
X171993004Y-120586664D01*
X172102787Y-120527983D01*
X172199013Y-120449013D01*
X172277983Y-120352787D01*
X172311544Y-120290000D01*
X172826289Y-120290000D01*
X172840226Y-120303937D01*
X173009744Y-120417205D01*
X173198102Y-120495226D01*
X173398061Y-120535000D01*
X173601939Y-120535000D01*
X173801898Y-120495226D01*
X173990256Y-120417205D01*
X174159774Y-120303937D01*
X174303937Y-120159774D01*
X174417205Y-119990256D01*
X174495226Y-119801898D01*
X174535000Y-119601939D01*
X174535000Y-119398061D01*
X174495226Y-119198102D01*
X174461637Y-119117012D01*
X174468386Y-119113405D01*
X174602962Y-119002962D01*
X174713405Y-118868386D01*
X174795472Y-118714850D01*
X174846008Y-118548254D01*
X174863072Y-118375000D01*
X174863072Y-117700000D01*
X174846008Y-117526746D01*
X174795472Y-117360150D01*
X174713405Y-117206614D01*
X174602962Y-117072038D01*
X174515183Y-117000000D01*
X174602962Y-116927962D01*
X174668995Y-116847500D01*
X175095922Y-116847500D01*
X175615000Y-117366579D01*
X175615000Y-117624940D01*
X175457748Y-117730013D01*
X175230013Y-117957748D01*
X175051082Y-118225537D01*
X174927832Y-118523088D01*
X174865000Y-118838967D01*
X174865000Y-119161033D01*
X174927832Y-119476912D01*
X175051082Y-119774463D01*
X175230013Y-120042252D01*
X175457748Y-120269987D01*
X175725537Y-120448918D01*
X176023088Y-120572168D01*
X176338967Y-120635000D01*
X176661033Y-120635000D01*
X176976912Y-120572168D01*
X177274463Y-120448918D01*
X177542252Y-120269987D01*
X177769987Y-120042252D01*
X177948918Y-119774463D01*
X178072168Y-119476912D01*
X178135000Y-119161033D01*
X178135000Y-118838967D01*
X178072168Y-118523088D01*
X177948918Y-118225537D01*
X177769987Y-117957748D01*
X177542252Y-117730013D01*
X177385000Y-117624941D01*
X177385000Y-117043469D01*
X177389281Y-117000000D01*
X177385000Y-116956531D01*
X177385000Y-116956523D01*
X177374262Y-116847500D01*
X182261928Y-116847500D01*
X182261928Y-117100000D01*
X182278992Y-117273254D01*
X182329528Y-117439850D01*
X182411595Y-117593386D01*
X182522038Y-117727962D01*
X182656614Y-117838405D01*
X182758337Y-117892777D01*
X182694866Y-117944866D01*
X182509294Y-118170986D01*
X182371401Y-118428966D01*
X182286487Y-118708889D01*
X182257815Y-119000000D01*
X182286487Y-119291111D01*
X182371401Y-119571034D01*
X182509294Y-119829014D01*
X182694866Y-120055134D01*
X182920986Y-120240706D01*
X183178966Y-120378599D01*
X183458889Y-120463513D01*
X183677050Y-120485000D01*
X184322950Y-120485000D01*
X184541111Y-120463513D01*
X184821034Y-120378599D01*
X185079014Y-120240706D01*
X185305134Y-120055134D01*
X185490706Y-119829014D01*
X185628599Y-119571034D01*
X185713513Y-119291111D01*
X185742185Y-119000000D01*
X185713513Y-118708889D01*
X185628599Y-118428966D01*
X185490706Y-118170986D01*
X185305134Y-117944866D01*
X185241663Y-117892777D01*
X185343386Y-117838405D01*
X185477962Y-117727962D01*
X185588405Y-117593386D01*
X185670472Y-117439850D01*
X185721008Y-117273254D01*
X185738072Y-117100000D01*
X185738072Y-116353740D01*
X189695000Y-116353740D01*
X189695000Y-116646260D01*
X189752068Y-116933158D01*
X189864010Y-117203411D01*
X190026525Y-117446632D01*
X190233368Y-117653475D01*
X190377828Y-117750000D01*
X190233368Y-117846525D01*
X190026525Y-118053368D01*
X189864010Y-118296589D01*
X189752068Y-118566842D01*
X189695000Y-118853740D01*
X189695000Y-119146260D01*
X189752068Y-119433158D01*
X189864010Y-119703411D01*
X190026525Y-119946632D01*
X190233368Y-120153475D01*
X190476589Y-120315990D01*
X190746842Y-120427932D01*
X191033740Y-120485000D01*
X191326260Y-120485000D01*
X191613158Y-120427932D01*
X191883411Y-120315990D01*
X192126632Y-120153475D01*
X192333475Y-119946632D01*
X192495990Y-119703411D01*
X192607932Y-119433158D01*
X192665000Y-119146260D01*
X192665000Y-118853740D01*
X192607932Y-118566842D01*
X192495990Y-118296589D01*
X192333475Y-118053368D01*
X192126632Y-117846525D01*
X191982172Y-117750000D01*
X192126632Y-117653475D01*
X192333475Y-117446632D01*
X192495990Y-117203411D01*
X192607932Y-116933158D01*
X192665000Y-116646260D01*
X192665000Y-116353740D01*
X192607932Y-116066842D01*
X192495990Y-115796589D01*
X192333475Y-115553368D01*
X192126632Y-115346525D01*
X191883411Y-115184010D01*
X191613158Y-115072068D01*
X191326260Y-115015000D01*
X191033740Y-115015000D01*
X190746842Y-115072068D01*
X190476589Y-115184010D01*
X190233368Y-115346525D01*
X190026525Y-115553368D01*
X189864010Y-115796589D01*
X189752068Y-116066842D01*
X189695000Y-116353740D01*
X185738072Y-116353740D01*
X185738072Y-115900000D01*
X185721008Y-115726746D01*
X185670472Y-115560150D01*
X185588405Y-115406614D01*
X185477962Y-115272038D01*
X185343386Y-115161595D01*
X185189850Y-115079528D01*
X185023254Y-115028992D01*
X184850000Y-115011928D01*
X183150000Y-115011928D01*
X182976746Y-115028992D01*
X182816835Y-115077500D01*
X175505969Y-115077500D01*
X175462500Y-115073219D01*
X175419031Y-115077500D01*
X174668995Y-115077500D01*
X174602962Y-114997038D01*
X174468386Y-114886595D01*
X174314850Y-114804528D01*
X174148254Y-114753992D01*
X173975000Y-114736928D01*
X173352547Y-114736928D01*
X173305990Y-114722805D01*
X173175977Y-114710000D01*
X173175969Y-114710000D01*
X173132500Y-114705719D01*
X173089031Y-114710000D01*
X172078783Y-114710000D01*
X171953745Y-114672071D01*
X171800000Y-114656928D01*
X170150000Y-114656928D01*
X170007309Y-114670982D01*
X169993004Y-114663336D01*
X169873882Y-114627201D01*
X169750000Y-114615000D01*
X169538454Y-114615000D01*
X169490256Y-114582795D01*
X169301898Y-114504774D01*
X169101939Y-114465000D01*
X168898061Y-114465000D01*
X168698102Y-114504774D01*
X168509744Y-114582795D01*
X168500000Y-114589306D01*
X168490256Y-114582795D01*
X168301898Y-114504774D01*
X168101939Y-114465000D01*
X167898061Y-114465000D01*
X167698102Y-114504774D01*
X167509744Y-114582795D01*
X167461546Y-114615000D01*
X167250000Y-114615000D01*
X167126118Y-114627201D01*
X167021228Y-114659019D01*
X167000000Y-114656928D01*
X166310750Y-114660000D01*
X166152000Y-114818750D01*
X166152000Y-115468000D01*
X166172000Y-115468000D01*
X166172000Y-115615000D01*
X165878000Y-115615000D01*
X165878000Y-115468000D01*
X165898000Y-115468000D01*
X165898000Y-114818750D01*
X165739250Y-114660000D01*
X165050000Y-114656928D01*
X164925518Y-114669188D01*
X164805820Y-114705498D01*
X164695506Y-114764463D01*
X164598815Y-114843815D01*
X164590721Y-114853677D01*
X164579494Y-114844463D01*
X164469180Y-114785498D01*
X164349482Y-114749188D01*
X164225000Y-114736928D01*
X163785750Y-114740000D01*
X163627000Y-114898750D01*
X163627000Y-115835500D01*
X163647000Y-115835500D01*
X163647000Y-116089500D01*
X163627000Y-116089500D01*
X163627000Y-116109500D01*
X163373000Y-116109500D01*
X163373000Y-116089500D01*
X162298750Y-116089500D01*
X162140000Y-116248250D01*
X162136928Y-116550000D01*
X162149188Y-116674482D01*
X162185498Y-116794180D01*
X162244463Y-116904494D01*
X162323815Y-117001185D01*
X162403594Y-117066658D01*
X162397038Y-117072038D01*
X162361780Y-117115000D01*
X162288454Y-117115000D01*
X162240256Y-117082795D01*
X162051898Y-117004774D01*
X161851939Y-116965000D01*
X161648061Y-116965000D01*
X161448102Y-117004774D01*
X161259744Y-117082795D01*
X161090226Y-117196063D01*
X160946063Y-117340226D01*
X160832795Y-117509744D01*
X160754774Y-117698102D01*
X160715000Y-117898061D01*
X157350575Y-117898061D01*
X157542252Y-117769987D01*
X157769987Y-117542252D01*
X157948918Y-117274463D01*
X158072168Y-116976912D01*
X158135000Y-116661033D01*
X158135000Y-116338967D01*
X158072168Y-116023088D01*
X157948918Y-115725537D01*
X157809886Y-115517461D01*
X157898061Y-115535000D01*
X158101939Y-115535000D01*
X158301898Y-115495226D01*
X158490256Y-115417205D01*
X158500000Y-115410694D01*
X158509744Y-115417205D01*
X158698102Y-115495226D01*
X158898061Y-115535000D01*
X159101939Y-115535000D01*
X159301898Y-115495226D01*
X159490256Y-115417205D01*
X159500000Y-115410694D01*
X159509744Y-115417205D01*
X159698102Y-115495226D01*
X159898061Y-115535000D01*
X160101939Y-115535000D01*
X160301898Y-115495226D01*
X160490256Y-115417205D01*
X160553420Y-115375000D01*
X162136928Y-115375000D01*
X162140000Y-115676750D01*
X162298750Y-115835500D01*
X163373000Y-115835500D01*
X163373000Y-114898750D01*
X163214250Y-114740000D01*
X162775000Y-114736928D01*
X162650518Y-114749188D01*
X162530820Y-114785498D01*
X162420506Y-114844463D01*
X162323815Y-114923815D01*
X162244463Y-115020506D01*
X162185498Y-115130820D01*
X162149188Y-115250518D01*
X162136928Y-115375000D01*
X160553420Y-115375000D01*
X160659774Y-115303937D01*
X160803937Y-115159774D01*
X160917205Y-114990256D01*
X160995226Y-114801898D01*
X161035000Y-114601939D01*
X161035000Y-114398061D01*
X160995226Y-114198102D01*
X160917205Y-114009744D01*
X160885000Y-113961546D01*
X160885000Y-112743469D01*
X160889281Y-112700000D01*
X160885000Y-112656531D01*
X160885000Y-112656523D01*
X160872195Y-112526510D01*
X160836452Y-112408683D01*
X160821589Y-112359686D01*
X160788072Y-112296980D01*
X160788072Y-110955000D01*
X164411928Y-110955000D01*
X164424188Y-111079482D01*
X164460498Y-111199180D01*
X164519463Y-111309494D01*
X164598815Y-111406185D01*
X164695506Y-111485537D01*
X164805820Y-111544502D01*
X164925518Y-111580812D01*
X165050000Y-111593072D01*
X165739250Y-111590000D01*
X165898000Y-111431250D01*
X165898000Y-110782000D01*
X164573750Y-110782000D01*
X164415000Y-110940750D01*
X164411928Y-110955000D01*
X160788072Y-110955000D01*
X160788072Y-109950000D01*
X160775812Y-109825518D01*
X160739502Y-109705820D01*
X160680537Y-109595506D01*
X160601185Y-109498815D01*
X160504494Y-109419463D01*
X160394180Y-109360498D01*
X160274482Y-109324188D01*
X160150000Y-109311928D01*
X157850000Y-109311928D01*
X157725518Y-109324188D01*
X157605820Y-109360498D01*
X157495506Y-109419463D01*
X157398815Y-109498815D01*
X157319463Y-109595506D01*
X157260498Y-109705820D01*
X157224188Y-109825518D01*
X157211928Y-109950000D01*
X157211928Y-112296982D01*
X157178412Y-112359687D01*
X157127805Y-112526510D01*
X157110719Y-112700000D01*
X157115001Y-112743479D01*
X157115000Y-113624014D01*
X157076510Y-113627805D01*
X156909687Y-113678411D01*
X156755941Y-113760589D01*
X156738381Y-113775000D01*
X156654953Y-113843468D01*
X156654951Y-113843470D01*
X156621183Y-113871183D01*
X156593470Y-113904951D01*
X155904956Y-114593466D01*
X155871183Y-114621183D01*
X155760589Y-114755942D01*
X155678411Y-114909688D01*
X155644794Y-115020506D01*
X155628804Y-115073219D01*
X155627805Y-115076511D01*
X155623601Y-115119193D01*
X155457748Y-115230013D01*
X155230013Y-115457748D01*
X155051082Y-115725537D01*
X154927832Y-116023088D01*
X154865000Y-116338967D01*
X150618217Y-116338967D01*
X150576250Y-116297000D01*
X149527000Y-116297000D01*
X149273000Y-116297000D01*
X149253000Y-116297000D01*
X149253000Y-116043000D01*
X149273000Y-116043000D01*
X149273000Y-116023000D01*
X149527000Y-116023000D01*
X149527000Y-116043000D01*
X150576250Y-116043000D01*
X150735000Y-115884250D01*
X150738072Y-115570000D01*
X150725812Y-115445518D01*
X150689502Y-115325820D01*
X150630537Y-115215506D01*
X150551185Y-115118815D01*
X150521724Y-115094637D01*
X150588405Y-115013387D01*
X150670472Y-114859851D01*
X150721008Y-114693255D01*
X150738072Y-114520001D01*
X150738072Y-114083506D01*
X151333506Y-113488072D01*
X154300000Y-113488072D01*
X154424482Y-113475812D01*
X154544180Y-113439502D01*
X154654494Y-113380537D01*
X154751185Y-113301185D01*
X154830537Y-113204494D01*
X154889502Y-113094180D01*
X154925812Y-112974482D01*
X154938072Y-112850000D01*
X154938072Y-109750000D01*
X154925812Y-109625518D01*
X154889502Y-109505820D01*
X154830537Y-109395506D01*
X154751185Y-109298815D01*
X154654494Y-109219463D01*
X154544180Y-109160498D01*
X154424482Y-109124188D01*
X154300000Y-109111928D01*
X150700000Y-109111928D01*
X150575518Y-109124188D01*
X150455820Y-109160498D01*
X150345506Y-109219463D01*
X150248815Y-109298815D01*
X150169463Y-109395506D01*
X150110498Y-109505820D01*
X150074188Y-109625518D01*
X150061928Y-109750000D01*
X150061928Y-112256494D01*
X149386494Y-112931928D01*
X148949999Y-112931928D01*
X148776745Y-112948992D01*
X148616509Y-112997599D01*
X148612929Y-112961255D01*
X148568084Y-112813418D01*
X148495258Y-112677171D01*
X148397251Y-112557749D01*
X148277829Y-112459742D01*
X148141582Y-112386916D01*
X147993745Y-112342071D01*
X147901573Y-112332993D01*
X148023255Y-112321008D01*
X148189851Y-112270472D01*
X148343387Y-112188405D01*
X148477962Y-112077962D01*
X148588405Y-111943387D01*
X148670472Y-111789851D01*
X148721008Y-111623255D01*
X148738072Y-111450001D01*
X148738072Y-110549999D01*
X148721008Y-110376745D01*
X148670472Y-110210149D01*
X148588405Y-110056613D01*
X148477962Y-109922038D01*
X148385000Y-109845746D01*
X148385000Y-109741852D01*
X148435313Y-109726589D01*
X148589059Y-109644411D01*
X148723817Y-109533817D01*
X148751534Y-109500044D01*
X149495044Y-108756535D01*
X149551898Y-108745226D01*
X149740256Y-108667205D01*
X149909774Y-108553937D01*
X150053937Y-108409774D01*
X150167205Y-108240256D01*
X150245226Y-108051898D01*
X150285000Y-107851939D01*
X150285000Y-107730881D01*
X150345506Y-107780537D01*
X150455820Y-107839502D01*
X150575518Y-107875812D01*
X150700000Y-107888072D01*
X154300000Y-107888072D01*
X154424482Y-107875812D01*
X154544180Y-107839502D01*
X154654494Y-107780537D01*
X154751185Y-107701185D01*
X154830537Y-107604494D01*
X154889502Y-107494180D01*
X154925812Y-107374482D01*
X154938072Y-107250000D01*
X154938072Y-107185000D01*
X157211928Y-107185000D01*
X157211928Y-108050000D01*
X157224188Y-108174482D01*
X157260498Y-108294180D01*
X157319463Y-108404494D01*
X157398815Y-108501185D01*
X157495506Y-108580537D01*
X157605820Y-108639502D01*
X157725518Y-108675812D01*
X157850000Y-108688072D01*
X160150000Y-108688072D01*
X160274482Y-108675812D01*
X160394180Y-108639502D01*
X160504494Y-108580537D01*
X160601185Y-108501185D01*
X160680537Y-108404494D01*
X160739502Y-108294180D01*
X160775812Y-108174482D01*
X160788072Y-108050000D01*
X160788072Y-107650000D01*
X162136928Y-107650000D01*
X162149188Y-107774482D01*
X162185498Y-107894180D01*
X162244463Y-108004494D01*
X162323815Y-108101185D01*
X162403594Y-108166658D01*
X162397038Y-108172038D01*
X162286595Y-108306614D01*
X162204528Y-108460150D01*
X162153992Y-108626746D01*
X162136928Y-108800000D01*
X162136928Y-109475000D01*
X162153992Y-109648254D01*
X162204528Y-109814850D01*
X162286595Y-109968386D01*
X162397038Y-110102962D01*
X162531614Y-110213405D01*
X162685150Y-110295472D01*
X162851746Y-110346008D01*
X163025000Y-110363072D01*
X163975000Y-110363072D01*
X164148254Y-110346008D01*
X164314850Y-110295472D01*
X164362505Y-110270000D01*
X164420299Y-110270000D01*
X164411928Y-110355000D01*
X164415000Y-110369250D01*
X164573750Y-110528000D01*
X164647245Y-110528000D01*
X164756996Y-110586664D01*
X164876118Y-110622799D01*
X165000000Y-110635000D01*
X166172000Y-110635000D01*
X166172000Y-110782000D01*
X166152000Y-110782000D01*
X166152000Y-111431250D01*
X166310750Y-111590000D01*
X166716148Y-111591807D01*
X166722017Y-111602787D01*
X166800987Y-111699013D01*
X166897213Y-111777983D01*
X167006996Y-111836664D01*
X167126118Y-111872799D01*
X167250000Y-111885000D01*
X168883422Y-111885000D01*
X170268866Y-113270445D01*
X170278992Y-113373255D01*
X170329528Y-113539851D01*
X170411595Y-113693387D01*
X170522038Y-113827962D01*
X170656613Y-113938405D01*
X170810149Y-114020472D01*
X170976745Y-114071008D01*
X171149999Y-114088072D01*
X171850001Y-114088072D01*
X172023255Y-114071008D01*
X172189851Y-114020472D01*
X172343387Y-113938405D01*
X172477962Y-113827962D01*
X172500000Y-113801109D01*
X172522038Y-113827962D01*
X172656613Y-113938405D01*
X172810149Y-114020472D01*
X172976745Y-114071008D01*
X173149999Y-114088072D01*
X173850001Y-114088072D01*
X174023255Y-114071008D01*
X174189851Y-114020472D01*
X174343387Y-113938405D01*
X174477962Y-113827962D01*
X174588405Y-113693387D01*
X174670472Y-113539851D01*
X174721008Y-113373255D01*
X174738072Y-113200001D01*
X174738072Y-112299999D01*
X174721008Y-112126745D01*
X174670472Y-111960149D01*
X174588405Y-111806613D01*
X174545632Y-111754494D01*
X174577962Y-111727962D01*
X174688405Y-111593387D01*
X174770472Y-111439851D01*
X174821008Y-111273255D01*
X174838072Y-111100001D01*
X174838072Y-110399999D01*
X174821008Y-110226745D01*
X174770472Y-110060149D01*
X174688405Y-109906613D01*
X174577962Y-109772038D01*
X174551109Y-109750000D01*
X174577962Y-109727962D01*
X174654254Y-109635000D01*
X175615001Y-109635000D01*
X175615001Y-109874940D01*
X175457748Y-109980013D01*
X175230013Y-110207748D01*
X175051082Y-110475537D01*
X174927832Y-110773088D01*
X174865000Y-111088967D01*
X174865000Y-111411033D01*
X174927832Y-111726912D01*
X175051082Y-112024463D01*
X175230013Y-112292252D01*
X175457748Y-112519987D01*
X175725537Y-112698918D01*
X176023088Y-112822168D01*
X176338967Y-112885000D01*
X176661033Y-112885000D01*
X176976912Y-112822168D01*
X177274463Y-112698918D01*
X177542252Y-112519987D01*
X177769987Y-112292252D01*
X177948918Y-112024463D01*
X178072168Y-111726912D01*
X178135000Y-111411033D01*
X178135000Y-111088967D01*
X178072168Y-110773088D01*
X177948918Y-110475537D01*
X177769987Y-110207748D01*
X177542252Y-109980013D01*
X177385000Y-109874941D01*
X177385000Y-109635000D01*
X182265375Y-109635000D01*
X182278992Y-109773254D01*
X182329528Y-109939850D01*
X182411595Y-110093386D01*
X182522038Y-110227962D01*
X182656614Y-110338405D01*
X182758337Y-110392777D01*
X182694866Y-110444866D01*
X182509294Y-110670986D01*
X182371401Y-110928966D01*
X182286487Y-111208889D01*
X182257815Y-111500000D01*
X182286487Y-111791111D01*
X182371401Y-112071034D01*
X182509294Y-112329014D01*
X182694866Y-112555134D01*
X182920986Y-112740706D01*
X183178966Y-112878599D01*
X183458889Y-112963513D01*
X183677050Y-112985000D01*
X184322950Y-112985000D01*
X184541111Y-112963513D01*
X184821034Y-112878599D01*
X185079014Y-112740706D01*
X185305134Y-112555134D01*
X185490706Y-112329014D01*
X185628599Y-112071034D01*
X185713513Y-111791111D01*
X185742185Y-111500000D01*
X185713513Y-111208889D01*
X185628599Y-110928966D01*
X185490706Y-110670986D01*
X185305134Y-110444866D01*
X185241663Y-110392777D01*
X185343386Y-110338405D01*
X185477962Y-110227962D01*
X185588405Y-110093386D01*
X185670472Y-109939850D01*
X185721008Y-109773254D01*
X185738072Y-109600000D01*
X185738072Y-108853740D01*
X189695000Y-108853740D01*
X189695000Y-109146260D01*
X189752068Y-109433158D01*
X189864010Y-109703411D01*
X190026525Y-109946632D01*
X190233368Y-110153475D01*
X190377828Y-110250000D01*
X190233368Y-110346525D01*
X190026525Y-110553368D01*
X189864010Y-110796589D01*
X189752068Y-111066842D01*
X189695000Y-111353740D01*
X189695000Y-111646260D01*
X189752068Y-111933158D01*
X189864010Y-112203411D01*
X190026525Y-112446632D01*
X190233368Y-112653475D01*
X190476589Y-112815990D01*
X190746842Y-112927932D01*
X191033740Y-112985000D01*
X191326260Y-112985000D01*
X191613158Y-112927932D01*
X191883411Y-112815990D01*
X192126632Y-112653475D01*
X192333475Y-112446632D01*
X192495990Y-112203411D01*
X192607932Y-111933158D01*
X192665000Y-111646260D01*
X192665000Y-111353740D01*
X192607932Y-111066842D01*
X192495990Y-110796589D01*
X192333475Y-110553368D01*
X192126632Y-110346525D01*
X191982172Y-110250000D01*
X192126632Y-110153475D01*
X192333475Y-109946632D01*
X192495990Y-109703411D01*
X192607932Y-109433158D01*
X192665000Y-109146260D01*
X192665000Y-108853740D01*
X192607932Y-108566842D01*
X192495990Y-108296589D01*
X192333475Y-108053368D01*
X192126632Y-107846525D01*
X191883411Y-107684010D01*
X191613158Y-107572068D01*
X191326260Y-107515000D01*
X191033740Y-107515000D01*
X190746842Y-107572068D01*
X190476589Y-107684010D01*
X190233368Y-107846525D01*
X190026525Y-108053368D01*
X189864010Y-108296589D01*
X189752068Y-108566842D01*
X189695000Y-108853740D01*
X185738072Y-108853740D01*
X185738072Y-108400000D01*
X185721008Y-108226746D01*
X185670472Y-108060150D01*
X185588405Y-107906614D01*
X185477962Y-107772038D01*
X185343386Y-107661595D01*
X185189850Y-107579528D01*
X185023254Y-107528992D01*
X184850000Y-107511928D01*
X183150000Y-107511928D01*
X182976746Y-107528992D01*
X182810150Y-107579528D01*
X182656614Y-107661595D01*
X182522038Y-107772038D01*
X182445747Y-107865000D01*
X176043469Y-107865000D01*
X176000000Y-107860719D01*
X175956531Y-107865000D01*
X174654254Y-107865000D01*
X174577962Y-107772038D01*
X174443387Y-107661595D01*
X174377085Y-107626155D01*
X174372195Y-107576510D01*
X174321589Y-107409687D01*
X174239411Y-107255941D01*
X174196430Y-107203569D01*
X174156532Y-107154953D01*
X174156530Y-107154951D01*
X174128817Y-107121183D01*
X174095050Y-107093471D01*
X173251532Y-106249954D01*
X173223817Y-106216183D01*
X173089059Y-106105589D01*
X172935313Y-106023411D01*
X172768490Y-105972805D01*
X172638477Y-105960000D01*
X172638469Y-105960000D01*
X172595000Y-105955719D01*
X172551531Y-105960000D01*
X172078783Y-105960000D01*
X171953745Y-105922071D01*
X171922502Y-105918994D01*
X172002962Y-105852962D01*
X172113405Y-105718386D01*
X172195472Y-105564850D01*
X172246008Y-105398254D01*
X172263072Y-105225000D01*
X172263072Y-104275000D01*
X172246008Y-104101746D01*
X172195472Y-103935150D01*
X172113405Y-103781614D01*
X172002962Y-103647038D01*
X171868386Y-103536595D01*
X171714850Y-103454528D01*
X171548254Y-103403992D01*
X171375000Y-103386928D01*
X170700000Y-103386928D01*
X170526746Y-103403992D01*
X170360150Y-103454528D01*
X170206614Y-103536595D01*
X170072038Y-103647038D01*
X170000000Y-103734817D01*
X169927962Y-103647038D01*
X169793386Y-103536595D01*
X169639850Y-103454528D01*
X169473254Y-103403992D01*
X169300000Y-103386928D01*
X168625000Y-103386928D01*
X168451746Y-103403992D01*
X168285150Y-103454528D01*
X168131614Y-103536595D01*
X167997038Y-103647038D01*
X167886595Y-103781614D01*
X167804528Y-103935150D01*
X167753992Y-104101746D01*
X167736928Y-104275000D01*
X167736928Y-104723994D01*
X167404951Y-105055971D01*
X167371184Y-105083683D01*
X167343471Y-105117451D01*
X167343468Y-105117454D01*
X167260590Y-105218441D01*
X167178412Y-105372187D01*
X167127805Y-105539010D01*
X167110719Y-105712500D01*
X167115001Y-105755978D01*
X167115001Y-105880573D01*
X167021228Y-105909019D01*
X167000000Y-105906928D01*
X166310750Y-105910000D01*
X166152000Y-106068750D01*
X166152000Y-106718000D01*
X166172000Y-106718000D01*
X166172000Y-106865000D01*
X165878000Y-106865000D01*
X165878000Y-106718000D01*
X165898000Y-106718000D01*
X165898000Y-106068750D01*
X165739250Y-105910000D01*
X165050000Y-105906928D01*
X164925518Y-105919188D01*
X164805820Y-105955498D01*
X164695506Y-106014463D01*
X164679375Y-106027702D01*
X164676185Y-106023815D01*
X164579494Y-105944463D01*
X164469180Y-105885498D01*
X164349482Y-105849188D01*
X164225000Y-105836928D01*
X163785750Y-105840000D01*
X163627000Y-105998750D01*
X163627000Y-106935500D01*
X163647000Y-106935500D01*
X163647000Y-107189500D01*
X163627000Y-107189500D01*
X163627000Y-107209500D01*
X163373000Y-107209500D01*
X163373000Y-107189500D01*
X162298750Y-107189500D01*
X162140000Y-107348250D01*
X162136928Y-107650000D01*
X160788072Y-107650000D01*
X160788072Y-106475000D01*
X162136928Y-106475000D01*
X162140000Y-106776750D01*
X162298750Y-106935500D01*
X163373000Y-106935500D01*
X163373000Y-105998750D01*
X163214250Y-105840000D01*
X162775000Y-105836928D01*
X162650518Y-105849188D01*
X162530820Y-105885498D01*
X162420506Y-105944463D01*
X162323815Y-106023815D01*
X162244463Y-106120506D01*
X162185498Y-106230820D01*
X162149188Y-106350518D01*
X162136928Y-106475000D01*
X160788072Y-106475000D01*
X160788072Y-104550000D01*
X160775812Y-104425518D01*
X160739502Y-104305820D01*
X160680537Y-104195506D01*
X160601185Y-104098815D01*
X160504494Y-104019463D01*
X160394180Y-103960498D01*
X160274482Y-103924188D01*
X160150000Y-103911928D01*
X157850000Y-103911928D01*
X157725518Y-103924188D01*
X157605820Y-103960498D01*
X157495506Y-104019463D01*
X157398815Y-104098815D01*
X157319463Y-104195506D01*
X157260498Y-104305820D01*
X157224188Y-104425518D01*
X157211928Y-104550000D01*
X157211928Y-105415000D01*
X154938072Y-105415000D01*
X154938072Y-104150000D01*
X154925812Y-104025518D01*
X154889502Y-103905820D01*
X154830537Y-103795506D01*
X154751185Y-103698815D01*
X154654494Y-103619463D01*
X154544180Y-103560498D01*
X154424482Y-103524188D01*
X154300000Y-103511928D01*
X150700000Y-103511928D01*
X150575518Y-103524188D01*
X150455820Y-103560498D01*
X150345506Y-103619463D01*
X150248815Y-103698815D01*
X150169463Y-103795506D01*
X150110498Y-103905820D01*
X150074188Y-104025518D01*
X150061928Y-104150000D01*
X150061928Y-104210000D01*
X148078783Y-104210000D01*
X147953745Y-104172071D01*
X147800000Y-104156928D01*
X146150000Y-104156928D01*
X145996255Y-104172071D01*
X145871217Y-104210000D01*
X145698465Y-104210000D01*
X145654999Y-104205719D01*
X145611533Y-104210000D01*
X145611523Y-104210000D01*
X145481510Y-104222805D01*
X145334990Y-104267252D01*
X145334990Y-102916588D01*
X146353517Y-101898061D01*
X148465000Y-101898061D01*
X148465000Y-102101939D01*
X148504774Y-102301898D01*
X148582795Y-102490256D01*
X148696063Y-102659774D01*
X148840226Y-102803937D01*
X149009744Y-102917205D01*
X149198102Y-102995226D01*
X149398061Y-103035000D01*
X149601939Y-103035000D01*
X149801898Y-102995226D01*
X149990256Y-102917205D01*
X150159774Y-102803937D01*
X150303937Y-102659774D01*
X150417205Y-102490256D01*
X150495226Y-102301898D01*
X150506535Y-102245043D01*
X151153475Y-101598103D01*
X151338967Y-101635000D01*
X151661033Y-101635000D01*
X151976912Y-101572168D01*
X152274463Y-101448918D01*
X152542252Y-101269987D01*
X152769987Y-101042252D01*
X152948918Y-100774463D01*
X153072168Y-100476912D01*
X153135000Y-100161033D01*
X153135000Y-99838967D01*
X153365000Y-99838967D01*
X153365000Y-100161033D01*
X153427832Y-100476912D01*
X153551082Y-100774463D01*
X153730013Y-101042252D01*
X153957748Y-101269987D01*
X154225537Y-101448918D01*
X154523088Y-101572168D01*
X154838967Y-101635000D01*
X155161033Y-101635000D01*
X155476912Y-101572168D01*
X155774463Y-101448918D01*
X156042252Y-101269987D01*
X156269987Y-101042252D01*
X156278273Y-101029851D01*
X156493465Y-101245044D01*
X156504774Y-101301898D01*
X156582795Y-101490256D01*
X156696063Y-101659774D01*
X156840226Y-101803937D01*
X157009744Y-101917205D01*
X157198102Y-101995226D01*
X157398061Y-102035000D01*
X157601939Y-102035000D01*
X157801898Y-101995226D01*
X157990256Y-101917205D01*
X158159774Y-101803937D01*
X158303937Y-101659774D01*
X158417205Y-101490256D01*
X158495226Y-101301898D01*
X158535000Y-101101939D01*
X158535000Y-100898061D01*
X170965000Y-100898061D01*
X170965000Y-101101939D01*
X171004774Y-101301898D01*
X171082795Y-101490256D01*
X171196063Y-101659774D01*
X171340226Y-101803937D01*
X171509744Y-101917205D01*
X171698102Y-101995226D01*
X171898061Y-102035000D01*
X172101939Y-102035000D01*
X172301898Y-101995226D01*
X172490256Y-101917205D01*
X172659774Y-101803937D01*
X172803937Y-101659774D01*
X172917205Y-101490256D01*
X172995226Y-101301898D01*
X173006535Y-101245043D01*
X173221727Y-101029851D01*
X173230013Y-101042252D01*
X173457748Y-101269987D01*
X173725537Y-101448918D01*
X174023088Y-101572168D01*
X174338967Y-101635000D01*
X174661033Y-101635000D01*
X174976912Y-101572168D01*
X175151140Y-101500000D01*
X182257815Y-101500000D01*
X182286487Y-101791111D01*
X182371401Y-102071034D01*
X182509294Y-102329014D01*
X182694866Y-102555134D01*
X182920986Y-102740706D01*
X183178966Y-102878599D01*
X183458889Y-102963513D01*
X183677050Y-102985000D01*
X184322950Y-102985000D01*
X184541111Y-102963513D01*
X184821034Y-102878599D01*
X185079014Y-102740706D01*
X185305134Y-102555134D01*
X185490706Y-102329014D01*
X185628599Y-102071034D01*
X185713513Y-101791111D01*
X185742185Y-101500000D01*
X185713513Y-101208889D01*
X185628599Y-100928966D01*
X185490706Y-100670986D01*
X185305134Y-100444866D01*
X185241663Y-100392777D01*
X185343386Y-100338405D01*
X185477962Y-100227962D01*
X185588405Y-100093386D01*
X185670472Y-99939850D01*
X185721008Y-99773254D01*
X185738072Y-99600000D01*
X185738072Y-98853740D01*
X189695000Y-98853740D01*
X189695000Y-99146260D01*
X189752068Y-99433158D01*
X189864010Y-99703411D01*
X190026525Y-99946632D01*
X190233368Y-100153475D01*
X190377828Y-100250000D01*
X190233368Y-100346525D01*
X190026525Y-100553368D01*
X189864010Y-100796589D01*
X189752068Y-101066842D01*
X189695000Y-101353740D01*
X189695000Y-101646260D01*
X189752068Y-101933158D01*
X189864010Y-102203411D01*
X190026525Y-102446632D01*
X190233368Y-102653475D01*
X190476589Y-102815990D01*
X190746842Y-102927932D01*
X191033740Y-102985000D01*
X191326260Y-102985000D01*
X191613158Y-102927932D01*
X191883411Y-102815990D01*
X192126632Y-102653475D01*
X192333475Y-102446632D01*
X192495990Y-102203411D01*
X192607932Y-101933158D01*
X192665000Y-101646260D01*
X192665000Y-101353740D01*
X192607932Y-101066842D01*
X192495990Y-100796589D01*
X192333475Y-100553368D01*
X192126632Y-100346525D01*
X191982172Y-100250000D01*
X192126632Y-100153475D01*
X192333475Y-99946632D01*
X192495990Y-99703411D01*
X192607932Y-99433158D01*
X192665000Y-99146260D01*
X192665000Y-98853740D01*
X192607932Y-98566842D01*
X192495990Y-98296589D01*
X192333475Y-98053368D01*
X192126632Y-97846525D01*
X191883411Y-97684010D01*
X191613158Y-97572068D01*
X191326260Y-97515000D01*
X191033740Y-97515000D01*
X190746842Y-97572068D01*
X190476589Y-97684010D01*
X190233368Y-97846525D01*
X190026525Y-98053368D01*
X189864010Y-98296589D01*
X189752068Y-98566842D01*
X189695000Y-98853740D01*
X185738072Y-98853740D01*
X185738072Y-98400000D01*
X185721008Y-98226746D01*
X185670472Y-98060150D01*
X185588405Y-97906614D01*
X185477962Y-97772038D01*
X185343386Y-97661595D01*
X185189850Y-97579528D01*
X185023254Y-97528992D01*
X184850000Y-97511928D01*
X183150000Y-97511928D01*
X182976746Y-97528992D01*
X182810150Y-97579528D01*
X182656614Y-97661595D01*
X182522038Y-97772038D01*
X182411595Y-97906614D01*
X182329528Y-98060150D01*
X182278992Y-98226746D01*
X182261928Y-98400000D01*
X182261928Y-99600000D01*
X182278992Y-99773254D01*
X182329528Y-99939850D01*
X182411595Y-100093386D01*
X182522038Y-100227962D01*
X182656614Y-100338405D01*
X182758337Y-100392777D01*
X182694866Y-100444866D01*
X182509294Y-100670986D01*
X182371401Y-100928966D01*
X182286487Y-101208889D01*
X182257815Y-101500000D01*
X175151140Y-101500000D01*
X175274463Y-101448918D01*
X175542252Y-101269987D01*
X175769987Y-101042252D01*
X175948918Y-100774463D01*
X176072168Y-100476912D01*
X176135000Y-100161033D01*
X176135000Y-99838967D01*
X176072168Y-99523088D01*
X175948918Y-99225537D01*
X175769987Y-98957748D01*
X175542252Y-98730013D01*
X175274463Y-98551082D01*
X174976912Y-98427832D01*
X174661033Y-98365000D01*
X174338967Y-98365000D01*
X174023088Y-98427832D01*
X173725537Y-98551082D01*
X173457748Y-98730013D01*
X173230013Y-98957748D01*
X173124941Y-99115000D01*
X173043469Y-99115000D01*
X173000000Y-99110719D01*
X172956531Y-99115000D01*
X172956523Y-99115000D01*
X172826510Y-99127805D01*
X172659686Y-99178411D01*
X172505941Y-99260589D01*
X172404953Y-99343468D01*
X172404951Y-99343470D01*
X172371183Y-99371183D01*
X172343470Y-99404951D01*
X171754957Y-99993465D01*
X171698102Y-100004774D01*
X171509744Y-100082795D01*
X171340226Y-100196063D01*
X171196063Y-100340226D01*
X171082795Y-100509744D01*
X171004774Y-100698102D01*
X170965000Y-100898061D01*
X158535000Y-100898061D01*
X158495226Y-100698102D01*
X158417205Y-100509744D01*
X158303937Y-100340226D01*
X158159774Y-100196063D01*
X157990256Y-100082795D01*
X157801898Y-100004774D01*
X157745044Y-99993465D01*
X157156534Y-99404956D01*
X157128817Y-99371183D01*
X156994059Y-99260589D01*
X156840313Y-99178411D01*
X156673490Y-99127805D01*
X156543477Y-99115000D01*
X156543469Y-99115000D01*
X156500000Y-99110719D01*
X156456531Y-99115000D01*
X156375059Y-99115000D01*
X156269987Y-98957748D01*
X156042252Y-98730013D01*
X155774463Y-98551082D01*
X155476912Y-98427832D01*
X155161033Y-98365000D01*
X154838967Y-98365000D01*
X154523088Y-98427832D01*
X154225537Y-98551082D01*
X153957748Y-98730013D01*
X153730013Y-98957748D01*
X153551082Y-99225537D01*
X153427832Y-99523088D01*
X153365000Y-99838967D01*
X153135000Y-99838967D01*
X153072168Y-99523088D01*
X152948918Y-99225537D01*
X152769987Y-98957748D01*
X152542252Y-98730013D01*
X152274463Y-98551082D01*
X151976912Y-98427832D01*
X151661033Y-98365000D01*
X151338967Y-98365000D01*
X151023088Y-98427832D01*
X150725537Y-98551082D01*
X150457748Y-98730013D01*
X150230013Y-98957748D01*
X150051082Y-99225537D01*
X149927832Y-99523088D01*
X149865000Y-99838967D01*
X149865000Y-100161033D01*
X149901897Y-100346525D01*
X149254957Y-100993465D01*
X149198102Y-101004774D01*
X149009744Y-101082795D01*
X148840226Y-101196063D01*
X148696063Y-101340226D01*
X148582795Y-101509744D01*
X148504774Y-101698102D01*
X148465000Y-101898061D01*
X146353517Y-101898061D01*
X146653475Y-101598104D01*
X146838967Y-101635000D01*
X147161033Y-101635000D01*
X147476912Y-101572168D01*
X147774463Y-101448918D01*
X148042252Y-101269987D01*
X148269987Y-101042252D01*
X148448918Y-100774463D01*
X148572168Y-100476912D01*
X148635000Y-100161033D01*
X148635000Y-99838967D01*
X148572168Y-99523088D01*
X148448918Y-99225537D01*
X148269987Y-98957748D01*
X148042252Y-98730013D01*
X147774463Y-98551082D01*
X147476912Y-98427832D01*
X147161033Y-98365000D01*
X146838967Y-98365000D01*
X146523088Y-98427832D01*
X146225537Y-98551082D01*
X145957748Y-98730013D01*
X145730013Y-98957748D01*
X145551082Y-99225537D01*
X145427832Y-99523088D01*
X145365000Y-99838967D01*
X145365000Y-100161033D01*
X145401896Y-100346525D01*
X143854941Y-101893481D01*
X143821174Y-101921193D01*
X143793461Y-101954961D01*
X143793458Y-101954964D01*
X143710580Y-102055951D01*
X143628402Y-102209697D01*
X143577795Y-102376520D01*
X143560709Y-102550010D01*
X143564991Y-102593489D01*
X143564990Y-104618922D01*
X143505258Y-104507171D01*
X143407251Y-104387749D01*
X143287829Y-104289742D01*
X143151582Y-104216916D01*
X143003745Y-104172071D01*
X142850000Y-104156928D01*
X141200000Y-104156928D01*
X141046255Y-104172071D01*
X140898418Y-104216916D01*
X140889861Y-104221490D01*
X140876510Y-104222805D01*
X140709687Y-104273411D01*
X140555941Y-104355589D01*
X140555939Y-104355590D01*
X140555940Y-104355590D01*
X140454953Y-104438468D01*
X140454951Y-104438470D01*
X140421183Y-104466183D01*
X140393470Y-104499951D01*
X139179946Y-105713476D01*
X139146173Y-105741193D01*
X139035579Y-105875952D01*
X138953401Y-106029698D01*
X138927003Y-106116719D01*
X138902795Y-106196520D01*
X138901840Y-106206213D01*
X138889990Y-106326534D01*
X138889990Y-106326541D01*
X138885709Y-106370010D01*
X138889990Y-106413479D01*
X138889991Y-109731511D01*
X138885709Y-109774990D01*
X138902795Y-109948480D01*
X138953402Y-110115303D01*
X139035580Y-110269049D01*
X139118458Y-110370036D01*
X139118461Y-110370039D01*
X139146174Y-110403807D01*
X139179941Y-110431519D01*
X141090112Y-112341691D01*
X141086255Y-112342071D01*
X140961217Y-112380000D01*
X139748791Y-112380000D01*
X139746008Y-112351746D01*
X139695472Y-112185150D01*
X139613405Y-112031614D01*
X139502962Y-111897038D01*
X139368386Y-111786595D01*
X139214850Y-111704528D01*
X139048254Y-111653992D01*
X138875000Y-111636928D01*
X138200000Y-111636928D01*
X138026746Y-111653992D01*
X137860150Y-111704528D01*
X137706614Y-111786595D01*
X137572038Y-111897038D01*
X137500000Y-111984817D01*
X137427962Y-111897038D01*
X137293386Y-111786595D01*
X137139850Y-111704528D01*
X136973254Y-111653992D01*
X136800000Y-111636928D01*
X136125000Y-111636928D01*
X135951746Y-111653992D01*
X135785150Y-111704528D01*
X135631614Y-111786595D01*
X135497038Y-111897038D01*
X135386595Y-112031614D01*
X135304528Y-112185150D01*
X135253992Y-112351746D01*
X135236928Y-112525000D01*
X135236928Y-113011493D01*
X134486494Y-113761928D01*
X134049999Y-113761928D01*
X133876745Y-113778992D01*
X133710149Y-113829528D01*
X133556613Y-113911595D01*
X133422038Y-114022038D01*
X133311595Y-114156613D01*
X133229528Y-114310149D01*
X133178992Y-114476745D01*
X133161928Y-114649999D01*
X133161928Y-115350001D01*
X133178992Y-115523255D01*
X133229528Y-115689851D01*
X133311595Y-115843387D01*
X133422038Y-115977962D01*
X133448891Y-116000000D01*
X133422038Y-116022038D01*
X133345746Y-116115000D01*
X131875059Y-116115000D01*
X131769987Y-115957748D01*
X131542252Y-115730013D01*
X131274463Y-115551082D01*
X130976912Y-115427832D01*
X130661033Y-115365000D01*
X130338967Y-115365000D01*
X130023088Y-115427832D01*
X129725537Y-115551082D01*
X129457748Y-115730013D01*
X129230013Y-115957748D01*
X129051082Y-116225537D01*
X128927832Y-116523088D01*
X128865000Y-116838967D01*
X128865000Y-117161033D01*
X128927832Y-117476912D01*
X129051082Y-117774463D01*
X129230013Y-118042252D01*
X129452751Y-118264990D01*
X128047249Y-118264990D01*
X128269987Y-118042252D01*
X128448918Y-117774463D01*
X128572168Y-117476912D01*
X128635000Y-117161033D01*
X128635000Y-116838967D01*
X128572168Y-116523088D01*
X128448918Y-116225537D01*
X128269987Y-115957748D01*
X128042252Y-115730013D01*
X127885000Y-115624941D01*
X127885000Y-114543469D01*
X127889281Y-114500000D01*
X127885000Y-114456531D01*
X127885000Y-114456523D01*
X127873652Y-114341306D01*
X127872195Y-114326509D01*
X127837014Y-114210537D01*
X127821589Y-114159687D01*
X127739411Y-114005941D01*
X127686730Y-113941749D01*
X127656532Y-113904953D01*
X127656530Y-113904951D01*
X127628817Y-113871183D01*
X127595049Y-113843470D01*
X125811588Y-112060010D01*
X126281521Y-112060010D01*
X126324990Y-112064291D01*
X126368459Y-112060010D01*
X126368467Y-112060010D01*
X126498480Y-112047205D01*
X126665303Y-111996599D01*
X126819049Y-111914421D01*
X126953807Y-111803827D01*
X126981524Y-111770054D01*
X127513506Y-111238072D01*
X127950001Y-111238072D01*
X128123255Y-111221008D01*
X128289851Y-111170472D01*
X128443387Y-111088405D01*
X128577962Y-110977962D01*
X128688405Y-110843387D01*
X128736928Y-110752607D01*
X128736928Y-111475000D01*
X128753992Y-111648254D01*
X128804528Y-111814850D01*
X128886595Y-111968386D01*
X128997038Y-112102962D01*
X129131614Y-112213405D01*
X129285150Y-112295472D01*
X129451746Y-112346008D01*
X129625000Y-112363072D01*
X130300000Y-112363072D01*
X130473254Y-112346008D01*
X130639850Y-112295472D01*
X130793386Y-112213405D01*
X130927962Y-112102962D01*
X131000000Y-112015183D01*
X131072038Y-112102962D01*
X131206614Y-112213405D01*
X131360150Y-112295472D01*
X131526746Y-112346008D01*
X131700000Y-112363072D01*
X132375000Y-112363072D01*
X132548254Y-112346008D01*
X132714850Y-112295472D01*
X132868386Y-112213405D01*
X133002962Y-112102962D01*
X133113405Y-111968386D01*
X133164339Y-111873096D01*
X133173490Y-111872195D01*
X133340313Y-111821589D01*
X133494059Y-111739411D01*
X133628817Y-111628817D01*
X133656534Y-111595044D01*
X133745043Y-111506535D01*
X133801898Y-111495226D01*
X133990256Y-111417205D01*
X134159774Y-111303937D01*
X134303937Y-111159774D01*
X134417205Y-110990256D01*
X134495226Y-110801898D01*
X134506535Y-110745043D01*
X134989982Y-110261596D01*
X135148254Y-110246008D01*
X135314850Y-110195472D01*
X135468386Y-110113405D01*
X135602962Y-110002962D01*
X135713405Y-109868386D01*
X135795472Y-109714850D01*
X135846008Y-109548254D01*
X135863072Y-109375000D01*
X135863072Y-108700000D01*
X135846008Y-108526746D01*
X135795472Y-108360150D01*
X135713405Y-108206614D01*
X135602962Y-108072038D01*
X135515183Y-108000000D01*
X135602962Y-107927962D01*
X135713405Y-107793386D01*
X135795472Y-107639850D01*
X135846008Y-107473254D01*
X135863072Y-107300000D01*
X135863072Y-106625000D01*
X135846008Y-106451746D01*
X135808801Y-106329090D01*
X135900000Y-106338072D01*
X136214250Y-106335000D01*
X136373000Y-106176250D01*
X136373000Y-105127000D01*
X136627000Y-105127000D01*
X136627000Y-106176250D01*
X136785750Y-106335000D01*
X137100000Y-106338072D01*
X137224482Y-106325812D01*
X137344180Y-106289502D01*
X137454494Y-106230537D01*
X137551185Y-106151185D01*
X137630537Y-106054494D01*
X137689502Y-105944180D01*
X137725812Y-105824482D01*
X137738072Y-105700000D01*
X137735000Y-105285750D01*
X137576250Y-105127000D01*
X136627000Y-105127000D01*
X136373000Y-105127000D01*
X136353000Y-105127000D01*
X136353000Y-104873000D01*
X136373000Y-104873000D01*
X136373000Y-103823750D01*
X136627000Y-103823750D01*
X136627000Y-104873000D01*
X137576250Y-104873000D01*
X137735000Y-104714250D01*
X137738072Y-104300000D01*
X137725812Y-104175518D01*
X137689502Y-104055820D01*
X137630537Y-103945506D01*
X137551185Y-103848815D01*
X137454494Y-103769463D01*
X137344180Y-103710498D01*
X137224482Y-103674188D01*
X137100000Y-103661928D01*
X136785750Y-103665000D01*
X136627000Y-103823750D01*
X136373000Y-103823750D01*
X136214250Y-103665000D01*
X135900000Y-103661928D01*
X135775518Y-103674188D01*
X135655820Y-103710498D01*
X135545506Y-103769463D01*
X135448815Y-103848815D01*
X135424637Y-103878276D01*
X135343387Y-103811595D01*
X135189851Y-103729528D01*
X135023255Y-103678992D01*
X134850001Y-103661928D01*
X134149999Y-103661928D01*
X133976745Y-103678992D01*
X133810149Y-103729528D01*
X133656613Y-103811595D01*
X133522038Y-103922038D01*
X133411595Y-104056613D01*
X133385000Y-104106369D01*
X133385000Y-101866578D01*
X133653475Y-101598103D01*
X133838967Y-101635000D01*
X134161033Y-101635000D01*
X134476912Y-101572168D01*
X134774463Y-101448918D01*
X135042252Y-101269987D01*
X135269987Y-101042252D01*
X135448918Y-100774463D01*
X135572168Y-100476912D01*
X135635000Y-100161033D01*
X135635000Y-99838967D01*
X135572168Y-99523088D01*
X135448918Y-99225537D01*
X135269987Y-98957748D01*
X135042252Y-98730013D01*
X134774463Y-98551082D01*
X134476912Y-98427832D01*
X134161033Y-98365000D01*
X133838967Y-98365000D01*
X133523088Y-98427832D01*
X133225537Y-98551082D01*
X132957748Y-98730013D01*
X132730013Y-98957748D01*
X132551082Y-99225537D01*
X132427832Y-99523088D01*
X132365000Y-99838967D01*
X132365000Y-100161033D01*
X132401897Y-100346525D01*
X131904956Y-100843466D01*
X131871183Y-100871183D01*
X131760589Y-101005942D01*
X131759520Y-101007942D01*
X131156536Y-100404958D01*
X131156532Y-100404953D01*
X131156530Y-100404951D01*
X131128817Y-100371183D01*
X131098197Y-100346054D01*
X131135000Y-100161033D01*
X131135000Y-99838967D01*
X131072168Y-99523088D01*
X130948918Y-99225537D01*
X130769987Y-98957748D01*
X130542252Y-98730013D01*
X130274463Y-98551082D01*
X129976912Y-98427832D01*
X129661033Y-98365000D01*
X129338967Y-98365000D01*
X129023088Y-98427832D01*
X128725537Y-98551082D01*
X128457748Y-98730013D01*
X128230013Y-98957748D01*
X128051082Y-99225537D01*
X127927832Y-99523088D01*
X127865000Y-99838967D01*
X127865000Y-100161033D01*
X127927832Y-100476912D01*
X128051082Y-100774463D01*
X128230013Y-101042252D01*
X128457748Y-101269987D01*
X128725537Y-101448918D01*
X129023088Y-101572168D01*
X129338967Y-101635000D01*
X129615000Y-101635000D01*
X129615001Y-102961545D01*
X129582795Y-103009744D01*
X129504774Y-103198102D01*
X129465000Y-103398061D01*
X129465000Y-103601939D01*
X129504774Y-103801898D01*
X129582795Y-103990256D01*
X129615000Y-104038455D01*
X129615001Y-104931988D01*
X128863072Y-104180060D01*
X128863072Y-103625000D01*
X128846008Y-103451746D01*
X128795472Y-103285150D01*
X128713405Y-103131614D01*
X128602962Y-102997038D01*
X128468386Y-102886595D01*
X128314850Y-102804528D01*
X128148254Y-102753992D01*
X127975000Y-102736928D01*
X127025000Y-102736928D01*
X126851746Y-102753992D01*
X126685150Y-102804528D01*
X126531614Y-102886595D01*
X126482173Y-102927170D01*
X126477962Y-102922038D01*
X126343387Y-102811595D01*
X126189851Y-102729528D01*
X126023255Y-102678992D01*
X125850001Y-102661928D01*
X125149999Y-102661928D01*
X124976745Y-102678992D01*
X124810149Y-102729528D01*
X124656613Y-102811595D01*
X124575363Y-102878276D01*
X124551185Y-102848815D01*
X124454494Y-102769463D01*
X124344180Y-102710498D01*
X124224482Y-102674188D01*
X124100000Y-102661928D01*
X123785750Y-102665000D01*
X123627000Y-102823750D01*
X123627000Y-103873000D01*
X123647000Y-103873000D01*
X123647000Y-104127000D01*
X123627000Y-104127000D01*
X123627000Y-104147000D01*
X123373000Y-104147000D01*
X123373000Y-104127000D01*
X122423750Y-104127000D01*
X122265000Y-104285750D01*
X122261928Y-104700000D01*
X122274188Y-104824482D01*
X122310498Y-104944180D01*
X122369463Y-105054494D01*
X122395663Y-105086419D01*
X122380386Y-105115000D01*
X122043469Y-105115000D01*
X122000000Y-105110719D01*
X121956531Y-105115000D01*
X121956523Y-105115000D01*
X121826510Y-105127805D01*
X121659686Y-105178411D01*
X121505941Y-105260589D01*
X121404953Y-105343468D01*
X121404951Y-105343470D01*
X121371183Y-105371183D01*
X121343470Y-105404951D01*
X118633422Y-108115000D01*
X117444759Y-108115000D01*
X117305134Y-107944866D01*
X117079014Y-107759294D01*
X117061626Y-107750000D01*
X117079014Y-107740706D01*
X117305134Y-107555134D01*
X117490706Y-107329014D01*
X117628599Y-107071034D01*
X117713513Y-106791111D01*
X117742185Y-106500000D01*
X117713513Y-106208889D01*
X117628599Y-105928966D01*
X117490706Y-105670986D01*
X117305134Y-105444866D01*
X117079014Y-105259294D01*
X116821034Y-105121401D01*
X116541111Y-105036487D01*
X116322950Y-105015000D01*
X115677050Y-105015000D01*
X115458889Y-105036487D01*
X115178966Y-105121401D01*
X114920986Y-105259294D01*
X114694866Y-105444866D01*
X114509294Y-105670986D01*
X114371401Y-105928966D01*
X114286487Y-106208889D01*
X114257815Y-106500000D01*
X110305000Y-106500000D01*
X110305000Y-106353740D01*
X110247932Y-106066842D01*
X110135990Y-105796589D01*
X109973475Y-105553368D01*
X109766632Y-105346525D01*
X109523411Y-105184010D01*
X109253158Y-105072068D01*
X108966260Y-105015000D01*
X108673740Y-105015000D01*
X108386842Y-105072068D01*
X108116589Y-105184010D01*
X107873368Y-105346525D01*
X107666525Y-105553368D01*
X107504010Y-105796589D01*
X107392068Y-106066842D01*
X107335000Y-106353740D01*
X105660000Y-106353740D01*
X105660000Y-103300000D01*
X122261928Y-103300000D01*
X122265000Y-103714250D01*
X122423750Y-103873000D01*
X123373000Y-103873000D01*
X123373000Y-102823750D01*
X123214250Y-102665000D01*
X122900000Y-102661928D01*
X122775518Y-102674188D01*
X122655820Y-102710498D01*
X122545506Y-102769463D01*
X122448815Y-102848815D01*
X122369463Y-102945506D01*
X122310498Y-103055820D01*
X122274188Y-103175518D01*
X122261928Y-103300000D01*
X105660000Y-103300000D01*
X105660000Y-98853740D01*
X107335000Y-98853740D01*
X107335000Y-99146260D01*
X107392068Y-99433158D01*
X107504010Y-99703411D01*
X107666525Y-99946632D01*
X107873368Y-100153475D01*
X108017828Y-100250000D01*
X107873368Y-100346525D01*
X107666525Y-100553368D01*
X107504010Y-100796589D01*
X107392068Y-101066842D01*
X107335000Y-101353740D01*
X107335000Y-101646260D01*
X107392068Y-101933158D01*
X107504010Y-102203411D01*
X107666525Y-102446632D01*
X107873368Y-102653475D01*
X108116589Y-102815990D01*
X108386842Y-102927932D01*
X108673740Y-102985000D01*
X108966260Y-102985000D01*
X109253158Y-102927932D01*
X109523411Y-102815990D01*
X109766632Y-102653475D01*
X109973475Y-102446632D01*
X110038042Y-102350000D01*
X114261928Y-102350000D01*
X114274188Y-102474482D01*
X114310498Y-102594180D01*
X114369463Y-102704494D01*
X114448815Y-102801185D01*
X114545506Y-102880537D01*
X114655820Y-102939502D01*
X114775518Y-102975812D01*
X114900000Y-102988072D01*
X115714250Y-102985000D01*
X115873000Y-102826250D01*
X115873000Y-101627000D01*
X116127000Y-101627000D01*
X116127000Y-102826250D01*
X116285750Y-102985000D01*
X117100000Y-102988072D01*
X117224482Y-102975812D01*
X117344180Y-102939502D01*
X117454494Y-102880537D01*
X117551185Y-102801185D01*
X117630537Y-102704494D01*
X117689502Y-102594180D01*
X117725812Y-102474482D01*
X117738072Y-102350000D01*
X117735000Y-101785750D01*
X117576250Y-101627000D01*
X116127000Y-101627000D01*
X115873000Y-101627000D01*
X114423750Y-101627000D01*
X114265000Y-101785750D01*
X114261928Y-102350000D01*
X110038042Y-102350000D01*
X110135990Y-102203411D01*
X110247932Y-101933158D01*
X110305000Y-101646260D01*
X110305000Y-101353740D01*
X110247932Y-101066842D01*
X110135990Y-100796589D01*
X109973475Y-100553368D01*
X109766632Y-100346525D01*
X109622172Y-100250000D01*
X109766632Y-100153475D01*
X109973475Y-99946632D01*
X110135990Y-99703411D01*
X110247932Y-99433158D01*
X110305000Y-99146260D01*
X110305000Y-99000000D01*
X114257815Y-99000000D01*
X114286487Y-99291111D01*
X114371401Y-99571034D01*
X114509294Y-99829014D01*
X114690608Y-100049945D01*
X114655820Y-100060498D01*
X114545506Y-100119463D01*
X114448815Y-100198815D01*
X114369463Y-100295506D01*
X114310498Y-100405820D01*
X114274188Y-100525518D01*
X114261928Y-100650000D01*
X114265000Y-101214250D01*
X114423750Y-101373000D01*
X115873000Y-101373000D01*
X115873000Y-101353000D01*
X116127000Y-101353000D01*
X116127000Y-101373000D01*
X117576250Y-101373000D01*
X117735000Y-101214250D01*
X117735429Y-101135413D01*
X125044192Y-101135413D01*
X125139956Y-101399814D01*
X125429571Y-101540704D01*
X125741108Y-101622384D01*
X126062595Y-101641718D01*
X126381675Y-101597961D01*
X126686088Y-101492795D01*
X126860044Y-101399814D01*
X126955808Y-101135413D01*
X126000000Y-100179605D01*
X125044192Y-101135413D01*
X117735429Y-101135413D01*
X117738072Y-100650000D01*
X117725812Y-100525518D01*
X117689502Y-100405820D01*
X117630537Y-100295506D01*
X117551185Y-100198815D01*
X117454494Y-100119463D01*
X117348104Y-100062595D01*
X124358282Y-100062595D01*
X124402039Y-100381675D01*
X124507205Y-100686088D01*
X124600186Y-100860044D01*
X124864587Y-100955808D01*
X125820395Y-100000000D01*
X126179605Y-100000000D01*
X127135413Y-100955808D01*
X127399814Y-100860044D01*
X127540704Y-100570429D01*
X127622384Y-100258892D01*
X127641718Y-99937405D01*
X127597961Y-99618325D01*
X127492795Y-99313912D01*
X127399814Y-99139956D01*
X127135413Y-99044192D01*
X126179605Y-100000000D01*
X125820395Y-100000000D01*
X124864587Y-99044192D01*
X124600186Y-99139956D01*
X124459296Y-99429571D01*
X124377616Y-99741108D01*
X124358282Y-100062595D01*
X117348104Y-100062595D01*
X117344180Y-100060498D01*
X117309392Y-100049945D01*
X117490706Y-99829014D01*
X117628599Y-99571034D01*
X117713513Y-99291111D01*
X117742185Y-99000000D01*
X117728848Y-98864587D01*
X125044192Y-98864587D01*
X126000000Y-99820395D01*
X126955808Y-98864587D01*
X126860044Y-98600186D01*
X126570429Y-98459296D01*
X126258892Y-98377616D01*
X125937405Y-98358282D01*
X125618325Y-98402039D01*
X125313912Y-98507205D01*
X125139956Y-98600186D01*
X125044192Y-98864587D01*
X117728848Y-98864587D01*
X117713513Y-98708889D01*
X117628599Y-98428966D01*
X117490706Y-98170986D01*
X117305134Y-97944866D01*
X117079014Y-97759294D01*
X116821034Y-97621401D01*
X116541111Y-97536487D01*
X116322950Y-97515000D01*
X115677050Y-97515000D01*
X115458889Y-97536487D01*
X115178966Y-97621401D01*
X114920986Y-97759294D01*
X114694866Y-97944866D01*
X114509294Y-98170986D01*
X114371401Y-98428966D01*
X114286487Y-98708889D01*
X114257815Y-99000000D01*
X110305000Y-99000000D01*
X110305000Y-98853740D01*
X110247932Y-98566842D01*
X110135990Y-98296589D01*
X109973475Y-98053368D01*
X109766632Y-97846525D01*
X109523411Y-97684010D01*
X109253158Y-97572068D01*
X108966260Y-97515000D01*
X108673740Y-97515000D01*
X108386842Y-97572068D01*
X108116589Y-97684010D01*
X107873368Y-97846525D01*
X107666525Y-98053368D01*
X107504010Y-98296589D01*
X107392068Y-98566842D01*
X107335000Y-98853740D01*
X105660000Y-98853740D01*
X105660000Y-97160000D01*
X194340000Y-97160000D01*
X194340001Y-120840000D01*
G04 #@! TA.AperFunction,Conductor*
D22*
G36*
X194340001Y-120840000D02*
G01*
X105660000Y-120840000D01*
X105660000Y-116353740D01*
X107335000Y-116353740D01*
X107335000Y-116646260D01*
X107392068Y-116933158D01*
X107504010Y-117203411D01*
X107666525Y-117446632D01*
X107873368Y-117653475D01*
X108017828Y-117750000D01*
X107873368Y-117846525D01*
X107666525Y-118053368D01*
X107504010Y-118296589D01*
X107392068Y-118566842D01*
X107335000Y-118853740D01*
X107335000Y-119146260D01*
X107392068Y-119433158D01*
X107504010Y-119703411D01*
X107666525Y-119946632D01*
X107873368Y-120153475D01*
X108116589Y-120315990D01*
X108386842Y-120427932D01*
X108673740Y-120485000D01*
X108966260Y-120485000D01*
X109253158Y-120427932D01*
X109523411Y-120315990D01*
X109766632Y-120153475D01*
X109973475Y-119946632D01*
X110135990Y-119703411D01*
X110247932Y-119433158D01*
X110305000Y-119146260D01*
X110305000Y-118853740D01*
X110247932Y-118566842D01*
X110135990Y-118296589D01*
X109973475Y-118053368D01*
X109766632Y-117846525D01*
X109622172Y-117750000D01*
X109766632Y-117653475D01*
X109973475Y-117446632D01*
X110135990Y-117203411D01*
X110247932Y-116933158D01*
X110305000Y-116646260D01*
X110305000Y-116353740D01*
X110247932Y-116066842D01*
X110135990Y-115796589D01*
X109973475Y-115553368D01*
X109766632Y-115346525D01*
X109523411Y-115184010D01*
X109253158Y-115072068D01*
X108966260Y-115015000D01*
X108673740Y-115015000D01*
X108386842Y-115072068D01*
X108116589Y-115184010D01*
X107873368Y-115346525D01*
X107666525Y-115553368D01*
X107504010Y-115796589D01*
X107392068Y-116066842D01*
X107335000Y-116353740D01*
X105660000Y-116353740D01*
X105660000Y-111353740D01*
X107335000Y-111353740D01*
X107335000Y-111646260D01*
X107392068Y-111933158D01*
X107504010Y-112203411D01*
X107666525Y-112446632D01*
X107873368Y-112653475D01*
X108116589Y-112815990D01*
X108386842Y-112927932D01*
X108673740Y-112985000D01*
X108966260Y-112985000D01*
X109253158Y-112927932D01*
X109523411Y-112815990D01*
X109766632Y-112653475D01*
X109973475Y-112446632D01*
X110038042Y-112350000D01*
X114261928Y-112350000D01*
X114274188Y-112474482D01*
X114310498Y-112594180D01*
X114369463Y-112704494D01*
X114448815Y-112801185D01*
X114545506Y-112880537D01*
X114655820Y-112939502D01*
X114775518Y-112975812D01*
X114900000Y-112988072D01*
X115714250Y-112985000D01*
X115873000Y-112826250D01*
X115873000Y-111627000D01*
X116127000Y-111627000D01*
X116127000Y-112826250D01*
X116285750Y-112985000D01*
X117100000Y-112988072D01*
X117224482Y-112975812D01*
X117344180Y-112939502D01*
X117454494Y-112880537D01*
X117551185Y-112801185D01*
X117630537Y-112704494D01*
X117689502Y-112594180D01*
X117725812Y-112474482D01*
X117738072Y-112350000D01*
X117735000Y-111785750D01*
X117576250Y-111627000D01*
X116127000Y-111627000D01*
X115873000Y-111627000D01*
X114423750Y-111627000D01*
X114265000Y-111785750D01*
X114261928Y-112350000D01*
X110038042Y-112350000D01*
X110135990Y-112203411D01*
X110247932Y-111933158D01*
X110305000Y-111646260D01*
X110305000Y-111353740D01*
X110247932Y-111066842D01*
X110135990Y-110796589D01*
X109973475Y-110553368D01*
X109766632Y-110346525D01*
X109523411Y-110184010D01*
X109253158Y-110072068D01*
X108966260Y-110015000D01*
X108673740Y-110015000D01*
X108386842Y-110072068D01*
X108116589Y-110184010D01*
X107873368Y-110346525D01*
X107666525Y-110553368D01*
X107504010Y-110796589D01*
X107392068Y-111066842D01*
X107335000Y-111353740D01*
X105660000Y-111353740D01*
X105660000Y-106353740D01*
X107335000Y-106353740D01*
X107335000Y-106646260D01*
X107392068Y-106933158D01*
X107504010Y-107203411D01*
X107666525Y-107446632D01*
X107873368Y-107653475D01*
X108116589Y-107815990D01*
X108386842Y-107927932D01*
X108673740Y-107985000D01*
X108966260Y-107985000D01*
X109253158Y-107927932D01*
X109523411Y-107815990D01*
X109766632Y-107653475D01*
X109973475Y-107446632D01*
X110135990Y-107203411D01*
X110247932Y-106933158D01*
X110305000Y-106646260D01*
X110305000Y-106500000D01*
X114257815Y-106500000D01*
X114286487Y-106791111D01*
X114371401Y-107071034D01*
X114509294Y-107329014D01*
X114694866Y-107555134D01*
X114920986Y-107740706D01*
X114938374Y-107750000D01*
X114920986Y-107759294D01*
X114694866Y-107944866D01*
X114509294Y-108170986D01*
X114371401Y-108428966D01*
X114286487Y-108708889D01*
X114257815Y-109000000D01*
X114286487Y-109291111D01*
X114371401Y-109571034D01*
X114509294Y-109829014D01*
X114690608Y-110049945D01*
X114655820Y-110060498D01*
X114545506Y-110119463D01*
X114448815Y-110198815D01*
X114369463Y-110295506D01*
X114310498Y-110405820D01*
X114274188Y-110525518D01*
X114261928Y-110650000D01*
X114265000Y-111214250D01*
X114423750Y-111373000D01*
X115873000Y-111373000D01*
X115873000Y-111353000D01*
X116127000Y-111353000D01*
X116127000Y-111373000D01*
X117576250Y-111373000D01*
X117735000Y-111214250D01*
X117738072Y-110650000D01*
X117725812Y-110525518D01*
X117689502Y-110405820D01*
X117630537Y-110295506D01*
X117551185Y-110198815D01*
X117454494Y-110119463D01*
X117344180Y-110060498D01*
X117309392Y-110049945D01*
X117444759Y-109885000D01*
X118956531Y-109885000D01*
X119000000Y-109889281D01*
X119043469Y-109885000D01*
X121133422Y-109885000D01*
X123018480Y-111770059D01*
X123046193Y-111803827D01*
X123079961Y-111831540D01*
X123079963Y-111831542D01*
X123079968Y-111831546D01*
X126115001Y-114866580D01*
X126115001Y-115624940D01*
X125957748Y-115730013D01*
X125730013Y-115957748D01*
X125551082Y-116225537D01*
X125427832Y-116523088D01*
X125365000Y-116838967D01*
X125365000Y-117161033D01*
X125427832Y-117476912D01*
X125551082Y-117774463D01*
X125730013Y-118042252D01*
X125952751Y-118264990D01*
X124408876Y-118264990D01*
X124455808Y-118135413D01*
X123500000Y-117179605D01*
X122544192Y-118135413D01*
X122591124Y-118264990D01*
X117724775Y-118264990D01*
X117721008Y-118226746D01*
X117670472Y-118060150D01*
X117588405Y-117906614D01*
X117477962Y-117772038D01*
X117343386Y-117661595D01*
X117241663Y-117607223D01*
X117305134Y-117555134D01*
X117490706Y-117329014D01*
X117628599Y-117071034D01*
X117631158Y-117062595D01*
X121858282Y-117062595D01*
X121902039Y-117381675D01*
X122007205Y-117686088D01*
X122100186Y-117860044D01*
X122364587Y-117955808D01*
X123320395Y-117000000D01*
X123679605Y-117000000D01*
X124635413Y-117955808D01*
X124899814Y-117860044D01*
X125040704Y-117570429D01*
X125122384Y-117258892D01*
X125141718Y-116937405D01*
X125097961Y-116618325D01*
X124992795Y-116313912D01*
X124899814Y-116139956D01*
X124635413Y-116044192D01*
X123679605Y-117000000D01*
X123320395Y-117000000D01*
X122364587Y-116044192D01*
X122100186Y-116139956D01*
X121959296Y-116429571D01*
X121877616Y-116741108D01*
X121858282Y-117062595D01*
X117631158Y-117062595D01*
X117713513Y-116791111D01*
X117742185Y-116500000D01*
X117713513Y-116208889D01*
X117628599Y-115928966D01*
X117594188Y-115864587D01*
X122544192Y-115864587D01*
X123500000Y-116820395D01*
X124455808Y-115864587D01*
X124360044Y-115600186D01*
X124070429Y-115459296D01*
X123758892Y-115377616D01*
X123437405Y-115358282D01*
X123118325Y-115402039D01*
X122813912Y-115507205D01*
X122639956Y-115600186D01*
X122544192Y-115864587D01*
X117594188Y-115864587D01*
X117490706Y-115670986D01*
X117305134Y-115444866D01*
X117079014Y-115259294D01*
X116821034Y-115121401D01*
X116541111Y-115036487D01*
X116322950Y-115015000D01*
X115677050Y-115015000D01*
X115458889Y-115036487D01*
X115178966Y-115121401D01*
X114920986Y-115259294D01*
X114694866Y-115444866D01*
X114509294Y-115670986D01*
X114371401Y-115928966D01*
X114286487Y-116208889D01*
X114257815Y-116500000D01*
X114286487Y-116791111D01*
X114371401Y-117071034D01*
X114509294Y-117329014D01*
X114694866Y-117555134D01*
X114758337Y-117607223D01*
X114656614Y-117661595D01*
X114522038Y-117772038D01*
X114411595Y-117906614D01*
X114329528Y-118060150D01*
X114278992Y-118226746D01*
X114261928Y-118400000D01*
X114261928Y-119600000D01*
X114278992Y-119773254D01*
X114329528Y-119939850D01*
X114411595Y-120093386D01*
X114522038Y-120227962D01*
X114656614Y-120338405D01*
X114810150Y-120420472D01*
X114976746Y-120471008D01*
X115150000Y-120488072D01*
X116850000Y-120488072D01*
X117023254Y-120471008D01*
X117189850Y-120420472D01*
X117343386Y-120338405D01*
X117477962Y-120227962D01*
X117588405Y-120093386D01*
X117670472Y-119939850D01*
X117687113Y-119884990D01*
X143349300Y-119884990D01*
X143509744Y-119992195D01*
X143698102Y-120070216D01*
X143898061Y-120109990D01*
X144101939Y-120109990D01*
X144301898Y-120070216D01*
X144490256Y-119992195D01*
X144659774Y-119878927D01*
X144803937Y-119734764D01*
X144864615Y-119643952D01*
X144879941Y-119656530D01*
X144879943Y-119656532D01*
X144921638Y-119690750D01*
X144980931Y-119739411D01*
X145134677Y-119821589D01*
X145301500Y-119872195D01*
X145431513Y-119885000D01*
X145431521Y-119885000D01*
X145457903Y-119887598D01*
X145466736Y-119888468D01*
X145509744Y-119917205D01*
X145698102Y-119995226D01*
X145898061Y-120035000D01*
X146101939Y-120035000D01*
X146301898Y-119995226D01*
X146382988Y-119961637D01*
X146386595Y-119968386D01*
X146497038Y-120102962D01*
X146631614Y-120213405D01*
X146785150Y-120295472D01*
X146951746Y-120346008D01*
X147125000Y-120363072D01*
X147800000Y-120363072D01*
X147973254Y-120346008D01*
X148139850Y-120295472D01*
X148293386Y-120213405D01*
X148427962Y-120102962D01*
X148433342Y-120096406D01*
X148498815Y-120176185D01*
X148595506Y-120255537D01*
X148705820Y-120314502D01*
X148825518Y-120350812D01*
X148950000Y-120363072D01*
X149251750Y-120360000D01*
X149410500Y-120201250D01*
X149410500Y-119127000D01*
X149664500Y-119127000D01*
X149664500Y-120201250D01*
X149823250Y-120360000D01*
X150125000Y-120363072D01*
X150249482Y-120350812D01*
X150369180Y-120314502D01*
X150479494Y-120255537D01*
X150576185Y-120176185D01*
X150655537Y-120079494D01*
X150714502Y-119969180D01*
X150750812Y-119849482D01*
X150763072Y-119725000D01*
X150762933Y-119705000D01*
X164411928Y-119705000D01*
X164424188Y-119829482D01*
X164460498Y-119949180D01*
X164519463Y-120059494D01*
X164598815Y-120156185D01*
X164695506Y-120235537D01*
X164805820Y-120294502D01*
X164925518Y-120330812D01*
X165050000Y-120343072D01*
X165739250Y-120340000D01*
X165898000Y-120181250D01*
X165898000Y-119532000D01*
X164573750Y-119532000D01*
X164415000Y-119690750D01*
X164411928Y-119705000D01*
X150762933Y-119705000D01*
X150760000Y-119285750D01*
X150601250Y-119127000D01*
X149664500Y-119127000D01*
X149410500Y-119127000D01*
X149390500Y-119127000D01*
X149390500Y-118873000D01*
X149410500Y-118873000D01*
X149410500Y-117798750D01*
X149664500Y-117798750D01*
X149664500Y-118873000D01*
X150601250Y-118873000D01*
X150760000Y-118714250D01*
X150763072Y-118275000D01*
X150750812Y-118150518D01*
X150714502Y-118030820D01*
X150655537Y-117920506D01*
X150576185Y-117823815D01*
X150479494Y-117744463D01*
X150369180Y-117685498D01*
X150249482Y-117649188D01*
X150125000Y-117636928D01*
X149823250Y-117640000D01*
X149664500Y-117798750D01*
X149410500Y-117798750D01*
X149251750Y-117640000D01*
X148950000Y-117636928D01*
X148825518Y-117649188D01*
X148705820Y-117685498D01*
X148595506Y-117744463D01*
X148498815Y-117823815D01*
X148433342Y-117903594D01*
X148427962Y-117897038D01*
X148342672Y-117827043D01*
X148397251Y-117782251D01*
X148495258Y-117662829D01*
X148568084Y-117526582D01*
X148606817Y-117398895D01*
X148700000Y-117408072D01*
X149114250Y-117405000D01*
X149273000Y-117246250D01*
X149273000Y-116297000D01*
X149527000Y-116297000D01*
X149527000Y-117246250D01*
X149685750Y-117405000D01*
X150100000Y-117408072D01*
X150224482Y-117395812D01*
X150344180Y-117359502D01*
X150454494Y-117300537D01*
X150551185Y-117221185D01*
X150630537Y-117124494D01*
X150689502Y-117014180D01*
X150725812Y-116894482D01*
X150738072Y-116770000D01*
X150735000Y-116455750D01*
X150618217Y-116338967D01*
X154865000Y-116338967D01*
X154865000Y-116661033D01*
X154927832Y-116976912D01*
X155051082Y-117274463D01*
X155230013Y-117542252D01*
X155457748Y-117769987D01*
X155725537Y-117948918D01*
X156023088Y-118072168D01*
X156338967Y-118135000D01*
X156661033Y-118135000D01*
X156976912Y-118072168D01*
X157274463Y-117948918D01*
X157350575Y-117898061D01*
X160715000Y-117898061D01*
X160715000Y-118101939D01*
X160754774Y-118301898D01*
X160832795Y-118490256D01*
X160946063Y-118659774D01*
X161090226Y-118803937D01*
X161259744Y-118917205D01*
X161448102Y-118995226D01*
X161648061Y-119035000D01*
X161851939Y-119035000D01*
X162051898Y-118995226D01*
X162240256Y-118917205D01*
X162288454Y-118885000D01*
X162300230Y-118885000D01*
X162397038Y-119002962D01*
X162531614Y-119113405D01*
X162685150Y-119195472D01*
X162851746Y-119246008D01*
X163025000Y-119263072D01*
X163975000Y-119263072D01*
X164148254Y-119246008D01*
X164314850Y-119195472D01*
X164429787Y-119134037D01*
X164573750Y-119278000D01*
X164647245Y-119278000D01*
X164756996Y-119336664D01*
X164876118Y-119372799D01*
X165000000Y-119385000D01*
X166172000Y-119385000D01*
X166172000Y-119532000D01*
X166152000Y-119532000D01*
X166152000Y-120181250D01*
X166310750Y-120340000D01*
X166716148Y-120341807D01*
X166722017Y-120352787D01*
X166800987Y-120449013D01*
X166897213Y-120527983D01*
X167006996Y-120586664D01*
X167126118Y-120622799D01*
X167250000Y-120635000D01*
X171750000Y-120635000D01*
X171873882Y-120622799D01*
X171993004Y-120586664D01*
X172102787Y-120527983D01*
X172199013Y-120449013D01*
X172277983Y-120352787D01*
X172311544Y-120290000D01*
X172826289Y-120290000D01*
X172840226Y-120303937D01*
X173009744Y-120417205D01*
X173198102Y-120495226D01*
X173398061Y-120535000D01*
X173601939Y-120535000D01*
X173801898Y-120495226D01*
X173990256Y-120417205D01*
X174159774Y-120303937D01*
X174303937Y-120159774D01*
X174417205Y-119990256D01*
X174495226Y-119801898D01*
X174535000Y-119601939D01*
X174535000Y-119398061D01*
X174495226Y-119198102D01*
X174461637Y-119117012D01*
X174468386Y-119113405D01*
X174602962Y-119002962D01*
X174713405Y-118868386D01*
X174795472Y-118714850D01*
X174846008Y-118548254D01*
X174863072Y-118375000D01*
X174863072Y-117700000D01*
X174846008Y-117526746D01*
X174795472Y-117360150D01*
X174713405Y-117206614D01*
X174602962Y-117072038D01*
X174515183Y-117000000D01*
X174602962Y-116927962D01*
X174668995Y-116847500D01*
X175095922Y-116847500D01*
X175615000Y-117366579D01*
X175615000Y-117624940D01*
X175457748Y-117730013D01*
X175230013Y-117957748D01*
X175051082Y-118225537D01*
X174927832Y-118523088D01*
X174865000Y-118838967D01*
X174865000Y-119161033D01*
X174927832Y-119476912D01*
X175051082Y-119774463D01*
X175230013Y-120042252D01*
X175457748Y-120269987D01*
X175725537Y-120448918D01*
X176023088Y-120572168D01*
X176338967Y-120635000D01*
X176661033Y-120635000D01*
X176976912Y-120572168D01*
X177274463Y-120448918D01*
X177542252Y-120269987D01*
X177769987Y-120042252D01*
X177948918Y-119774463D01*
X178072168Y-119476912D01*
X178135000Y-119161033D01*
X178135000Y-118838967D01*
X178072168Y-118523088D01*
X177948918Y-118225537D01*
X177769987Y-117957748D01*
X177542252Y-117730013D01*
X177385000Y-117624941D01*
X177385000Y-117043469D01*
X177389281Y-117000000D01*
X177385000Y-116956531D01*
X177385000Y-116956523D01*
X177374262Y-116847500D01*
X182261928Y-116847500D01*
X182261928Y-117100000D01*
X182278992Y-117273254D01*
X182329528Y-117439850D01*
X182411595Y-117593386D01*
X182522038Y-117727962D01*
X182656614Y-117838405D01*
X182758337Y-117892777D01*
X182694866Y-117944866D01*
X182509294Y-118170986D01*
X182371401Y-118428966D01*
X182286487Y-118708889D01*
X182257815Y-119000000D01*
X182286487Y-119291111D01*
X182371401Y-119571034D01*
X182509294Y-119829014D01*
X182694866Y-120055134D01*
X182920986Y-120240706D01*
X183178966Y-120378599D01*
X183458889Y-120463513D01*
X183677050Y-120485000D01*
X184322950Y-120485000D01*
X184541111Y-120463513D01*
X184821034Y-120378599D01*
X185079014Y-120240706D01*
X185305134Y-120055134D01*
X185490706Y-119829014D01*
X185628599Y-119571034D01*
X185713513Y-119291111D01*
X185742185Y-119000000D01*
X185713513Y-118708889D01*
X185628599Y-118428966D01*
X185490706Y-118170986D01*
X185305134Y-117944866D01*
X185241663Y-117892777D01*
X185343386Y-117838405D01*
X185477962Y-117727962D01*
X185588405Y-117593386D01*
X185670472Y-117439850D01*
X185721008Y-117273254D01*
X185738072Y-117100000D01*
X185738072Y-116353740D01*
X189695000Y-116353740D01*
X189695000Y-116646260D01*
X189752068Y-116933158D01*
X189864010Y-117203411D01*
X190026525Y-117446632D01*
X190233368Y-117653475D01*
X190377828Y-117750000D01*
X190233368Y-117846525D01*
X190026525Y-118053368D01*
X189864010Y-118296589D01*
X189752068Y-118566842D01*
X189695000Y-118853740D01*
X189695000Y-119146260D01*
X189752068Y-119433158D01*
X189864010Y-119703411D01*
X190026525Y-119946632D01*
X190233368Y-120153475D01*
X190476589Y-120315990D01*
X190746842Y-120427932D01*
X191033740Y-120485000D01*
X191326260Y-120485000D01*
X191613158Y-120427932D01*
X191883411Y-120315990D01*
X192126632Y-120153475D01*
X192333475Y-119946632D01*
X192495990Y-119703411D01*
X192607932Y-119433158D01*
X192665000Y-119146260D01*
X192665000Y-118853740D01*
X192607932Y-118566842D01*
X192495990Y-118296589D01*
X192333475Y-118053368D01*
X192126632Y-117846525D01*
X191982172Y-117750000D01*
X192126632Y-117653475D01*
X192333475Y-117446632D01*
X192495990Y-117203411D01*
X192607932Y-116933158D01*
X192665000Y-116646260D01*
X192665000Y-116353740D01*
X192607932Y-116066842D01*
X192495990Y-115796589D01*
X192333475Y-115553368D01*
X192126632Y-115346525D01*
X191883411Y-115184010D01*
X191613158Y-115072068D01*
X191326260Y-115015000D01*
X191033740Y-115015000D01*
X190746842Y-115072068D01*
X190476589Y-115184010D01*
X190233368Y-115346525D01*
X190026525Y-115553368D01*
X189864010Y-115796589D01*
X189752068Y-116066842D01*
X189695000Y-116353740D01*
X185738072Y-116353740D01*
X185738072Y-115900000D01*
X185721008Y-115726746D01*
X185670472Y-115560150D01*
X185588405Y-115406614D01*
X185477962Y-115272038D01*
X185343386Y-115161595D01*
X185189850Y-115079528D01*
X185023254Y-115028992D01*
X184850000Y-115011928D01*
X183150000Y-115011928D01*
X182976746Y-115028992D01*
X182816835Y-115077500D01*
X175505969Y-115077500D01*
X175462500Y-115073219D01*
X175419031Y-115077500D01*
X174668995Y-115077500D01*
X174602962Y-114997038D01*
X174468386Y-114886595D01*
X174314850Y-114804528D01*
X174148254Y-114753992D01*
X173975000Y-114736928D01*
X173352547Y-114736928D01*
X173305990Y-114722805D01*
X173175977Y-114710000D01*
X173175969Y-114710000D01*
X173132500Y-114705719D01*
X173089031Y-114710000D01*
X172078783Y-114710000D01*
X171953745Y-114672071D01*
X171800000Y-114656928D01*
X170150000Y-114656928D01*
X170007309Y-114670982D01*
X169993004Y-114663336D01*
X169873882Y-114627201D01*
X169750000Y-114615000D01*
X169538454Y-114615000D01*
X169490256Y-114582795D01*
X169301898Y-114504774D01*
X169101939Y-114465000D01*
X168898061Y-114465000D01*
X168698102Y-114504774D01*
X168509744Y-114582795D01*
X168500000Y-114589306D01*
X168490256Y-114582795D01*
X168301898Y-114504774D01*
X168101939Y-114465000D01*
X167898061Y-114465000D01*
X167698102Y-114504774D01*
X167509744Y-114582795D01*
X167461546Y-114615000D01*
X167250000Y-114615000D01*
X167126118Y-114627201D01*
X167021228Y-114659019D01*
X167000000Y-114656928D01*
X166310750Y-114660000D01*
X166152000Y-114818750D01*
X166152000Y-115468000D01*
X166172000Y-115468000D01*
X166172000Y-115615000D01*
X165878000Y-115615000D01*
X165878000Y-115468000D01*
X165898000Y-115468000D01*
X165898000Y-114818750D01*
X165739250Y-114660000D01*
X165050000Y-114656928D01*
X164925518Y-114669188D01*
X164805820Y-114705498D01*
X164695506Y-114764463D01*
X164598815Y-114843815D01*
X164590721Y-114853677D01*
X164579494Y-114844463D01*
X164469180Y-114785498D01*
X164349482Y-114749188D01*
X164225000Y-114736928D01*
X163785750Y-114740000D01*
X163627000Y-114898750D01*
X163627000Y-115835500D01*
X163647000Y-115835500D01*
X163647000Y-116089500D01*
X163627000Y-116089500D01*
X163627000Y-116109500D01*
X163373000Y-116109500D01*
X163373000Y-116089500D01*
X162298750Y-116089500D01*
X162140000Y-116248250D01*
X162136928Y-116550000D01*
X162149188Y-116674482D01*
X162185498Y-116794180D01*
X162244463Y-116904494D01*
X162323815Y-117001185D01*
X162403594Y-117066658D01*
X162397038Y-117072038D01*
X162361780Y-117115000D01*
X162288454Y-117115000D01*
X162240256Y-117082795D01*
X162051898Y-117004774D01*
X161851939Y-116965000D01*
X161648061Y-116965000D01*
X161448102Y-117004774D01*
X161259744Y-117082795D01*
X161090226Y-117196063D01*
X160946063Y-117340226D01*
X160832795Y-117509744D01*
X160754774Y-117698102D01*
X160715000Y-117898061D01*
X157350575Y-117898061D01*
X157542252Y-117769987D01*
X157769987Y-117542252D01*
X157948918Y-117274463D01*
X158072168Y-116976912D01*
X158135000Y-116661033D01*
X158135000Y-116338967D01*
X158072168Y-116023088D01*
X157948918Y-115725537D01*
X157809886Y-115517461D01*
X157898061Y-115535000D01*
X158101939Y-115535000D01*
X158301898Y-115495226D01*
X158490256Y-115417205D01*
X158500000Y-115410694D01*
X158509744Y-115417205D01*
X158698102Y-115495226D01*
X158898061Y-115535000D01*
X159101939Y-115535000D01*
X159301898Y-115495226D01*
X159490256Y-115417205D01*
X159500000Y-115410694D01*
X159509744Y-115417205D01*
X159698102Y-115495226D01*
X159898061Y-115535000D01*
X160101939Y-115535000D01*
X160301898Y-115495226D01*
X160490256Y-115417205D01*
X160553420Y-115375000D01*
X162136928Y-115375000D01*
X162140000Y-115676750D01*
X162298750Y-115835500D01*
X163373000Y-115835500D01*
X163373000Y-114898750D01*
X163214250Y-114740000D01*
X162775000Y-114736928D01*
X162650518Y-114749188D01*
X162530820Y-114785498D01*
X162420506Y-114844463D01*
X162323815Y-114923815D01*
X162244463Y-115020506D01*
X162185498Y-115130820D01*
X162149188Y-115250518D01*
X162136928Y-115375000D01*
X160553420Y-115375000D01*
X160659774Y-115303937D01*
X160803937Y-115159774D01*
X160917205Y-114990256D01*
X160995226Y-114801898D01*
X161035000Y-114601939D01*
X161035000Y-114398061D01*
X160995226Y-114198102D01*
X160917205Y-114009744D01*
X160885000Y-113961546D01*
X160885000Y-112743469D01*
X160889281Y-112700000D01*
X160885000Y-112656531D01*
X160885000Y-112656523D01*
X160872195Y-112526510D01*
X160836452Y-112408683D01*
X160821589Y-112359686D01*
X160788072Y-112296980D01*
X160788072Y-110955000D01*
X164411928Y-110955000D01*
X164424188Y-111079482D01*
X164460498Y-111199180D01*
X164519463Y-111309494D01*
X164598815Y-111406185D01*
X164695506Y-111485537D01*
X164805820Y-111544502D01*
X164925518Y-111580812D01*
X165050000Y-111593072D01*
X165739250Y-111590000D01*
X165898000Y-111431250D01*
X165898000Y-110782000D01*
X164573750Y-110782000D01*
X164415000Y-110940750D01*
X164411928Y-110955000D01*
X160788072Y-110955000D01*
X160788072Y-109950000D01*
X160775812Y-109825518D01*
X160739502Y-109705820D01*
X160680537Y-109595506D01*
X160601185Y-109498815D01*
X160504494Y-109419463D01*
X160394180Y-109360498D01*
X160274482Y-109324188D01*
X160150000Y-109311928D01*
X157850000Y-109311928D01*
X157725518Y-109324188D01*
X157605820Y-109360498D01*
X157495506Y-109419463D01*
X157398815Y-109498815D01*
X157319463Y-109595506D01*
X157260498Y-109705820D01*
X157224188Y-109825518D01*
X157211928Y-109950000D01*
X157211928Y-112296982D01*
X157178412Y-112359687D01*
X157127805Y-112526510D01*
X157110719Y-112700000D01*
X157115001Y-112743479D01*
X157115000Y-113624014D01*
X157076510Y-113627805D01*
X156909687Y-113678411D01*
X156755941Y-113760589D01*
X156738381Y-113775000D01*
X156654953Y-113843468D01*
X156654951Y-113843470D01*
X156621183Y-113871183D01*
X156593470Y-113904951D01*
X155904956Y-114593466D01*
X155871183Y-114621183D01*
X155760589Y-114755942D01*
X155678411Y-114909688D01*
X155644794Y-115020506D01*
X155628804Y-115073219D01*
X155627805Y-115076511D01*
X155623601Y-115119193D01*
X155457748Y-115230013D01*
X155230013Y-115457748D01*
X155051082Y-115725537D01*
X154927832Y-116023088D01*
X154865000Y-116338967D01*
X150618217Y-116338967D01*
X150576250Y-116297000D01*
X149527000Y-116297000D01*
X149273000Y-116297000D01*
X149253000Y-116297000D01*
X149253000Y-116043000D01*
X149273000Y-116043000D01*
X149273000Y-116023000D01*
X149527000Y-116023000D01*
X149527000Y-116043000D01*
X150576250Y-116043000D01*
X150735000Y-115884250D01*
X150738072Y-115570000D01*
X150725812Y-115445518D01*
X150689502Y-115325820D01*
X150630537Y-115215506D01*
X150551185Y-115118815D01*
X150521724Y-115094637D01*
X150588405Y-115013387D01*
X150670472Y-114859851D01*
X150721008Y-114693255D01*
X150738072Y-114520001D01*
X150738072Y-114083506D01*
X151333506Y-113488072D01*
X154300000Y-113488072D01*
X154424482Y-113475812D01*
X154544180Y-113439502D01*
X154654494Y-113380537D01*
X154751185Y-113301185D01*
X154830537Y-113204494D01*
X154889502Y-113094180D01*
X154925812Y-112974482D01*
X154938072Y-112850000D01*
X154938072Y-109750000D01*
X154925812Y-109625518D01*
X154889502Y-109505820D01*
X154830537Y-109395506D01*
X154751185Y-109298815D01*
X154654494Y-109219463D01*
X154544180Y-109160498D01*
X154424482Y-109124188D01*
X154300000Y-109111928D01*
X150700000Y-109111928D01*
X150575518Y-109124188D01*
X150455820Y-109160498D01*
X150345506Y-109219463D01*
X150248815Y-109298815D01*
X150169463Y-109395506D01*
X150110498Y-109505820D01*
X150074188Y-109625518D01*
X150061928Y-109750000D01*
X150061928Y-112256494D01*
X149386494Y-112931928D01*
X148949999Y-112931928D01*
X148776745Y-112948992D01*
X148616509Y-112997599D01*
X148612929Y-112961255D01*
X148568084Y-112813418D01*
X148495258Y-112677171D01*
X148397251Y-112557749D01*
X148277829Y-112459742D01*
X148141582Y-112386916D01*
X147993745Y-112342071D01*
X147901573Y-112332993D01*
X148023255Y-112321008D01*
X148189851Y-112270472D01*
X148343387Y-112188405D01*
X148477962Y-112077962D01*
X148588405Y-111943387D01*
X148670472Y-111789851D01*
X148721008Y-111623255D01*
X148738072Y-111450001D01*
X148738072Y-110549999D01*
X148721008Y-110376745D01*
X148670472Y-110210149D01*
X148588405Y-110056613D01*
X148477962Y-109922038D01*
X148385000Y-109845746D01*
X148385000Y-109741852D01*
X148435313Y-109726589D01*
X148589059Y-109644411D01*
X148723817Y-109533817D01*
X148751534Y-109500044D01*
X149495044Y-108756535D01*
X149551898Y-108745226D01*
X149740256Y-108667205D01*
X149909774Y-108553937D01*
X150053937Y-108409774D01*
X150167205Y-108240256D01*
X150245226Y-108051898D01*
X150285000Y-107851939D01*
X150285000Y-107730881D01*
X150345506Y-107780537D01*
X150455820Y-107839502D01*
X150575518Y-107875812D01*
X150700000Y-107888072D01*
X154300000Y-107888072D01*
X154424482Y-107875812D01*
X154544180Y-107839502D01*
X154654494Y-107780537D01*
X154751185Y-107701185D01*
X154830537Y-107604494D01*
X154889502Y-107494180D01*
X154925812Y-107374482D01*
X154938072Y-107250000D01*
X154938072Y-107185000D01*
X157211928Y-107185000D01*
X157211928Y-108050000D01*
X157224188Y-108174482D01*
X157260498Y-108294180D01*
X157319463Y-108404494D01*
X157398815Y-108501185D01*
X157495506Y-108580537D01*
X157605820Y-108639502D01*
X157725518Y-108675812D01*
X157850000Y-108688072D01*
X160150000Y-108688072D01*
X160274482Y-108675812D01*
X160394180Y-108639502D01*
X160504494Y-108580537D01*
X160601185Y-108501185D01*
X160680537Y-108404494D01*
X160739502Y-108294180D01*
X160775812Y-108174482D01*
X160788072Y-108050000D01*
X160788072Y-107650000D01*
X162136928Y-107650000D01*
X162149188Y-107774482D01*
X162185498Y-107894180D01*
X162244463Y-108004494D01*
X162323815Y-108101185D01*
X162403594Y-108166658D01*
X162397038Y-108172038D01*
X162286595Y-108306614D01*
X162204528Y-108460150D01*
X162153992Y-108626746D01*
X162136928Y-108800000D01*
X162136928Y-109475000D01*
X162153992Y-109648254D01*
X162204528Y-109814850D01*
X162286595Y-109968386D01*
X162397038Y-110102962D01*
X162531614Y-110213405D01*
X162685150Y-110295472D01*
X162851746Y-110346008D01*
X163025000Y-110363072D01*
X163975000Y-110363072D01*
X164148254Y-110346008D01*
X164314850Y-110295472D01*
X164362505Y-110270000D01*
X164420299Y-110270000D01*
X164411928Y-110355000D01*
X164415000Y-110369250D01*
X164573750Y-110528000D01*
X164647245Y-110528000D01*
X164756996Y-110586664D01*
X164876118Y-110622799D01*
X165000000Y-110635000D01*
X166172000Y-110635000D01*
X166172000Y-110782000D01*
X166152000Y-110782000D01*
X166152000Y-111431250D01*
X166310750Y-111590000D01*
X166716148Y-111591807D01*
X166722017Y-111602787D01*
X166800987Y-111699013D01*
X166897213Y-111777983D01*
X167006996Y-111836664D01*
X167126118Y-111872799D01*
X167250000Y-111885000D01*
X168883422Y-111885000D01*
X170268866Y-113270445D01*
X170278992Y-113373255D01*
X170329528Y-113539851D01*
X170411595Y-113693387D01*
X170522038Y-113827962D01*
X170656613Y-113938405D01*
X170810149Y-114020472D01*
X170976745Y-114071008D01*
X171149999Y-114088072D01*
X171850001Y-114088072D01*
X172023255Y-114071008D01*
X172189851Y-114020472D01*
X172343387Y-113938405D01*
X172477962Y-113827962D01*
X172500000Y-113801109D01*
X172522038Y-113827962D01*
X172656613Y-113938405D01*
X172810149Y-114020472D01*
X172976745Y-114071008D01*
X173149999Y-114088072D01*
X173850001Y-114088072D01*
X174023255Y-114071008D01*
X174189851Y-114020472D01*
X174343387Y-113938405D01*
X174477962Y-113827962D01*
X174588405Y-113693387D01*
X174670472Y-113539851D01*
X174721008Y-113373255D01*
X174738072Y-113200001D01*
X174738072Y-112299999D01*
X174721008Y-112126745D01*
X174670472Y-111960149D01*
X174588405Y-111806613D01*
X174545632Y-111754494D01*
X174577962Y-111727962D01*
X174688405Y-111593387D01*
X174770472Y-111439851D01*
X174821008Y-111273255D01*
X174838072Y-111100001D01*
X174838072Y-110399999D01*
X174821008Y-110226745D01*
X174770472Y-110060149D01*
X174688405Y-109906613D01*
X174577962Y-109772038D01*
X174551109Y-109750000D01*
X174577962Y-109727962D01*
X174654254Y-109635000D01*
X175615001Y-109635000D01*
X175615001Y-109874940D01*
X175457748Y-109980013D01*
X175230013Y-110207748D01*
X175051082Y-110475537D01*
X174927832Y-110773088D01*
X174865000Y-111088967D01*
X174865000Y-111411033D01*
X174927832Y-111726912D01*
X175051082Y-112024463D01*
X175230013Y-112292252D01*
X175457748Y-112519987D01*
X175725537Y-112698918D01*
X176023088Y-112822168D01*
X176338967Y-112885000D01*
X176661033Y-112885000D01*
X176976912Y-112822168D01*
X177274463Y-112698918D01*
X177542252Y-112519987D01*
X177769987Y-112292252D01*
X177948918Y-112024463D01*
X178072168Y-111726912D01*
X178135000Y-111411033D01*
X178135000Y-111088967D01*
X178072168Y-110773088D01*
X177948918Y-110475537D01*
X177769987Y-110207748D01*
X177542252Y-109980013D01*
X177385000Y-109874941D01*
X177385000Y-109635000D01*
X182265375Y-109635000D01*
X182278992Y-109773254D01*
X182329528Y-109939850D01*
X182411595Y-110093386D01*
X182522038Y-110227962D01*
X182656614Y-110338405D01*
X182758337Y-110392777D01*
X182694866Y-110444866D01*
X182509294Y-110670986D01*
X182371401Y-110928966D01*
X182286487Y-111208889D01*
X182257815Y-111500000D01*
X182286487Y-111791111D01*
X182371401Y-112071034D01*
X182509294Y-112329014D01*
X182694866Y-112555134D01*
X182920986Y-112740706D01*
X183178966Y-112878599D01*
X183458889Y-112963513D01*
X183677050Y-112985000D01*
X184322950Y-112985000D01*
X184541111Y-112963513D01*
X184821034Y-112878599D01*
X185079014Y-112740706D01*
X185305134Y-112555134D01*
X185490706Y-112329014D01*
X185628599Y-112071034D01*
X185713513Y-111791111D01*
X185742185Y-111500000D01*
X185713513Y-111208889D01*
X185628599Y-110928966D01*
X185490706Y-110670986D01*
X185305134Y-110444866D01*
X185241663Y-110392777D01*
X185343386Y-110338405D01*
X185477962Y-110227962D01*
X185588405Y-110093386D01*
X185670472Y-109939850D01*
X185721008Y-109773254D01*
X185738072Y-109600000D01*
X185738072Y-108853740D01*
X189695000Y-108853740D01*
X189695000Y-109146260D01*
X189752068Y-109433158D01*
X189864010Y-109703411D01*
X190026525Y-109946632D01*
X190233368Y-110153475D01*
X190377828Y-110250000D01*
X190233368Y-110346525D01*
X190026525Y-110553368D01*
X189864010Y-110796589D01*
X189752068Y-111066842D01*
X189695000Y-111353740D01*
X189695000Y-111646260D01*
X189752068Y-111933158D01*
X189864010Y-112203411D01*
X190026525Y-112446632D01*
X190233368Y-112653475D01*
X190476589Y-112815990D01*
X190746842Y-112927932D01*
X191033740Y-112985000D01*
X191326260Y-112985000D01*
X191613158Y-112927932D01*
X191883411Y-112815990D01*
X192126632Y-112653475D01*
X192333475Y-112446632D01*
X192495990Y-112203411D01*
X192607932Y-111933158D01*
X192665000Y-111646260D01*
X192665000Y-111353740D01*
X192607932Y-111066842D01*
X192495990Y-110796589D01*
X192333475Y-110553368D01*
X192126632Y-110346525D01*
X191982172Y-110250000D01*
X192126632Y-110153475D01*
X192333475Y-109946632D01*
X192495990Y-109703411D01*
X192607932Y-109433158D01*
X192665000Y-109146260D01*
X192665000Y-108853740D01*
X192607932Y-108566842D01*
X192495990Y-108296589D01*
X192333475Y-108053368D01*
X192126632Y-107846525D01*
X191883411Y-107684010D01*
X191613158Y-107572068D01*
X191326260Y-107515000D01*
X191033740Y-107515000D01*
X190746842Y-107572068D01*
X190476589Y-107684010D01*
X190233368Y-107846525D01*
X190026525Y-108053368D01*
X189864010Y-108296589D01*
X189752068Y-108566842D01*
X189695000Y-108853740D01*
X185738072Y-108853740D01*
X185738072Y-108400000D01*
X185721008Y-108226746D01*
X185670472Y-108060150D01*
X185588405Y-107906614D01*
X185477962Y-107772038D01*
X185343386Y-107661595D01*
X185189850Y-107579528D01*
X185023254Y-107528992D01*
X184850000Y-107511928D01*
X183150000Y-107511928D01*
X182976746Y-107528992D01*
X182810150Y-107579528D01*
X182656614Y-107661595D01*
X182522038Y-107772038D01*
X182445747Y-107865000D01*
X176043469Y-107865000D01*
X176000000Y-107860719D01*
X175956531Y-107865000D01*
X174654254Y-107865000D01*
X174577962Y-107772038D01*
X174443387Y-107661595D01*
X174377085Y-107626155D01*
X174372195Y-107576510D01*
X174321589Y-107409687D01*
X174239411Y-107255941D01*
X174196430Y-107203569D01*
X174156532Y-107154953D01*
X174156530Y-107154951D01*
X174128817Y-107121183D01*
X174095050Y-107093471D01*
X173251532Y-106249954D01*
X173223817Y-106216183D01*
X173089059Y-106105589D01*
X172935313Y-106023411D01*
X172768490Y-105972805D01*
X172638477Y-105960000D01*
X172638469Y-105960000D01*
X172595000Y-105955719D01*
X172551531Y-105960000D01*
X172078783Y-105960000D01*
X171953745Y-105922071D01*
X171922502Y-105918994D01*
X172002962Y-105852962D01*
X172113405Y-105718386D01*
X172195472Y-105564850D01*
X172246008Y-105398254D01*
X172263072Y-105225000D01*
X172263072Y-104275000D01*
X172246008Y-104101746D01*
X172195472Y-103935150D01*
X172113405Y-103781614D01*
X172002962Y-103647038D01*
X171868386Y-103536595D01*
X171714850Y-103454528D01*
X171548254Y-103403992D01*
X171375000Y-103386928D01*
X170700000Y-103386928D01*
X170526746Y-103403992D01*
X170360150Y-103454528D01*
X170206614Y-103536595D01*
X170072038Y-103647038D01*
X170000000Y-103734817D01*
X169927962Y-103647038D01*
X169793386Y-103536595D01*
X169639850Y-103454528D01*
X169473254Y-103403992D01*
X169300000Y-103386928D01*
X168625000Y-103386928D01*
X168451746Y-103403992D01*
X168285150Y-103454528D01*
X168131614Y-103536595D01*
X167997038Y-103647038D01*
X167886595Y-103781614D01*
X167804528Y-103935150D01*
X167753992Y-104101746D01*
X167736928Y-104275000D01*
X167736928Y-104723994D01*
X167404951Y-105055971D01*
X167371184Y-105083683D01*
X167343471Y-105117451D01*
X167343468Y-105117454D01*
X167260590Y-105218441D01*
X167178412Y-105372187D01*
X167127805Y-105539010D01*
X167110719Y-105712500D01*
X167115001Y-105755978D01*
X167115001Y-105880573D01*
X167021228Y-105909019D01*
X167000000Y-105906928D01*
X166310750Y-105910000D01*
X166152000Y-106068750D01*
X166152000Y-106718000D01*
X166172000Y-106718000D01*
X166172000Y-106865000D01*
X165878000Y-106865000D01*
X165878000Y-106718000D01*
X165898000Y-106718000D01*
X165898000Y-106068750D01*
X165739250Y-105910000D01*
X165050000Y-105906928D01*
X164925518Y-105919188D01*
X164805820Y-105955498D01*
X164695506Y-106014463D01*
X164679375Y-106027702D01*
X164676185Y-106023815D01*
X164579494Y-105944463D01*
X164469180Y-105885498D01*
X164349482Y-105849188D01*
X164225000Y-105836928D01*
X163785750Y-105840000D01*
X163627000Y-105998750D01*
X163627000Y-106935500D01*
X163647000Y-106935500D01*
X163647000Y-107189500D01*
X163627000Y-107189500D01*
X163627000Y-107209500D01*
X163373000Y-107209500D01*
X163373000Y-107189500D01*
X162298750Y-107189500D01*
X162140000Y-107348250D01*
X162136928Y-107650000D01*
X160788072Y-107650000D01*
X160788072Y-106475000D01*
X162136928Y-106475000D01*
X162140000Y-106776750D01*
X162298750Y-106935500D01*
X163373000Y-106935500D01*
X163373000Y-105998750D01*
X163214250Y-105840000D01*
X162775000Y-105836928D01*
X162650518Y-105849188D01*
X162530820Y-105885498D01*
X162420506Y-105944463D01*
X162323815Y-106023815D01*
X162244463Y-106120506D01*
X162185498Y-106230820D01*
X162149188Y-106350518D01*
X162136928Y-106475000D01*
X160788072Y-106475000D01*
X160788072Y-104550000D01*
X160775812Y-104425518D01*
X160739502Y-104305820D01*
X160680537Y-104195506D01*
X160601185Y-104098815D01*
X160504494Y-104019463D01*
X160394180Y-103960498D01*
X160274482Y-103924188D01*
X160150000Y-103911928D01*
X157850000Y-103911928D01*
X157725518Y-103924188D01*
X157605820Y-103960498D01*
X157495506Y-104019463D01*
X157398815Y-104098815D01*
X157319463Y-104195506D01*
X157260498Y-104305820D01*
X157224188Y-104425518D01*
X157211928Y-104550000D01*
X157211928Y-105415000D01*
X154938072Y-105415000D01*
X154938072Y-104150000D01*
X154925812Y-104025518D01*
X154889502Y-103905820D01*
X154830537Y-103795506D01*
X154751185Y-103698815D01*
X154654494Y-103619463D01*
X154544180Y-103560498D01*
X154424482Y-103524188D01*
X154300000Y-103511928D01*
X150700000Y-103511928D01*
X150575518Y-103524188D01*
X150455820Y-103560498D01*
X150345506Y-103619463D01*
X150248815Y-103698815D01*
X150169463Y-103795506D01*
X150110498Y-103905820D01*
X150074188Y-104025518D01*
X150061928Y-104150000D01*
X150061928Y-104210000D01*
X148078783Y-104210000D01*
X147953745Y-104172071D01*
X147800000Y-104156928D01*
X146150000Y-104156928D01*
X145996255Y-104172071D01*
X145871217Y-104210000D01*
X145698465Y-104210000D01*
X145654999Y-104205719D01*
X145611533Y-104210000D01*
X145611523Y-104210000D01*
X145481510Y-104222805D01*
X145334990Y-104267252D01*
X145334990Y-102916588D01*
X146353517Y-101898061D01*
X148465000Y-101898061D01*
X148465000Y-102101939D01*
X148504774Y-102301898D01*
X148582795Y-102490256D01*
X148696063Y-102659774D01*
X148840226Y-102803937D01*
X149009744Y-102917205D01*
X149198102Y-102995226D01*
X149398061Y-103035000D01*
X149601939Y-103035000D01*
X149801898Y-102995226D01*
X149990256Y-102917205D01*
X150159774Y-102803937D01*
X150303937Y-102659774D01*
X150417205Y-102490256D01*
X150495226Y-102301898D01*
X150506535Y-102245043D01*
X151153475Y-101598103D01*
X151338967Y-101635000D01*
X151661033Y-101635000D01*
X151976912Y-101572168D01*
X152274463Y-101448918D01*
X152542252Y-101269987D01*
X152769987Y-101042252D01*
X152948918Y-100774463D01*
X153072168Y-100476912D01*
X153135000Y-100161033D01*
X153135000Y-99838967D01*
X153365000Y-99838967D01*
X153365000Y-100161033D01*
X153427832Y-100476912D01*
X153551082Y-100774463D01*
X153730013Y-101042252D01*
X153957748Y-101269987D01*
X154225537Y-101448918D01*
X154523088Y-101572168D01*
X154838967Y-101635000D01*
X155161033Y-101635000D01*
X155476912Y-101572168D01*
X155774463Y-101448918D01*
X156042252Y-101269987D01*
X156269987Y-101042252D01*
X156278273Y-101029851D01*
X156493465Y-101245044D01*
X156504774Y-101301898D01*
X156582795Y-101490256D01*
X156696063Y-101659774D01*
X156840226Y-101803937D01*
X157009744Y-101917205D01*
X157198102Y-101995226D01*
X157398061Y-102035000D01*
X157601939Y-102035000D01*
X157801898Y-101995226D01*
X157990256Y-101917205D01*
X158159774Y-101803937D01*
X158303937Y-101659774D01*
X158417205Y-101490256D01*
X158495226Y-101301898D01*
X158535000Y-101101939D01*
X158535000Y-100898061D01*
X170965000Y-100898061D01*
X170965000Y-101101939D01*
X171004774Y-101301898D01*
X171082795Y-101490256D01*
X171196063Y-101659774D01*
X171340226Y-101803937D01*
X171509744Y-101917205D01*
X171698102Y-101995226D01*
X171898061Y-102035000D01*
X172101939Y-102035000D01*
X172301898Y-101995226D01*
X172490256Y-101917205D01*
X172659774Y-101803937D01*
X172803937Y-101659774D01*
X172917205Y-101490256D01*
X172995226Y-101301898D01*
X173006535Y-101245043D01*
X173221727Y-101029851D01*
X173230013Y-101042252D01*
X173457748Y-101269987D01*
X173725537Y-101448918D01*
X174023088Y-101572168D01*
X174338967Y-101635000D01*
X174661033Y-101635000D01*
X174976912Y-101572168D01*
X175151140Y-101500000D01*
X182257815Y-101500000D01*
X182286487Y-101791111D01*
X182371401Y-102071034D01*
X182509294Y-102329014D01*
X182694866Y-102555134D01*
X182920986Y-102740706D01*
X183178966Y-102878599D01*
X183458889Y-102963513D01*
X183677050Y-102985000D01*
X184322950Y-102985000D01*
X184541111Y-102963513D01*
X184821034Y-102878599D01*
X185079014Y-102740706D01*
X185305134Y-102555134D01*
X185490706Y-102329014D01*
X185628599Y-102071034D01*
X185713513Y-101791111D01*
X185742185Y-101500000D01*
X185713513Y-101208889D01*
X185628599Y-100928966D01*
X185490706Y-100670986D01*
X185305134Y-100444866D01*
X185241663Y-100392777D01*
X185343386Y-100338405D01*
X185477962Y-100227962D01*
X185588405Y-100093386D01*
X185670472Y-99939850D01*
X185721008Y-99773254D01*
X185738072Y-99600000D01*
X185738072Y-98853740D01*
X189695000Y-98853740D01*
X189695000Y-99146260D01*
X189752068Y-99433158D01*
X189864010Y-99703411D01*
X190026525Y-99946632D01*
X190233368Y-100153475D01*
X190377828Y-100250000D01*
X190233368Y-100346525D01*
X190026525Y-100553368D01*
X189864010Y-100796589D01*
X189752068Y-101066842D01*
X189695000Y-101353740D01*
X189695000Y-101646260D01*
X189752068Y-101933158D01*
X189864010Y-102203411D01*
X190026525Y-102446632D01*
X190233368Y-102653475D01*
X190476589Y-102815990D01*
X190746842Y-102927932D01*
X191033740Y-102985000D01*
X191326260Y-102985000D01*
X191613158Y-102927932D01*
X191883411Y-102815990D01*
X192126632Y-102653475D01*
X192333475Y-102446632D01*
X192495990Y-102203411D01*
X192607932Y-101933158D01*
X192665000Y-101646260D01*
X192665000Y-101353740D01*
X192607932Y-101066842D01*
X192495990Y-100796589D01*
X192333475Y-100553368D01*
X192126632Y-100346525D01*
X191982172Y-100250000D01*
X192126632Y-100153475D01*
X192333475Y-99946632D01*
X192495990Y-99703411D01*
X192607932Y-99433158D01*
X192665000Y-99146260D01*
X192665000Y-98853740D01*
X192607932Y-98566842D01*
X192495990Y-98296589D01*
X192333475Y-98053368D01*
X192126632Y-97846525D01*
X191883411Y-97684010D01*
X191613158Y-97572068D01*
X191326260Y-97515000D01*
X191033740Y-97515000D01*
X190746842Y-97572068D01*
X190476589Y-97684010D01*
X190233368Y-97846525D01*
X190026525Y-98053368D01*
X189864010Y-98296589D01*
X189752068Y-98566842D01*
X189695000Y-98853740D01*
X185738072Y-98853740D01*
X185738072Y-98400000D01*
X185721008Y-98226746D01*
X185670472Y-98060150D01*
X185588405Y-97906614D01*
X185477962Y-97772038D01*
X185343386Y-97661595D01*
X185189850Y-97579528D01*
X185023254Y-97528992D01*
X184850000Y-97511928D01*
X183150000Y-97511928D01*
X182976746Y-97528992D01*
X182810150Y-97579528D01*
X182656614Y-97661595D01*
X182522038Y-97772038D01*
X182411595Y-97906614D01*
X182329528Y-98060150D01*
X182278992Y-98226746D01*
X182261928Y-98400000D01*
X182261928Y-99600000D01*
X182278992Y-99773254D01*
X182329528Y-99939850D01*
X182411595Y-100093386D01*
X182522038Y-100227962D01*
X182656614Y-100338405D01*
X182758337Y-100392777D01*
X182694866Y-100444866D01*
X182509294Y-100670986D01*
X182371401Y-100928966D01*
X182286487Y-101208889D01*
X182257815Y-101500000D01*
X175151140Y-101500000D01*
X175274463Y-101448918D01*
X175542252Y-101269987D01*
X175769987Y-101042252D01*
X175948918Y-100774463D01*
X176072168Y-100476912D01*
X176135000Y-100161033D01*
X176135000Y-99838967D01*
X176072168Y-99523088D01*
X175948918Y-99225537D01*
X175769987Y-98957748D01*
X175542252Y-98730013D01*
X175274463Y-98551082D01*
X174976912Y-98427832D01*
X174661033Y-98365000D01*
X174338967Y-98365000D01*
X174023088Y-98427832D01*
X173725537Y-98551082D01*
X173457748Y-98730013D01*
X173230013Y-98957748D01*
X173124941Y-99115000D01*
X173043469Y-99115000D01*
X173000000Y-99110719D01*
X172956531Y-99115000D01*
X172956523Y-99115000D01*
X172826510Y-99127805D01*
X172659686Y-99178411D01*
X172505941Y-99260589D01*
X172404953Y-99343468D01*
X172404951Y-99343470D01*
X172371183Y-99371183D01*
X172343470Y-99404951D01*
X171754957Y-99993465D01*
X171698102Y-100004774D01*
X171509744Y-100082795D01*
X171340226Y-100196063D01*
X171196063Y-100340226D01*
X171082795Y-100509744D01*
X171004774Y-100698102D01*
X170965000Y-100898061D01*
X158535000Y-100898061D01*
X158495226Y-100698102D01*
X158417205Y-100509744D01*
X158303937Y-100340226D01*
X158159774Y-100196063D01*
X157990256Y-100082795D01*
X157801898Y-100004774D01*
X157745044Y-99993465D01*
X157156534Y-99404956D01*
X157128817Y-99371183D01*
X156994059Y-99260589D01*
X156840313Y-99178411D01*
X156673490Y-99127805D01*
X156543477Y-99115000D01*
X156543469Y-99115000D01*
X156500000Y-99110719D01*
X156456531Y-99115000D01*
X156375059Y-99115000D01*
X156269987Y-98957748D01*
X156042252Y-98730013D01*
X155774463Y-98551082D01*
X155476912Y-98427832D01*
X155161033Y-98365000D01*
X154838967Y-98365000D01*
X154523088Y-98427832D01*
X154225537Y-98551082D01*
X153957748Y-98730013D01*
X153730013Y-98957748D01*
X153551082Y-99225537D01*
X153427832Y-99523088D01*
X153365000Y-99838967D01*
X153135000Y-99838967D01*
X153072168Y-99523088D01*
X152948918Y-99225537D01*
X152769987Y-98957748D01*
X152542252Y-98730013D01*
X152274463Y-98551082D01*
X151976912Y-98427832D01*
X151661033Y-98365000D01*
X151338967Y-98365000D01*
X151023088Y-98427832D01*
X150725537Y-98551082D01*
X150457748Y-98730013D01*
X150230013Y-98957748D01*
X150051082Y-99225537D01*
X149927832Y-99523088D01*
X149865000Y-99838967D01*
X149865000Y-100161033D01*
X149901897Y-100346525D01*
X149254957Y-100993465D01*
X149198102Y-101004774D01*
X149009744Y-101082795D01*
X148840226Y-101196063D01*
X148696063Y-101340226D01*
X148582795Y-101509744D01*
X148504774Y-101698102D01*
X148465000Y-101898061D01*
X146353517Y-101898061D01*
X146653475Y-101598104D01*
X146838967Y-101635000D01*
X147161033Y-101635000D01*
X147476912Y-101572168D01*
X147774463Y-101448918D01*
X148042252Y-101269987D01*
X148269987Y-101042252D01*
X148448918Y-100774463D01*
X148572168Y-100476912D01*
X148635000Y-100161033D01*
X148635000Y-99838967D01*
X148572168Y-99523088D01*
X148448918Y-99225537D01*
X148269987Y-98957748D01*
X148042252Y-98730013D01*
X147774463Y-98551082D01*
X147476912Y-98427832D01*
X147161033Y-98365000D01*
X146838967Y-98365000D01*
X146523088Y-98427832D01*
X146225537Y-98551082D01*
X145957748Y-98730013D01*
X145730013Y-98957748D01*
X145551082Y-99225537D01*
X145427832Y-99523088D01*
X145365000Y-99838967D01*
X145365000Y-100161033D01*
X145401896Y-100346525D01*
X143854941Y-101893481D01*
X143821174Y-101921193D01*
X143793461Y-101954961D01*
X143793458Y-101954964D01*
X143710580Y-102055951D01*
X143628402Y-102209697D01*
X143577795Y-102376520D01*
X143560709Y-102550010D01*
X143564991Y-102593489D01*
X143564990Y-104618922D01*
X143505258Y-104507171D01*
X143407251Y-104387749D01*
X143287829Y-104289742D01*
X143151582Y-104216916D01*
X143003745Y-104172071D01*
X142850000Y-104156928D01*
X141200000Y-104156928D01*
X141046255Y-104172071D01*
X140898418Y-104216916D01*
X140889861Y-104221490D01*
X140876510Y-104222805D01*
X140709687Y-104273411D01*
X140555941Y-104355589D01*
X140555939Y-104355590D01*
X140555940Y-104355590D01*
X140454953Y-104438468D01*
X140454951Y-104438470D01*
X140421183Y-104466183D01*
X140393470Y-104499951D01*
X139179946Y-105713476D01*
X139146173Y-105741193D01*
X139035579Y-105875952D01*
X138953401Y-106029698D01*
X138927003Y-106116719D01*
X138902795Y-106196520D01*
X138901840Y-106206213D01*
X138889990Y-106326534D01*
X138889990Y-106326541D01*
X138885709Y-106370010D01*
X138889990Y-106413479D01*
X138889991Y-109731511D01*
X138885709Y-109774990D01*
X138902795Y-109948480D01*
X138953402Y-110115303D01*
X139035580Y-110269049D01*
X139118458Y-110370036D01*
X139118461Y-110370039D01*
X139146174Y-110403807D01*
X139179941Y-110431519D01*
X141090112Y-112341691D01*
X141086255Y-112342071D01*
X140961217Y-112380000D01*
X139748791Y-112380000D01*
X139746008Y-112351746D01*
X139695472Y-112185150D01*
X139613405Y-112031614D01*
X139502962Y-111897038D01*
X139368386Y-111786595D01*
X139214850Y-111704528D01*
X139048254Y-111653992D01*
X138875000Y-111636928D01*
X138200000Y-111636928D01*
X138026746Y-111653992D01*
X137860150Y-111704528D01*
X137706614Y-111786595D01*
X137572038Y-111897038D01*
X137500000Y-111984817D01*
X137427962Y-111897038D01*
X137293386Y-111786595D01*
X137139850Y-111704528D01*
X136973254Y-111653992D01*
X136800000Y-111636928D01*
X136125000Y-111636928D01*
X135951746Y-111653992D01*
X135785150Y-111704528D01*
X135631614Y-111786595D01*
X135497038Y-111897038D01*
X135386595Y-112031614D01*
X135304528Y-112185150D01*
X135253992Y-112351746D01*
X135236928Y-112525000D01*
X135236928Y-113011493D01*
X134486494Y-113761928D01*
X134049999Y-113761928D01*
X133876745Y-113778992D01*
X133710149Y-113829528D01*
X133556613Y-113911595D01*
X133422038Y-114022038D01*
X133311595Y-114156613D01*
X133229528Y-114310149D01*
X133178992Y-114476745D01*
X133161928Y-114649999D01*
X133161928Y-115350001D01*
X133178992Y-115523255D01*
X133229528Y-115689851D01*
X133311595Y-115843387D01*
X133422038Y-115977962D01*
X133448891Y-116000000D01*
X133422038Y-116022038D01*
X133345746Y-116115000D01*
X131875059Y-116115000D01*
X131769987Y-115957748D01*
X131542252Y-115730013D01*
X131274463Y-115551082D01*
X130976912Y-115427832D01*
X130661033Y-115365000D01*
X130338967Y-115365000D01*
X130023088Y-115427832D01*
X129725537Y-115551082D01*
X129457748Y-115730013D01*
X129230013Y-115957748D01*
X129051082Y-116225537D01*
X128927832Y-116523088D01*
X128865000Y-116838967D01*
X128865000Y-117161033D01*
X128927832Y-117476912D01*
X129051082Y-117774463D01*
X129230013Y-118042252D01*
X129452751Y-118264990D01*
X128047249Y-118264990D01*
X128269987Y-118042252D01*
X128448918Y-117774463D01*
X128572168Y-117476912D01*
X128635000Y-117161033D01*
X128635000Y-116838967D01*
X128572168Y-116523088D01*
X128448918Y-116225537D01*
X128269987Y-115957748D01*
X128042252Y-115730013D01*
X127885000Y-115624941D01*
X127885000Y-114543469D01*
X127889281Y-114500000D01*
X127885000Y-114456531D01*
X127885000Y-114456523D01*
X127873652Y-114341306D01*
X127872195Y-114326509D01*
X127837014Y-114210537D01*
X127821589Y-114159687D01*
X127739411Y-114005941D01*
X127686730Y-113941749D01*
X127656532Y-113904953D01*
X127656530Y-113904951D01*
X127628817Y-113871183D01*
X127595049Y-113843470D01*
X125811588Y-112060010D01*
X126281521Y-112060010D01*
X126324990Y-112064291D01*
X126368459Y-112060010D01*
X126368467Y-112060010D01*
X126498480Y-112047205D01*
X126665303Y-111996599D01*
X126819049Y-111914421D01*
X126953807Y-111803827D01*
X126981524Y-111770054D01*
X127513506Y-111238072D01*
X127950001Y-111238072D01*
X128123255Y-111221008D01*
X128289851Y-111170472D01*
X128443387Y-111088405D01*
X128577962Y-110977962D01*
X128688405Y-110843387D01*
X128736928Y-110752607D01*
X128736928Y-111475000D01*
X128753992Y-111648254D01*
X128804528Y-111814850D01*
X128886595Y-111968386D01*
X128997038Y-112102962D01*
X129131614Y-112213405D01*
X129285150Y-112295472D01*
X129451746Y-112346008D01*
X129625000Y-112363072D01*
X130300000Y-112363072D01*
X130473254Y-112346008D01*
X130639850Y-112295472D01*
X130793386Y-112213405D01*
X130927962Y-112102962D01*
X131000000Y-112015183D01*
X131072038Y-112102962D01*
X131206614Y-112213405D01*
X131360150Y-112295472D01*
X131526746Y-112346008D01*
X131700000Y-112363072D01*
X132375000Y-112363072D01*
X132548254Y-112346008D01*
X132714850Y-112295472D01*
X132868386Y-112213405D01*
X133002962Y-112102962D01*
X133113405Y-111968386D01*
X133164339Y-111873096D01*
X133173490Y-111872195D01*
X133340313Y-111821589D01*
X133494059Y-111739411D01*
X133628817Y-111628817D01*
X133656534Y-111595044D01*
X133745043Y-111506535D01*
X133801898Y-111495226D01*
X133990256Y-111417205D01*
X134159774Y-111303937D01*
X134303937Y-111159774D01*
X134417205Y-110990256D01*
X134495226Y-110801898D01*
X134506535Y-110745043D01*
X134989982Y-110261596D01*
X135148254Y-110246008D01*
X135314850Y-110195472D01*
X135468386Y-110113405D01*
X135602962Y-110002962D01*
X135713405Y-109868386D01*
X135795472Y-109714850D01*
X135846008Y-109548254D01*
X135863072Y-109375000D01*
X135863072Y-108700000D01*
X135846008Y-108526746D01*
X135795472Y-108360150D01*
X135713405Y-108206614D01*
X135602962Y-108072038D01*
X135515183Y-108000000D01*
X135602962Y-107927962D01*
X135713405Y-107793386D01*
X135795472Y-107639850D01*
X135846008Y-107473254D01*
X135863072Y-107300000D01*
X135863072Y-106625000D01*
X135846008Y-106451746D01*
X135808801Y-106329090D01*
X135900000Y-106338072D01*
X136214250Y-106335000D01*
X136373000Y-106176250D01*
X136373000Y-105127000D01*
X136627000Y-105127000D01*
X136627000Y-106176250D01*
X136785750Y-106335000D01*
X137100000Y-106338072D01*
X137224482Y-106325812D01*
X137344180Y-106289502D01*
X137454494Y-106230537D01*
X137551185Y-106151185D01*
X137630537Y-106054494D01*
X137689502Y-105944180D01*
X137725812Y-105824482D01*
X137738072Y-105700000D01*
X137735000Y-105285750D01*
X137576250Y-105127000D01*
X136627000Y-105127000D01*
X136373000Y-105127000D01*
X136353000Y-105127000D01*
X136353000Y-104873000D01*
X136373000Y-104873000D01*
X136373000Y-103823750D01*
X136627000Y-103823750D01*
X136627000Y-104873000D01*
X137576250Y-104873000D01*
X137735000Y-104714250D01*
X137738072Y-104300000D01*
X137725812Y-104175518D01*
X137689502Y-104055820D01*
X137630537Y-103945506D01*
X137551185Y-103848815D01*
X137454494Y-103769463D01*
X137344180Y-103710498D01*
X137224482Y-103674188D01*
X137100000Y-103661928D01*
X136785750Y-103665000D01*
X136627000Y-103823750D01*
X136373000Y-103823750D01*
X136214250Y-103665000D01*
X135900000Y-103661928D01*
X135775518Y-103674188D01*
X135655820Y-103710498D01*
X135545506Y-103769463D01*
X135448815Y-103848815D01*
X135424637Y-103878276D01*
X135343387Y-103811595D01*
X135189851Y-103729528D01*
X135023255Y-103678992D01*
X134850001Y-103661928D01*
X134149999Y-103661928D01*
X133976745Y-103678992D01*
X133810149Y-103729528D01*
X133656613Y-103811595D01*
X133522038Y-103922038D01*
X133411595Y-104056613D01*
X133385000Y-104106369D01*
X133385000Y-101866578D01*
X133653475Y-101598103D01*
X133838967Y-101635000D01*
X134161033Y-101635000D01*
X134476912Y-101572168D01*
X134774463Y-101448918D01*
X135042252Y-101269987D01*
X135269987Y-101042252D01*
X135448918Y-100774463D01*
X135572168Y-100476912D01*
X135635000Y-100161033D01*
X135635000Y-99838967D01*
X135572168Y-99523088D01*
X135448918Y-99225537D01*
X135269987Y-98957748D01*
X135042252Y-98730013D01*
X134774463Y-98551082D01*
X134476912Y-98427832D01*
X134161033Y-98365000D01*
X133838967Y-98365000D01*
X133523088Y-98427832D01*
X133225537Y-98551082D01*
X132957748Y-98730013D01*
X132730013Y-98957748D01*
X132551082Y-99225537D01*
X132427832Y-99523088D01*
X132365000Y-99838967D01*
X132365000Y-100161033D01*
X132401897Y-100346525D01*
X131904956Y-100843466D01*
X131871183Y-100871183D01*
X131760589Y-101005942D01*
X131759520Y-101007942D01*
X131156536Y-100404958D01*
X131156532Y-100404953D01*
X131156530Y-100404951D01*
X131128817Y-100371183D01*
X131098197Y-100346054D01*
X131135000Y-100161033D01*
X131135000Y-99838967D01*
X131072168Y-99523088D01*
X130948918Y-99225537D01*
X130769987Y-98957748D01*
X130542252Y-98730013D01*
X130274463Y-98551082D01*
X129976912Y-98427832D01*
X129661033Y-98365000D01*
X129338967Y-98365000D01*
X129023088Y-98427832D01*
X128725537Y-98551082D01*
X128457748Y-98730013D01*
X128230013Y-98957748D01*
X128051082Y-99225537D01*
X127927832Y-99523088D01*
X127865000Y-99838967D01*
X127865000Y-100161033D01*
X127927832Y-100476912D01*
X128051082Y-100774463D01*
X128230013Y-101042252D01*
X128457748Y-101269987D01*
X128725537Y-101448918D01*
X129023088Y-101572168D01*
X129338967Y-101635000D01*
X129615000Y-101635000D01*
X129615001Y-102961545D01*
X129582795Y-103009744D01*
X129504774Y-103198102D01*
X129465000Y-103398061D01*
X129465000Y-103601939D01*
X129504774Y-103801898D01*
X129582795Y-103990256D01*
X129615000Y-104038455D01*
X129615001Y-104931988D01*
X128863072Y-104180060D01*
X128863072Y-103625000D01*
X128846008Y-103451746D01*
X128795472Y-103285150D01*
X128713405Y-103131614D01*
X128602962Y-102997038D01*
X128468386Y-102886595D01*
X128314850Y-102804528D01*
X128148254Y-102753992D01*
X127975000Y-102736928D01*
X127025000Y-102736928D01*
X126851746Y-102753992D01*
X126685150Y-102804528D01*
X126531614Y-102886595D01*
X126482173Y-102927170D01*
X126477962Y-102922038D01*
X126343387Y-102811595D01*
X126189851Y-102729528D01*
X126023255Y-102678992D01*
X125850001Y-102661928D01*
X125149999Y-102661928D01*
X124976745Y-102678992D01*
X124810149Y-102729528D01*
X124656613Y-102811595D01*
X124575363Y-102878276D01*
X124551185Y-102848815D01*
X124454494Y-102769463D01*
X124344180Y-102710498D01*
X124224482Y-102674188D01*
X124100000Y-102661928D01*
X123785750Y-102665000D01*
X123627000Y-102823750D01*
X123627000Y-103873000D01*
X123647000Y-103873000D01*
X123647000Y-104127000D01*
X123627000Y-104127000D01*
X123627000Y-104147000D01*
X123373000Y-104147000D01*
X123373000Y-104127000D01*
X122423750Y-104127000D01*
X122265000Y-104285750D01*
X122261928Y-104700000D01*
X122274188Y-104824482D01*
X122310498Y-104944180D01*
X122369463Y-105054494D01*
X122395663Y-105086419D01*
X122380386Y-105115000D01*
X122043469Y-105115000D01*
X122000000Y-105110719D01*
X121956531Y-105115000D01*
X121956523Y-105115000D01*
X121826510Y-105127805D01*
X121659686Y-105178411D01*
X121505941Y-105260589D01*
X121404953Y-105343468D01*
X121404951Y-105343470D01*
X121371183Y-105371183D01*
X121343470Y-105404951D01*
X118633422Y-108115000D01*
X117444759Y-108115000D01*
X117305134Y-107944866D01*
X117079014Y-107759294D01*
X117061626Y-107750000D01*
X117079014Y-107740706D01*
X117305134Y-107555134D01*
X117490706Y-107329014D01*
X117628599Y-107071034D01*
X117713513Y-106791111D01*
X117742185Y-106500000D01*
X117713513Y-106208889D01*
X117628599Y-105928966D01*
X117490706Y-105670986D01*
X117305134Y-105444866D01*
X117079014Y-105259294D01*
X116821034Y-105121401D01*
X116541111Y-105036487D01*
X116322950Y-105015000D01*
X115677050Y-105015000D01*
X115458889Y-105036487D01*
X115178966Y-105121401D01*
X114920986Y-105259294D01*
X114694866Y-105444866D01*
X114509294Y-105670986D01*
X114371401Y-105928966D01*
X114286487Y-106208889D01*
X114257815Y-106500000D01*
X110305000Y-106500000D01*
X110305000Y-106353740D01*
X110247932Y-106066842D01*
X110135990Y-105796589D01*
X109973475Y-105553368D01*
X109766632Y-105346525D01*
X109523411Y-105184010D01*
X109253158Y-105072068D01*
X108966260Y-105015000D01*
X108673740Y-105015000D01*
X108386842Y-105072068D01*
X108116589Y-105184010D01*
X107873368Y-105346525D01*
X107666525Y-105553368D01*
X107504010Y-105796589D01*
X107392068Y-106066842D01*
X107335000Y-106353740D01*
X105660000Y-106353740D01*
X105660000Y-103300000D01*
X122261928Y-103300000D01*
X122265000Y-103714250D01*
X122423750Y-103873000D01*
X123373000Y-103873000D01*
X123373000Y-102823750D01*
X123214250Y-102665000D01*
X122900000Y-102661928D01*
X122775518Y-102674188D01*
X122655820Y-102710498D01*
X122545506Y-102769463D01*
X122448815Y-102848815D01*
X122369463Y-102945506D01*
X122310498Y-103055820D01*
X122274188Y-103175518D01*
X122261928Y-103300000D01*
X105660000Y-103300000D01*
X105660000Y-98853740D01*
X107335000Y-98853740D01*
X107335000Y-99146260D01*
X107392068Y-99433158D01*
X107504010Y-99703411D01*
X107666525Y-99946632D01*
X107873368Y-100153475D01*
X108017828Y-100250000D01*
X107873368Y-100346525D01*
X107666525Y-100553368D01*
X107504010Y-100796589D01*
X107392068Y-101066842D01*
X107335000Y-101353740D01*
X107335000Y-101646260D01*
X107392068Y-101933158D01*
X107504010Y-102203411D01*
X107666525Y-102446632D01*
X107873368Y-102653475D01*
X108116589Y-102815990D01*
X108386842Y-102927932D01*
X108673740Y-102985000D01*
X108966260Y-102985000D01*
X109253158Y-102927932D01*
X109523411Y-102815990D01*
X109766632Y-102653475D01*
X109973475Y-102446632D01*
X110038042Y-102350000D01*
X114261928Y-102350000D01*
X114274188Y-102474482D01*
X114310498Y-102594180D01*
X114369463Y-102704494D01*
X114448815Y-102801185D01*
X114545506Y-102880537D01*
X114655820Y-102939502D01*
X114775518Y-102975812D01*
X114900000Y-102988072D01*
X115714250Y-102985000D01*
X115873000Y-102826250D01*
X115873000Y-101627000D01*
X116127000Y-101627000D01*
X116127000Y-102826250D01*
X116285750Y-102985000D01*
X117100000Y-102988072D01*
X117224482Y-102975812D01*
X117344180Y-102939502D01*
X117454494Y-102880537D01*
X117551185Y-102801185D01*
X117630537Y-102704494D01*
X117689502Y-102594180D01*
X117725812Y-102474482D01*
X117738072Y-102350000D01*
X117735000Y-101785750D01*
X117576250Y-101627000D01*
X116127000Y-101627000D01*
X115873000Y-101627000D01*
X114423750Y-101627000D01*
X114265000Y-101785750D01*
X114261928Y-102350000D01*
X110038042Y-102350000D01*
X110135990Y-102203411D01*
X110247932Y-101933158D01*
X110305000Y-101646260D01*
X110305000Y-101353740D01*
X110247932Y-101066842D01*
X110135990Y-100796589D01*
X109973475Y-100553368D01*
X109766632Y-100346525D01*
X109622172Y-100250000D01*
X109766632Y-100153475D01*
X109973475Y-99946632D01*
X110135990Y-99703411D01*
X110247932Y-99433158D01*
X110305000Y-99146260D01*
X110305000Y-99000000D01*
X114257815Y-99000000D01*
X114286487Y-99291111D01*
X114371401Y-99571034D01*
X114509294Y-99829014D01*
X114690608Y-100049945D01*
X114655820Y-100060498D01*
X114545506Y-100119463D01*
X114448815Y-100198815D01*
X114369463Y-100295506D01*
X114310498Y-100405820D01*
X114274188Y-100525518D01*
X114261928Y-100650000D01*
X114265000Y-101214250D01*
X114423750Y-101373000D01*
X115873000Y-101373000D01*
X115873000Y-101353000D01*
X116127000Y-101353000D01*
X116127000Y-101373000D01*
X117576250Y-101373000D01*
X117735000Y-101214250D01*
X117735429Y-101135413D01*
X125044192Y-101135413D01*
X125139956Y-101399814D01*
X125429571Y-101540704D01*
X125741108Y-101622384D01*
X126062595Y-101641718D01*
X126381675Y-101597961D01*
X126686088Y-101492795D01*
X126860044Y-101399814D01*
X126955808Y-101135413D01*
X126000000Y-100179605D01*
X125044192Y-101135413D01*
X117735429Y-101135413D01*
X117738072Y-100650000D01*
X117725812Y-100525518D01*
X117689502Y-100405820D01*
X117630537Y-100295506D01*
X117551185Y-100198815D01*
X117454494Y-100119463D01*
X117348104Y-100062595D01*
X124358282Y-100062595D01*
X124402039Y-100381675D01*
X124507205Y-100686088D01*
X124600186Y-100860044D01*
X124864587Y-100955808D01*
X125820395Y-100000000D01*
X126179605Y-100000000D01*
X127135413Y-100955808D01*
X127399814Y-100860044D01*
X127540704Y-100570429D01*
X127622384Y-100258892D01*
X127641718Y-99937405D01*
X127597961Y-99618325D01*
X127492795Y-99313912D01*
X127399814Y-99139956D01*
X127135413Y-99044192D01*
X126179605Y-100000000D01*
X125820395Y-100000000D01*
X124864587Y-99044192D01*
X124600186Y-99139956D01*
X124459296Y-99429571D01*
X124377616Y-99741108D01*
X124358282Y-100062595D01*
X117348104Y-100062595D01*
X117344180Y-100060498D01*
X117309392Y-100049945D01*
X117490706Y-99829014D01*
X117628599Y-99571034D01*
X117713513Y-99291111D01*
X117742185Y-99000000D01*
X117728848Y-98864587D01*
X125044192Y-98864587D01*
X126000000Y-99820395D01*
X126955808Y-98864587D01*
X126860044Y-98600186D01*
X126570429Y-98459296D01*
X126258892Y-98377616D01*
X125937405Y-98358282D01*
X125618325Y-98402039D01*
X125313912Y-98507205D01*
X125139956Y-98600186D01*
X125044192Y-98864587D01*
X117728848Y-98864587D01*
X117713513Y-98708889D01*
X117628599Y-98428966D01*
X117490706Y-98170986D01*
X117305134Y-97944866D01*
X117079014Y-97759294D01*
X116821034Y-97621401D01*
X116541111Y-97536487D01*
X116322950Y-97515000D01*
X115677050Y-97515000D01*
X115458889Y-97536487D01*
X115178966Y-97621401D01*
X114920986Y-97759294D01*
X114694866Y-97944866D01*
X114509294Y-98170986D01*
X114371401Y-98428966D01*
X114286487Y-98708889D01*
X114257815Y-99000000D01*
X110305000Y-99000000D01*
X110305000Y-98853740D01*
X110247932Y-98566842D01*
X110135990Y-98296589D01*
X109973475Y-98053368D01*
X109766632Y-97846525D01*
X109523411Y-97684010D01*
X109253158Y-97572068D01*
X108966260Y-97515000D01*
X108673740Y-97515000D01*
X108386842Y-97572068D01*
X108116589Y-97684010D01*
X107873368Y-97846525D01*
X107666525Y-98053368D01*
X107504010Y-98296589D01*
X107392068Y-98566842D01*
X107335000Y-98853740D01*
X105660000Y-98853740D01*
X105660000Y-97160000D01*
X194340000Y-97160000D01*
X194340001Y-120840000D01*
G37*
G04 #@! TD.AperFunction*
D21*
X147242000Y-115678000D02*
X147262000Y-115678000D01*
X147262000Y-115932000D01*
X147242000Y-115932000D01*
X147242000Y-115952000D01*
X146988000Y-115952000D01*
X146988000Y-115932000D01*
X146968000Y-115932000D01*
X146968000Y-115678000D01*
X146988000Y-115678000D01*
X146988000Y-115658000D01*
X147242000Y-115658000D01*
X147242000Y-115678000D01*
G04 #@! TA.AperFunction,Conductor*
D22*
G36*
X147242000Y-115678000D02*
G01*
X147262000Y-115678000D01*
X147262000Y-115932000D01*
X147242000Y-115932000D01*
X147242000Y-115952000D01*
X146988000Y-115952000D01*
X146988000Y-115932000D01*
X146968000Y-115932000D01*
X146968000Y-115678000D01*
X146988000Y-115678000D01*
X146988000Y-115658000D01*
X147242000Y-115658000D01*
X147242000Y-115678000D01*
G37*
G04 #@! TD.AperFunction*
D21*
X169361928Y-115445000D02*
X169361928Y-115745000D01*
X169377071Y-115898745D01*
X169421916Y-116046582D01*
X169493730Y-116180936D01*
X169469463Y-116210506D01*
X169410498Y-116320820D01*
X169374188Y-116440518D01*
X169361928Y-116565000D01*
X169365000Y-116579250D01*
X169523750Y-116738000D01*
X170848000Y-116738000D01*
X170848000Y-116718000D01*
X171102000Y-116718000D01*
X171102000Y-116738000D01*
X171122000Y-116738000D01*
X171122000Y-116992000D01*
X171102000Y-116992000D01*
X171102000Y-118008000D01*
X171122000Y-118008000D01*
X171122000Y-118262000D01*
X171102000Y-118262000D01*
X171102000Y-119278000D01*
X171122000Y-119278000D01*
X171122000Y-119532000D01*
X171102000Y-119532000D01*
X171102000Y-119552000D01*
X170848000Y-119552000D01*
X170848000Y-119532000D01*
X169523750Y-119532000D01*
X169365000Y-119690750D01*
X169361928Y-119705000D01*
X169374188Y-119829482D01*
X169387389Y-119873000D01*
X167569308Y-119873000D01*
X167578084Y-119856582D01*
X167622929Y-119708745D01*
X167638072Y-119555000D01*
X167638072Y-119255000D01*
X167622929Y-119101255D01*
X167578084Y-118953418D01*
X167506270Y-118819064D01*
X167530537Y-118789494D01*
X167589502Y-118679180D01*
X167625812Y-118559482D01*
X167638072Y-118435000D01*
X169361928Y-118435000D01*
X169374188Y-118559482D01*
X169410498Y-118679180D01*
X169459043Y-118770000D01*
X169410498Y-118860820D01*
X169374188Y-118980518D01*
X169361928Y-119105000D01*
X169365000Y-119119250D01*
X169523750Y-119278000D01*
X170848000Y-119278000D01*
X170848000Y-118262000D01*
X169523750Y-118262000D01*
X169365000Y-118420750D01*
X169361928Y-118435000D01*
X167638072Y-118435000D01*
X167635000Y-118420750D01*
X167476250Y-118262000D01*
X166152000Y-118262000D01*
X166152000Y-118282000D01*
X165898000Y-118282000D01*
X165898000Y-118262000D01*
X165878000Y-118262000D01*
X165878000Y-118008000D01*
X165898000Y-118008000D01*
X165898000Y-116992000D01*
X166152000Y-116992000D01*
X166152000Y-118008000D01*
X167476250Y-118008000D01*
X167635000Y-117849250D01*
X167638072Y-117835000D01*
X167625812Y-117710518D01*
X167589502Y-117590820D01*
X167540957Y-117500000D01*
X167589502Y-117409180D01*
X167625812Y-117289482D01*
X167638072Y-117165000D01*
X169361928Y-117165000D01*
X169374188Y-117289482D01*
X169410498Y-117409180D01*
X169459043Y-117500000D01*
X169410498Y-117590820D01*
X169374188Y-117710518D01*
X169361928Y-117835000D01*
X169365000Y-117849250D01*
X169523750Y-118008000D01*
X170848000Y-118008000D01*
X170848000Y-116992000D01*
X169523750Y-116992000D01*
X169365000Y-117150750D01*
X169361928Y-117165000D01*
X167638072Y-117165000D01*
X167635000Y-117150750D01*
X167476250Y-116992000D01*
X166152000Y-116992000D01*
X165898000Y-116992000D01*
X165878000Y-116992000D01*
X165878000Y-116738000D01*
X165898000Y-116738000D01*
X165898000Y-116718000D01*
X166152000Y-116718000D01*
X166152000Y-116738000D01*
X167476250Y-116738000D01*
X167635000Y-116579250D01*
X167638072Y-116565000D01*
X167625812Y-116440518D01*
X167589502Y-116320820D01*
X167530537Y-116210506D01*
X167506270Y-116180936D01*
X167578084Y-116046582D01*
X167622929Y-115898745D01*
X167638072Y-115745000D01*
X167638072Y-115445000D01*
X167631374Y-115377000D01*
X169368626Y-115377000D01*
X169361928Y-115445000D01*
G04 #@! TA.AperFunction,Conductor*
D22*
G36*
X169361928Y-115445000D02*
G01*
X169361928Y-115745000D01*
X169377071Y-115898745D01*
X169421916Y-116046582D01*
X169493730Y-116180936D01*
X169469463Y-116210506D01*
X169410498Y-116320820D01*
X169374188Y-116440518D01*
X169361928Y-116565000D01*
X169365000Y-116579250D01*
X169523750Y-116738000D01*
X170848000Y-116738000D01*
X170848000Y-116718000D01*
X171102000Y-116718000D01*
X171102000Y-116738000D01*
X171122000Y-116738000D01*
X171122000Y-116992000D01*
X171102000Y-116992000D01*
X171102000Y-118008000D01*
X171122000Y-118008000D01*
X171122000Y-118262000D01*
X171102000Y-118262000D01*
X171102000Y-119278000D01*
X171122000Y-119278000D01*
X171122000Y-119532000D01*
X171102000Y-119532000D01*
X171102000Y-119552000D01*
X170848000Y-119552000D01*
X170848000Y-119532000D01*
X169523750Y-119532000D01*
X169365000Y-119690750D01*
X169361928Y-119705000D01*
X169374188Y-119829482D01*
X169387389Y-119873000D01*
X167569308Y-119873000D01*
X167578084Y-119856582D01*
X167622929Y-119708745D01*
X167638072Y-119555000D01*
X167638072Y-119255000D01*
X167622929Y-119101255D01*
X167578084Y-118953418D01*
X167506270Y-118819064D01*
X167530537Y-118789494D01*
X167589502Y-118679180D01*
X167625812Y-118559482D01*
X167638072Y-118435000D01*
X169361928Y-118435000D01*
X169374188Y-118559482D01*
X169410498Y-118679180D01*
X169459043Y-118770000D01*
X169410498Y-118860820D01*
X169374188Y-118980518D01*
X169361928Y-119105000D01*
X169365000Y-119119250D01*
X169523750Y-119278000D01*
X170848000Y-119278000D01*
X170848000Y-118262000D01*
X169523750Y-118262000D01*
X169365000Y-118420750D01*
X169361928Y-118435000D01*
X167638072Y-118435000D01*
X167635000Y-118420750D01*
X167476250Y-118262000D01*
X166152000Y-118262000D01*
X166152000Y-118282000D01*
X165898000Y-118282000D01*
X165898000Y-118262000D01*
X165878000Y-118262000D01*
X165878000Y-118008000D01*
X165898000Y-118008000D01*
X165898000Y-116992000D01*
X166152000Y-116992000D01*
X166152000Y-118008000D01*
X167476250Y-118008000D01*
X167635000Y-117849250D01*
X167638072Y-117835000D01*
X167625812Y-117710518D01*
X167589502Y-117590820D01*
X167540957Y-117500000D01*
X167589502Y-117409180D01*
X167625812Y-117289482D01*
X167638072Y-117165000D01*
X169361928Y-117165000D01*
X169374188Y-117289482D01*
X169410498Y-117409180D01*
X169459043Y-117500000D01*
X169410498Y-117590820D01*
X169374188Y-117710518D01*
X169361928Y-117835000D01*
X169365000Y-117849250D01*
X169523750Y-118008000D01*
X170848000Y-118008000D01*
X170848000Y-116992000D01*
X169523750Y-116992000D01*
X169365000Y-117150750D01*
X169361928Y-117165000D01*
X167638072Y-117165000D01*
X167635000Y-117150750D01*
X167476250Y-116992000D01*
X166152000Y-116992000D01*
X165898000Y-116992000D01*
X165878000Y-116992000D01*
X165878000Y-116738000D01*
X165898000Y-116738000D01*
X165898000Y-116718000D01*
X166152000Y-116718000D01*
X166152000Y-116738000D01*
X167476250Y-116738000D01*
X167635000Y-116579250D01*
X167638072Y-116565000D01*
X167625812Y-116440518D01*
X167589502Y-116320820D01*
X167530537Y-116210506D01*
X167506270Y-116180936D01*
X167578084Y-116046582D01*
X167622929Y-115898745D01*
X167638072Y-115745000D01*
X167638072Y-115445000D01*
X167631374Y-115377000D01*
X169368626Y-115377000D01*
X169361928Y-115445000D01*
G37*
G04 #@! TD.AperFunction*
M02*
